<svg width="229" height="137" viewBox="0 0 229 137" fill="none" xmlns="http://www.w3.org/2000/svg">
<path d="M41.7527 42.1637C41.7527 52.7858 37.0107 56.2 29.2338 56.2H21.0776V75.168H28.0957C37.5797 75.168 41.7527 79.7203 41.7527 92.0495V102.482C41.7527 114.242 37.5797 117.467 30.9409 117.467C24.3021 117.467 20.1292 113.863 20.1292 104.379V92.0495H0.402466V103.051C0.402466 124.295 11.0245 136.435 31.51 136.435C51.9954 136.435 62.6175 124.295 62.6175 103.051V92.6186C62.6175 79.1513 58.4445 69.2879 48.0121 64.7356C58.0652 60.5626 62.6175 51.6477 62.6175 37.4217V34.0075C62.6175 12.7633 51.9954 0.623779 31.51 0.623779C11.0245 0.623779 0.402466 12.7633 0.402466 34.0075V41.2153H20.1292V32.6797C20.1292 23.1957 24.3021 19.5918 30.9409 19.5918C37.5797 19.5918 41.7527 22.8163 41.7527 34.7662V42.1637Z" fill="white"/>
<path d="M69.5073 33.628H85.6301V134.917H106.495V2.14111H92.4586C89.234 11.0561 85.6301 18.833 69.5073 18.833V33.628Z" fill="white"/>
<path d="M118.372 110.828H158.584V134.917H179.069V110.828H188.933V91.8597H179.069V2.14111H156.308L118.372 91.8597V110.828ZM137.529 91.8597L158.584 41.9739V91.8597H137.529Z" fill="white"/>
<path d="M191.27 33.628H207.393V134.917H228.258V2.14111H214.221C210.997 11.0561 207.393 18.833 191.27 18.833V33.628Z" fill="white"/>
</svg>
