<svg width="936" height="686" viewBox="0 0 936 686" fill="none" xmlns="http://www.w3.org/2000/svg">
<path d="M19.4622 438.92C19.4622 504.973 54.2582 542.718 117.953 542.718C181.647 542.718 216.443 504.973 216.443 438.92V363.43C216.443 302.685 192.263 269.068 144.492 269.068C115.594 269.068 95.5416 282.043 84.3361 305.633V230.144C84.3361 190.63 97.3109 179.424 120.312 179.424C140.953 179.424 153.928 190.63 153.928 220.118V234.862H215.263V224.246C215.263 158.193 182.237 120.448 118.542 120.448C51.3094 120.448 19.4622 158.193 19.4622 227.785V438.92ZM117.953 328.044C138.594 328.044 151.569 339.25 151.569 368.738V443.048C151.569 472.536 138.594 483.152 117.953 483.152C97.3109 483.152 84.3361 472.536 84.3361 443.048V368.738C84.3361 339.25 97.3109 328.044 117.953 328.044ZM385.991 226.605C385.991 345.737 257.422 365.789 257.422 487.28V538H444.967V479.024H322.296C321.706 476.075 321.706 473.126 321.706 470.177C321.706 402.355 450.864 353.994 450.864 224.246C450.864 158.193 417.838 120.448 354.143 120.448C290.449 120.448 257.422 158.193 257.422 224.246V264.35H318.758V220.118C318.758 190.63 331.732 179.424 352.374 179.424C373.016 179.424 385.991 189.45 385.991 226.605ZM685.876 438.92V406.483C685.876 366.969 674.08 336.301 645.772 320.378C672.311 305.633 685.876 277.915 685.876 237.221V224.246C685.876 158.193 649.9 120.448 584.437 120.448C518.973 120.448 482.997 158.193 482.997 224.246V237.221C482.997 277.915 495.972 305.633 523.101 320.378C494.793 336.301 482.997 366.969 482.997 406.483V438.92C482.997 504.973 518.973 542.718 584.437 542.718C649.9 542.718 685.876 504.973 685.876 438.92ZM547.871 437.151V398.816C547.871 366.379 561.436 352.225 584.437 352.225C607.437 352.225 621.002 366.379 621.002 398.816V437.151C620.412 473.716 605.078 483.742 584.437 483.742C563.795 483.742 547.871 473.716 547.871 437.151ZM547.871 226.605C547.871 189.45 563.795 179.424 584.437 179.424C605.078 179.424 621.002 189.45 621.002 226.605V249.606C621.002 282.633 605.078 293.248 584.437 293.248C563.205 293.248 547.871 282.633 547.871 249.606V226.605ZM853.654 226.605C853.654 345.737 725.086 365.789 725.086 487.28V538H912.63V479.024H789.96C789.37 476.075 789.37 473.126 789.37 470.177C789.37 402.355 918.528 353.994 918.528 224.246C918.528 158.193 885.501 120.448 821.807 120.448C758.112 120.448 725.086 158.193 725.086 224.246V264.35H786.421V220.118C786.421 190.63 799.396 179.424 820.038 179.424C840.679 179.424 853.654 189.45 853.654 226.605Z" fill="#00ED75"/>
<path d="M261.217 18.3438V61H253.16V18.3438H261.217ZM286.617 18.3438L269.771 43.0117H259.195L258.141 35.9219H265.406L276.803 18.3438H286.617ZM278.326 61L265.465 41.7227L270.885 35.7754L287.965 61H278.326ZM289.02 45.4727V44.8574C289.02 42.5332 289.352 40.3945 290.016 38.4414C290.68 36.4688 291.646 34.7598 292.916 33.3145C294.186 31.8691 295.738 30.7461 297.574 29.9453C299.41 29.125 301.5 28.7148 303.844 28.7148C306.227 28.7148 308.336 29.125 310.172 29.9453C312.027 30.7461 313.59 31.8691 314.859 33.3145C316.129 34.7598 317.096 36.4688 317.76 38.4414C318.424 40.3945 318.756 42.5332 318.756 44.8574V45.4727C318.756 47.7773 318.424 49.916 317.76 51.8887C317.096 53.8418 316.129 55.5508 314.859 57.0156C313.59 58.4609 312.037 59.584 310.201 60.3848C308.365 61.1855 306.266 61.5859 303.902 61.5859C301.559 61.5859 299.459 61.1855 297.604 60.3848C295.748 59.584 294.186 58.4609 292.916 57.0156C291.646 55.5508 290.68 53.8418 290.016 51.8887C289.352 49.916 289.02 47.7773 289.02 45.4727ZM296.754 44.8574V45.4727C296.754 46.8594 296.891 48.1582 297.164 49.3691C297.438 50.5801 297.857 51.6445 298.424 52.5625C298.99 53.4805 299.723 54.2031 300.621 54.7305C301.539 55.2383 302.633 55.4922 303.902 55.4922C305.152 55.4922 306.227 55.2383 307.125 54.7305C308.023 54.2031 308.756 53.4805 309.322 52.5625C309.908 51.6445 310.338 50.5801 310.611 49.3691C310.885 48.1582 311.021 46.8594 311.021 45.4727V44.8574C311.021 43.4902 310.885 42.2109 310.611 41.0195C310.338 39.8086 309.908 38.7441 309.322 37.8262C308.756 36.8887 308.014 36.1562 307.096 35.6289C306.197 35.082 305.113 34.8086 303.844 34.8086C302.594 34.8086 301.52 35.082 300.621 35.6289C299.723 36.1562 298.99 36.8887 298.424 37.8262C297.857 38.7441 297.438 39.8086 297.164 41.0195C296.891 42.2109 296.754 43.4902 296.754 44.8574ZM345.211 29.3008V35.4238H329.684V29.3008H345.211ZM351.041 29.3008V61H343.307V29.3008H351.041ZM327.75 29.3008H335.396L334.547 45.1211C334.41 47.4453 334.166 49.4863 333.814 51.2441C333.463 52.9824 332.994 54.4766 332.408 55.7266C331.822 56.957 331.109 57.9629 330.27 58.7441C329.43 59.5254 328.453 60.1016 327.34 60.4727C326.246 60.8242 325.016 61 323.648 61H321.275L321.188 54.7598L322.301 54.6719C322.984 54.6133 323.57 54.4277 324.059 54.1152C324.566 53.8027 324.996 53.3535 325.348 52.7676C325.719 52.1816 326.021 51.4297 326.256 50.5117C326.51 49.5742 326.705 48.4805 326.842 47.2305C326.998 45.9609 327.105 44.4961 327.164 42.8359L327.75 29.3008ZM379.43 29.3008V35.4238H363.902V29.3008H379.43ZM385.26 29.3008V61H377.525V29.3008H385.26ZM361.969 29.3008H369.615L368.766 45.1211C368.629 47.4453 368.385 49.4863 368.033 51.2441C367.682 52.9824 367.213 54.4766 366.627 55.7266C366.041 56.957 365.328 57.9629 364.488 58.7441C363.648 59.5254 362.672 60.1016 361.559 60.4727C360.465 60.8242 359.234 61 357.867 61H355.494L355.406 54.7598L356.52 54.6719C357.203 54.6133 357.789 54.4277 358.277 54.1152C358.785 53.8027 359.215 53.3535 359.566 52.7676C359.938 52.1816 360.24 51.4297 360.475 50.5117C360.729 49.5742 360.924 48.4805 361.061 47.2305C361.217 45.9609 361.324 44.4961 361.383 42.8359L361.969 29.3008ZM406.588 61.5859C404.186 61.5859 402.027 61.1953 400.113 60.4141C398.199 59.6328 396.568 58.5488 395.221 57.1621C393.893 55.7559 392.867 54.125 392.145 52.2695C391.441 50.3945 391.09 48.3828 391.09 46.2344V45.0625C391.09 42.6211 391.441 40.4043 392.145 38.4121C392.848 36.4004 393.844 34.6719 395.133 33.2266C396.422 31.7812 397.965 30.668 399.762 29.8867C401.559 29.1055 403.541 28.7148 405.709 28.7148C407.955 28.7148 409.938 29.0957 411.656 29.8574C413.375 30.5996 414.811 31.6543 415.963 33.0215C417.115 34.3887 417.984 36.0293 418.57 37.9434C419.156 39.8379 419.449 41.9375 419.449 44.2422V47.4941H394.605V42.1621H411.832V41.5762C411.793 40.3457 411.559 39.2227 411.129 38.207C410.699 37.1719 410.035 36.3516 409.137 35.7461C408.238 35.1211 407.076 34.8086 405.65 34.8086C404.498 34.8086 403.492 35.0625 402.633 35.5703C401.793 36.0586 401.09 36.7617 400.523 37.6797C399.977 38.5781 399.566 39.6523 399.293 40.9023C399.02 42.1523 398.883 43.5391 398.883 45.0625V46.2344C398.883 47.5625 399.059 48.793 399.41 49.9258C399.781 51.0586 400.318 52.0449 401.021 52.8848C401.744 53.7051 402.604 54.3496 403.6 54.8184C404.615 55.2676 405.768 55.4922 407.057 55.4922C408.678 55.4922 410.143 55.1797 411.451 54.5547C412.779 53.9102 413.932 52.9629 414.908 51.7129L418.805 55.7559C418.141 56.7324 417.242 57.6699 416.109 58.5684C414.996 59.4668 413.648 60.1992 412.066 60.7656C410.484 61.3125 408.658 61.5859 406.588 61.5859ZM432.896 29.3008V61H425.162V29.3008H432.896ZM453.551 29.3008L439.576 48.7539H431.344L430.377 41.6641H436.09L443.795 29.3008H453.551ZM444.264 61L435.592 47.4062L442.037 43.3633L454.547 61H444.264ZM458.15 61V29.3008H465.914V54.9062H477.428V29.3008H485.221V61H458.15ZM489.732 54.9355L489.176 70.4043H481.998V61H478.336V54.9355H489.732ZM502.242 49.9551L513.785 29.3008H521.549V61H513.785V40.3164L502.242 61H494.479V29.3008H502.242V49.9551ZM535.318 45.3555H543.258L534.352 61H526.412L535.318 45.3555ZM540.709 29.3008H554.479V61H546.744V35.3359H540.709C539.479 35.3359 538.453 35.5605 537.633 36.0098C536.832 36.459 536.236 37.0352 535.846 37.7383C535.455 38.4219 535.26 39.125 535.26 39.8477C535.26 40.5508 535.445 41.2344 535.816 41.8984C536.188 42.5625 536.754 43.1094 537.516 43.5391C538.297 43.9688 539.273 44.1836 540.445 44.1836H549.498V49.6328H540.445C538.434 49.6328 536.627 49.3887 535.025 48.9004C533.443 48.3926 532.086 47.6895 530.953 46.791C529.84 45.8926 528.99 44.8379 528.404 43.627C527.818 42.3965 527.525 41.0586 527.525 39.6133C527.525 38.1289 527.818 36.7617 528.404 35.5117C529.01 34.2617 529.879 33.168 531.012 32.2305C532.164 31.293 533.551 30.5703 535.172 30.0625C536.812 29.5547 538.658 29.3008 540.709 29.3008ZM611.842 18.3438V61H603.756L585.621 31.4102V61H577.564V18.3438H585.621L603.814 47.9629V18.3438H611.842ZM628.102 18.3438V61H620.045V18.3438H628.102ZM645.299 36.7715V43.1289H625.992V36.7715H645.299ZM647.555 18.3438V24.7012H625.992V18.3438H647.555ZM671.93 18.3438V61H663.902V18.3438H671.93ZM685.172 18.3438V24.7012H650.807V18.3438H685.172Z" fill="#00ED75"/>
</svg>
