<svg width="320" height="235" viewBox="0 0 320 235" fill="none" xmlns="http://www.w3.org/2000/svg">
<path d="M6.65373 149.947C6.65373 172.529 18.5498 185.433 40.3257 185.433C62.1015 185.433 73.9976 172.529 73.9976 149.947V124.138C73.9976 103.371 65.7308 91.8778 49.3989 91.8778C39.5192 91.8778 32.6638 96.3136 28.8329 104.379V78.5703C28.8329 65.0612 33.2687 61.2303 41.1322 61.2303C48.1892 61.2303 52.625 65.0612 52.625 75.1426V80.1834H73.5943V76.554C73.5943 53.9717 62.3032 41.0675 40.5273 41.0675C17.5417 41.0675 6.65373 53.9717 6.65373 77.7638V149.947ZM40.3257 112.041C47.3827 112.041 51.8185 115.872 51.8185 125.953V151.358C51.8185 161.44 47.3827 165.069 40.3257 165.069C33.2687 165.069 28.8329 161.44 28.8329 151.358V125.953C28.8329 115.872 33.2687 112.041 40.3257 112.041ZM131.963 77.3606C131.963 118.089 88.0076 124.945 88.0076 166.48V183.82H152.125V163.657H110.187C109.985 162.649 109.985 161.641 109.985 160.633C109.985 137.446 154.142 120.912 154.142 76.554C154.142 53.9717 142.851 41.0675 121.075 41.0675C99.2988 41.0675 88.0076 53.9717 88.0076 76.554V90.2648H108.977V75.1426C108.977 65.0612 113.413 61.2303 120.47 61.2303C127.527 61.2303 131.963 64.658 131.963 77.3606ZM234.487 149.947V138.857C234.487 125.348 230.455 114.863 220.777 109.419C229.85 104.379 234.487 94.9022 234.487 80.9899V76.554C234.487 53.9717 222.188 41.0675 199.807 41.0675C177.427 41.0675 165.127 53.9717 165.127 76.554V80.9899C165.127 94.9022 169.563 104.379 178.838 109.419C169.16 114.863 165.127 125.348 165.127 138.857V149.947C165.127 172.529 177.427 185.433 199.807 185.433C222.188 185.433 234.487 172.529 234.487 149.947ZM187.306 149.342V136.236C187.306 125.146 191.944 120.307 199.807 120.307C207.671 120.307 212.308 125.146 212.308 136.236V149.342C212.107 161.843 206.864 165.271 199.807 165.271C192.75 165.271 187.306 161.843 187.306 149.342ZM187.306 77.3606C187.306 64.658 192.75 61.2303 199.807 61.2303C206.864 61.2303 212.308 64.658 212.308 77.3606V85.2241C212.308 96.5152 206.864 100.145 199.807 100.145C192.549 100.145 187.306 96.5152 187.306 85.2241V77.3606ZM291.848 77.3606C291.848 118.089 247.893 124.945 247.893 166.48V183.82H312.01V163.657H270.072C269.87 162.649 269.87 161.641 269.87 160.633C269.87 137.446 314.027 120.912 314.027 76.554C314.027 53.9717 302.735 41.0675 280.96 41.0675C259.184 41.0675 247.893 53.9717 247.893 76.554V90.2648H268.862V75.1426C268.862 65.0612 273.298 61.2303 280.355 61.2303C287.412 61.2303 291.848 64.658 291.848 77.3606Z" fill="#00ED75"/>
<path d="M89.3049 6.41667V21H86.5504V6.41667H89.3049ZM97.9888 6.41667L92.2295 14.8502H88.6138L88.2532 12.4263H90.7371L94.6334 6.41667H97.9888ZM95.1542 21L90.7572 14.4095L92.6101 12.3762L98.4495 21H95.1542ZM98.8101 15.6915V15.4812C98.8101 14.6866 98.9236 13.9554 99.1506 13.2877C99.3776 12.6132 99.7082 12.029 100.142 11.5349C100.576 11.0407 101.107 10.6568 101.735 10.383C102.362 10.1026 103.077 9.96234 103.878 9.96234C104.693 9.96234 105.414 10.1026 106.042 10.383C106.676 10.6568 107.21 11.0407 107.644 11.5349C108.078 12.029 108.409 12.6132 108.636 13.2877C108.863 13.9554 108.976 14.6866 108.976 15.4812V15.6915C108.976 16.4794 108.863 17.2106 108.636 17.885C108.409 18.5528 108.078 19.137 107.644 19.6378C107.21 20.1319 106.679 20.5159 106.052 20.7897C105.424 21.0634 104.706 21.2003 103.898 21.2003C103.097 21.2003 102.379 21.0634 101.745 20.7897C101.11 20.5159 100.576 20.1319 100.142 19.6378C99.7082 19.137 99.3776 18.5528 99.1506 17.885C98.9236 17.2106 98.8101 16.4794 98.8101 15.6915ZM101.454 15.4812V15.6915C101.454 16.1656 101.501 16.6096 101.595 17.0236C101.688 17.4376 101.832 17.8015 102.025 18.1154C102.219 18.4292 102.469 18.6763 102.776 18.8566C103.09 19.0302 103.464 19.117 103.898 19.117C104.326 19.117 104.693 19.0302 105 18.8566C105.307 18.6763 105.558 18.4292 105.751 18.1154C105.951 17.8015 106.098 17.4376 106.192 17.0236C106.285 16.6096 106.332 16.1656 106.332 15.6915V15.4812C106.332 15.0138 106.285 14.5764 106.192 14.1691C106.098 13.7551 105.951 13.3912 105.751 13.0773C105.558 12.7568 105.304 12.5064 104.99 12.3261C104.683 12.1392 104.312 12.0457 103.878 12.0457C103.451 12.0457 103.084 12.1392 102.776 12.3261C102.469 12.5064 102.219 12.7568 102.025 13.0773C101.832 13.3912 101.688 13.7551 101.595 14.1691C101.501 14.5764 101.454 15.0138 101.454 15.4812ZM118.021 10.1627V12.256H112.712V10.1627H118.021ZM120.014 10.1627V21H117.37V10.1627H120.014ZM112.051 10.1627H114.665L114.375 15.5713C114.328 16.3659 114.245 17.0637 114.125 17.6647C114.004 18.2589 113.844 18.7698 113.644 19.1971C113.443 19.6178 113.2 19.9617 112.913 20.2288C112.626 20.4959 112.292 20.6928 111.911 20.8197C111.537 20.9399 111.116 21 110.649 21H109.838L109.808 18.8666L110.188 18.8365C110.422 18.8165 110.622 18.7531 110.789 18.6462C110.963 18.5394 111.11 18.3858 111.23 18.1855C111.357 17.9852 111.46 17.7281 111.54 17.4143C111.627 17.0937 111.694 16.7198 111.741 16.2925C111.794 15.8584 111.831 15.3576 111.851 14.7901L112.051 10.1627ZM129.72 10.1627V12.256H124.411V10.1627H129.72ZM131.713 10.1627V21H129.068V10.1627H131.713ZM123.75 10.1627H126.364L126.074 15.5713C126.027 16.3659 125.943 17.0637 125.823 17.6647C125.703 18.2589 125.543 18.7698 125.343 19.1971C125.142 19.6178 124.898 19.9617 124.611 20.2288C124.324 20.4959 123.99 20.6928 123.61 20.8197C123.236 20.9399 122.815 21 122.348 21H121.536L121.506 18.8666L121.887 18.8365C122.121 18.8165 122.321 18.7531 122.488 18.6462C122.662 18.5394 122.808 18.3858 122.929 18.1855C123.056 17.9852 123.159 17.7281 123.239 17.4143C123.326 17.0937 123.393 16.7198 123.439 16.2925C123.493 15.8584 123.53 15.3576 123.55 14.7901L123.75 10.1627ZM139.004 21.2003C138.183 21.2003 137.445 21.0668 136.791 20.7997C136.136 20.5326 135.579 20.162 135.118 19.6879C134.664 19.2071 134.314 18.6496 134.066 18.0152C133.826 17.3742 133.706 16.6864 133.706 15.9519V15.5513C133.706 14.7166 133.826 13.9587 134.066 13.2776C134.307 12.5899 134.647 11.9989 135.088 11.5048C135.529 11.0107 136.056 10.6301 136.671 10.363C137.285 10.0959 137.963 9.96234 138.704 9.96234C139.472 9.96234 140.15 10.0925 140.737 10.353C141.325 10.6067 141.816 10.9673 142.21 11.4347C142.603 11.9021 142.901 12.463 143.101 13.1174C143.301 13.7651 143.401 14.4829 143.401 15.2708V16.3826H134.908V14.5597H140.797V14.3594C140.784 13.9387 140.704 13.5548 140.557 13.2075C140.41 12.8536 140.183 12.5732 139.876 12.3662C139.569 12.1525 139.171 12.0457 138.684 12.0457C138.29 12.0457 137.946 12.1325 137.652 12.3061C137.365 12.473 137.125 12.7134 136.931 13.0272C136.744 13.3344 136.604 13.7017 136.51 14.129C136.417 14.5564 136.37 15.0304 136.37 15.5513V15.9519C136.37 16.406 136.43 16.8267 136.55 17.2139C136.677 17.6012 136.861 17.9384 137.101 18.2256C137.348 18.506 137.642 18.7264 137.983 18.8866C138.33 19.0402 138.724 19.117 139.165 19.117C139.719 19.117 140.22 19.0101 140.667 18.7965C141.121 18.5761 141.515 18.2523 141.849 17.8249L143.181 19.2071C142.954 19.541 142.647 19.8615 142.26 20.1687C141.879 20.4758 141.418 20.7262 140.877 20.9199C140.337 21.1068 139.712 21.2003 139.004 21.2003ZM147.999 10.1627V21H145.355V10.1627H147.999ZM155.06 10.1627L150.282 16.8133H147.468L147.137 14.3894H149.091L151.725 10.1627H155.06ZM151.885 21L148.92 16.3526L151.124 14.9704L155.401 21H151.885ZM156.633 21V10.1627H159.287V18.9167H163.223V10.1627H165.887V21H156.633ZM167.43 18.9267L167.24 24.2151H164.786V21H163.534V18.9267H167.43ZM171.707 17.224L175.653 10.1627H178.307V21H175.653V13.9287L171.707 21H169.052V10.1627H171.707V17.224ZM183.015 15.6514H185.729L182.684 21H179.97L183.015 15.6514ZM184.858 10.1627H189.565V21H186.921V12.226H184.858C184.437 12.226 184.087 12.3028 183.806 12.4563C183.532 12.6099 183.329 12.8069 183.195 13.0473C183.062 13.281 182.995 13.5214 182.995 13.7684C182.995 14.0088 183.058 14.2425 183.185 14.4696C183.312 14.6966 183.506 14.8835 183.766 15.0304C184.033 15.1774 184.367 15.2508 184.768 15.2508H187.863V17.1138H184.768C184.08 17.1138 183.462 17.0303 182.915 16.8634C182.374 16.6898 181.91 16.4494 181.522 16.1422C181.142 15.8351 180.851 15.4745 180.651 15.0605C180.451 14.6398 180.351 14.1824 180.351 13.6883C180.351 13.1808 180.451 12.7134 180.651 12.2861C180.858 11.8587 181.155 11.4848 181.542 11.1643C181.936 10.8437 182.41 10.5967 182.965 10.4231C183.526 10.2495 184.157 10.1627 184.858 10.1627ZM209.177 6.41667V21H206.412L200.212 10.8838V21H197.458V6.41667H200.212L206.432 16.5429V6.41667H209.177ZM214.736 6.41667V21H211.981V6.41667H214.736ZM220.615 12.7167V14.8902H214.014V12.7167H220.615ZM221.386 6.41667V8.59014H214.014V6.41667H221.386ZM229.72 6.41667V21H226.975V6.41667H229.72ZM234.247 6.41667V8.59014H222.498V6.41667H234.247Z" fill="#00ED75"/>
</svg>
