<svg width="650" height="391" viewBox="0 0 650 391" fill="none" xmlns="http://www.w3.org/2000/svg">
<path d="M425.5 391C549.488 391 650 303.472 650 195.5C650 87.5283 549.488 0 425.5 0C301.512 0 201 87.5283 201 195.5C201 303.472 301.512 391 425.5 391Z" fill="#EF2ADC"/>
<path d="M322.148 132.67H324.773C324.637 133.928 324.277 135.053 323.693 136.047C323.11 137.04 322.285 137.829 321.219 138.412C320.152 138.986 318.822 139.273 317.227 139.273C316.06 139.273 314.998 139.055 314.041 138.617C313.093 138.18 312.277 137.56 311.594 136.758C310.91 135.947 310.382 134.976 310.008 133.846C309.643 132.706 309.461 131.439 309.461 130.045V128.062C309.461 126.668 309.643 125.406 310.008 124.275C310.382 123.136 310.915 122.161 311.607 121.35C312.309 120.538 313.152 119.914 314.137 119.477C315.121 119.039 316.229 118.82 317.459 118.82C318.963 118.82 320.234 119.103 321.273 119.668C322.312 120.233 323.119 121.017 323.693 122.02C324.277 123.013 324.637 124.166 324.773 125.479H322.148C322.021 124.549 321.784 123.751 321.438 123.086C321.091 122.411 320.599 121.892 319.961 121.527C319.323 121.163 318.489 120.98 317.459 120.98C316.575 120.98 315.796 121.149 315.121 121.486C314.456 121.824 313.895 122.302 313.439 122.922C312.993 123.542 312.656 124.285 312.428 125.15C312.2 126.016 312.086 126.978 312.086 128.035V130.045C312.086 131.02 312.186 131.936 312.387 132.793C312.596 133.65 312.911 134.402 313.33 135.049C313.749 135.696 314.283 136.206 314.93 136.58C315.577 136.945 316.342 137.127 317.227 137.127C318.348 137.127 319.241 136.949 319.906 136.594C320.572 136.238 321.073 135.728 321.41 135.062C321.757 134.397 322.003 133.6 322.148 132.67ZM336.709 136.471V128.855C336.709 128.272 336.59 127.766 336.354 127.338C336.126 126.9 335.779 126.563 335.314 126.326C334.85 126.089 334.275 125.971 333.592 125.971C332.954 125.971 332.393 126.08 331.91 126.299C331.436 126.518 331.062 126.805 330.789 127.16C330.525 127.516 330.393 127.898 330.393 128.309H327.863C327.863 127.78 328 127.256 328.273 126.736C328.547 126.217 328.939 125.747 329.449 125.328C329.969 124.9 330.589 124.562 331.309 124.316C332.038 124.061 332.849 123.934 333.742 123.934C334.818 123.934 335.766 124.116 336.586 124.48C337.415 124.845 338.062 125.396 338.527 126.135C339.001 126.864 339.238 127.78 339.238 128.883V135.773C339.238 136.266 339.279 136.79 339.361 137.346C339.452 137.902 339.585 138.38 339.758 138.781V139H337.119C336.992 138.708 336.891 138.321 336.818 137.838C336.745 137.346 336.709 136.89 336.709 136.471ZM337.146 130.031L337.174 131.809H334.617C333.897 131.809 333.255 131.868 332.689 131.986C332.124 132.096 331.65 132.264 331.268 132.492C330.885 132.72 330.593 133.007 330.393 133.354C330.192 133.691 330.092 134.087 330.092 134.543C330.092 135.008 330.197 135.432 330.406 135.814C330.616 136.197 330.93 136.503 331.35 136.73C331.778 136.949 332.302 137.059 332.922 137.059C333.697 137.059 334.38 136.895 334.973 136.566C335.565 136.238 336.035 135.837 336.381 135.363C336.736 134.889 336.928 134.429 336.955 133.982L338.035 135.199C337.971 135.582 337.798 136.006 337.516 136.471C337.233 136.936 336.855 137.382 336.381 137.811C335.916 138.23 335.36 138.581 334.713 138.863C334.075 139.137 333.355 139.273 332.553 139.273C331.55 139.273 330.671 139.077 329.914 138.686C329.167 138.294 328.583 137.77 328.164 137.113C327.754 136.448 327.549 135.705 327.549 134.885C327.549 134.092 327.704 133.395 328.014 132.793C328.324 132.182 328.77 131.676 329.354 131.275C329.937 130.865 330.639 130.555 331.459 130.346C332.279 130.136 333.195 130.031 334.207 130.031H337.146ZM351.721 135.637L356.752 124.207H359.186L352.596 139H350.846L344.283 124.207H346.717L351.721 135.637ZM345.979 124.207V139H343.449V124.207H345.979ZM357.381 139V124.207H359.924V139H357.381ZM363.328 131.768V131.453C363.328 130.387 363.483 129.398 363.793 128.486C364.103 127.566 364.549 126.768 365.133 126.094C365.716 125.41 366.423 124.882 367.252 124.508C368.081 124.125 369.011 123.934 370.041 123.934C371.08 123.934 372.014 124.125 372.844 124.508C373.682 124.882 374.393 125.41 374.977 126.094C375.569 126.768 376.02 127.566 376.33 128.486C376.64 129.398 376.795 130.387 376.795 131.453V131.768C376.795 132.834 376.64 133.823 376.33 134.734C376.02 135.646 375.569 136.443 374.977 137.127C374.393 137.801 373.687 138.33 372.857 138.713C372.037 139.087 371.107 139.273 370.068 139.273C369.029 139.273 368.095 139.087 367.266 138.713C366.436 138.33 365.725 137.801 365.133 137.127C364.549 136.443 364.103 135.646 363.793 134.734C363.483 133.823 363.328 132.834 363.328 131.768ZM365.857 131.453V131.768C365.857 132.506 365.944 133.203 366.117 133.859C366.29 134.507 366.55 135.081 366.896 135.582C367.252 136.083 367.694 136.48 368.223 136.771C368.751 137.054 369.367 137.195 370.068 137.195C370.761 137.195 371.367 137.054 371.887 136.771C372.415 136.48 372.853 136.083 373.199 135.582C373.546 135.081 373.805 134.507 373.979 133.859C374.161 133.203 374.252 132.506 374.252 131.768V131.453C374.252 130.724 374.161 130.036 373.979 129.389C373.805 128.732 373.541 128.154 373.186 127.652C372.839 127.142 372.402 126.741 371.873 126.449C371.354 126.158 370.743 126.012 370.041 126.012C369.348 126.012 368.738 126.158 368.209 126.449C367.689 126.741 367.252 127.142 366.896 127.652C366.55 128.154 366.29 128.732 366.117 129.389C365.944 130.036 365.857 130.724 365.857 131.453ZM386.105 139.273C385.076 139.273 384.141 139.1 383.303 138.754C382.473 138.398 381.758 137.902 381.156 137.264C380.564 136.626 380.108 135.869 379.789 134.994C379.47 134.119 379.311 133.162 379.311 132.123V131.549C379.311 130.346 379.488 129.275 379.844 128.336C380.199 127.388 380.682 126.586 381.293 125.93C381.904 125.273 382.596 124.777 383.371 124.439C384.146 124.102 384.948 123.934 385.777 123.934C386.835 123.934 387.746 124.116 388.512 124.48C389.286 124.845 389.92 125.355 390.412 126.012C390.904 126.659 391.269 127.424 391.506 128.309C391.743 129.184 391.861 130.141 391.861 131.18V132.314H380.814V130.25H389.332V130.059C389.296 129.402 389.159 128.764 388.922 128.145C388.694 127.525 388.329 127.014 387.828 126.613C387.327 126.212 386.643 126.012 385.777 126.012C385.203 126.012 384.674 126.135 384.191 126.381C383.708 126.618 383.294 126.973 382.947 127.447C382.601 127.921 382.332 128.5 382.141 129.184C381.949 129.867 381.854 130.656 381.854 131.549V132.123C381.854 132.825 381.949 133.486 382.141 134.105C382.341 134.716 382.628 135.254 383.002 135.719C383.385 136.184 383.845 136.548 384.383 136.812C384.93 137.077 385.549 137.209 386.242 137.209C387.135 137.209 387.892 137.027 388.512 136.662C389.132 136.298 389.674 135.81 390.139 135.199L391.67 136.416C391.351 136.899 390.945 137.359 390.453 137.797C389.961 138.234 389.355 138.59 388.635 138.863C387.924 139.137 387.081 139.273 386.105 139.273ZM404.508 124.207V139H401.979V124.207H404.508ZM414.215 124.207L407.201 132.684H403.66L403.277 130.469H406.176L411.139 124.207H414.215ZM411.494 139L406.053 132.301L407.68 130.469L414.707 139H411.494ZM425.631 136.471V128.855C425.631 128.272 425.512 127.766 425.275 127.338C425.048 126.9 424.701 126.563 424.236 126.326C423.771 126.089 423.197 125.971 422.514 125.971C421.876 125.971 421.315 126.08 420.832 126.299C420.358 126.518 419.984 126.805 419.711 127.16C419.447 127.516 419.314 127.898 419.314 128.309H416.785C416.785 127.78 416.922 127.256 417.195 126.736C417.469 126.217 417.861 125.747 418.371 125.328C418.891 124.9 419.51 124.562 420.23 124.316C420.96 124.061 421.771 123.934 422.664 123.934C423.74 123.934 424.688 124.116 425.508 124.48C426.337 124.845 426.984 125.396 427.449 126.135C427.923 126.864 428.16 127.78 428.16 128.883V135.773C428.16 136.266 428.201 136.79 428.283 137.346C428.374 137.902 428.507 138.38 428.68 138.781V139H426.041C425.913 138.708 425.813 138.321 425.74 137.838C425.667 137.346 425.631 136.89 425.631 136.471ZM426.068 130.031L426.096 131.809H423.539C422.819 131.809 422.176 131.868 421.611 131.986C421.046 132.096 420.572 132.264 420.189 132.492C419.807 132.72 419.515 133.007 419.314 133.354C419.114 133.691 419.014 134.087 419.014 134.543C419.014 135.008 419.118 135.432 419.328 135.814C419.538 136.197 419.852 136.503 420.271 136.73C420.7 136.949 421.224 137.059 421.844 137.059C422.618 137.059 423.302 136.895 423.895 136.566C424.487 136.238 424.956 135.837 425.303 135.363C425.658 134.889 425.85 134.429 425.877 133.982L426.957 135.199C426.893 135.582 426.72 136.006 426.438 136.471C426.155 136.936 425.777 137.382 425.303 137.811C424.838 138.23 424.282 138.581 423.635 138.863C422.997 139.137 422.277 139.273 421.475 139.273C420.472 139.273 419.592 139.077 418.836 138.686C418.089 138.294 417.505 137.77 417.086 137.113C416.676 136.448 416.471 135.705 416.471 134.885C416.471 134.092 416.626 133.395 416.936 132.793C417.245 132.182 417.692 131.676 418.275 131.275C418.859 130.865 419.561 130.555 420.381 130.346C421.201 130.136 422.117 130.031 423.129 130.031H426.068ZM434.873 134.994L441.695 124.207H444.238V139H441.695V128.213L434.873 139H432.357V124.207H434.873V134.994ZM440.314 118.848H442.365C442.365 119.559 442.201 120.192 441.873 120.748C441.545 121.295 441.076 121.723 440.465 122.033C439.854 122.343 439.13 122.498 438.291 122.498C437.024 122.498 436.021 122.161 435.283 121.486C434.554 120.803 434.189 119.923 434.189 118.848H436.24C436.24 119.385 436.395 119.859 436.705 120.27C437.015 120.68 437.544 120.885 438.291 120.885C439.02 120.885 439.54 120.68 439.85 120.27C440.16 119.859 440.314 119.385 440.314 118.848ZM465.307 131.863V132.15C465.307 133.189 465.193 134.146 464.965 135.021C464.737 135.887 464.395 136.639 463.939 137.277C463.493 137.915 462.937 138.412 462.271 138.768C461.606 139.114 460.836 139.287 459.961 139.287C459.241 139.287 458.607 139.191 458.061 139C457.514 138.799 457.049 138.512 456.666 138.139C456.292 137.765 455.992 137.318 455.764 136.799C455.545 136.27 455.395 135.678 455.312 135.021V128.459C455.395 127.757 455.545 127.128 455.764 126.572C455.992 126.016 456.292 125.542 456.666 125.15C457.049 124.758 457.509 124.458 458.047 124.248C458.585 124.038 459.214 123.934 459.934 123.934C460.645 123.934 461.283 124.061 461.848 124.316C462.422 124.562 462.923 124.918 463.352 125.383C463.789 125.848 464.149 126.408 464.432 127.064C464.723 127.712 464.942 128.441 465.088 129.252C465.234 130.063 465.307 130.934 465.307 131.863ZM462.777 132.15V131.863C462.777 131.225 462.732 130.619 462.641 130.045C462.559 129.462 462.426 128.928 462.244 128.445C462.071 127.953 461.843 127.525 461.561 127.16C461.278 126.796 460.936 126.513 460.535 126.312C460.143 126.112 459.692 126.012 459.182 126.012C458.635 126.012 458.179 126.08 457.814 126.217C457.459 126.354 457.181 126.536 456.98 126.764C456.78 126.982 456.634 127.215 456.543 127.461V136.033C456.652 136.234 456.812 136.425 457.021 136.607C457.231 136.781 457.514 136.926 457.869 137.045C458.225 137.154 458.671 137.209 459.209 137.209C459.847 137.209 460.389 137.081 460.836 136.826C461.292 136.562 461.661 136.197 461.943 135.732C462.235 135.268 462.445 134.73 462.572 134.119C462.709 133.508 462.777 132.852 462.777 132.15ZM447.738 132.15V131.863C447.738 130.934 447.811 130.063 447.957 129.252C448.103 128.441 448.322 127.712 448.613 127.064C448.905 126.408 449.265 125.848 449.693 125.383C450.131 124.918 450.632 124.562 451.197 124.316C451.771 124.061 452.414 123.934 453.125 123.934C453.827 123.934 454.438 124.038 454.957 124.248C455.486 124.458 455.932 124.758 456.297 125.15C456.661 125.542 456.953 126.016 457.172 126.572C457.391 127.128 457.546 127.757 457.637 128.459V134.762C457.555 135.454 457.404 136.079 457.186 136.635C456.967 137.191 456.675 137.669 456.311 138.07C455.946 138.462 455.495 138.763 454.957 138.973C454.428 139.182 453.809 139.287 453.098 139.287C452.223 139.287 451.452 139.114 450.787 138.768C450.122 138.412 449.561 137.915 449.105 137.277C448.659 136.639 448.317 135.887 448.08 135.021C447.852 134.146 447.738 133.189 447.738 132.15ZM450.281 131.863V132.15C450.281 132.852 450.34 133.508 450.459 134.119C450.587 134.73 450.783 135.268 451.047 135.732C451.32 136.197 451.676 136.562 452.113 136.826C452.551 137.081 453.089 137.209 453.727 137.209C454.273 137.209 454.725 137.141 455.08 137.004C455.436 136.867 455.718 136.689 455.928 136.471C456.137 136.252 456.297 136.024 456.406 135.787V127.461C456.315 127.215 456.165 126.982 455.955 126.764C455.755 126.536 455.477 126.354 455.121 126.217C454.766 126.08 454.31 126.012 453.754 126.012C453.116 126.012 452.574 126.167 452.127 126.477C451.68 126.786 451.32 127.21 451.047 127.748C450.783 128.286 450.587 128.91 450.459 129.621C450.34 130.323 450.281 131.07 450.281 131.863ZM455.148 144.688V118H457.691V144.688H455.148ZM467.945 131.768V131.453C467.945 130.387 468.1 129.398 468.41 128.486C468.72 127.566 469.167 126.768 469.75 126.094C470.333 125.41 471.04 124.882 471.869 124.508C472.699 124.125 473.628 123.934 474.658 123.934C475.697 123.934 476.632 124.125 477.461 124.508C478.299 124.882 479.01 125.41 479.594 126.094C480.186 126.768 480.637 127.566 480.947 128.486C481.257 129.398 481.412 130.387 481.412 131.453V131.768C481.412 132.834 481.257 133.823 480.947 134.734C480.637 135.646 480.186 136.443 479.594 137.127C479.01 137.801 478.304 138.33 477.475 138.713C476.654 139.087 475.725 139.273 474.686 139.273C473.646 139.273 472.712 139.087 471.883 138.713C471.053 138.33 470.342 137.801 469.75 137.127C469.167 136.443 468.72 135.646 468.41 134.734C468.1 133.823 467.945 132.834 467.945 131.768ZM470.475 131.453V131.768C470.475 132.506 470.561 133.203 470.734 133.859C470.908 134.507 471.167 135.081 471.514 135.582C471.869 136.083 472.311 136.48 472.84 136.771C473.368 137.054 473.984 137.195 474.686 137.195C475.378 137.195 475.984 137.054 476.504 136.771C477.033 136.48 477.47 136.083 477.816 135.582C478.163 135.081 478.423 134.507 478.596 133.859C478.778 133.203 478.869 132.506 478.869 131.768V131.453C478.869 130.724 478.778 130.036 478.596 129.389C478.423 128.732 478.158 128.154 477.803 127.652C477.456 127.142 477.019 126.741 476.49 126.449C475.971 126.158 475.36 126.012 474.658 126.012C473.965 126.012 473.355 126.158 472.826 126.449C472.307 126.741 471.869 127.142 471.514 127.652C471.167 128.154 470.908 128.732 470.734 129.389C470.561 130.036 470.475 130.724 470.475 131.453ZM491.529 132.492H486.676L486.648 130.469H490.613C491.397 130.469 492.049 130.391 492.568 130.236C493.097 130.081 493.493 129.849 493.758 129.539C494.022 129.229 494.154 128.846 494.154 128.391C494.154 128.035 494.077 127.725 493.922 127.461C493.776 127.188 493.553 126.964 493.252 126.791C492.951 126.609 492.577 126.477 492.131 126.395C491.693 126.303 491.178 126.258 490.586 126.258H487.346V139H484.816V124.207H490.586C491.525 124.207 492.368 124.289 493.115 124.453C493.872 124.617 494.514 124.868 495.043 125.205C495.581 125.533 495.991 125.952 496.273 126.463C496.556 126.973 496.697 127.575 496.697 128.268C496.697 128.714 496.606 129.138 496.424 129.539C496.242 129.94 495.973 130.296 495.617 130.605C495.262 130.915 494.824 131.171 494.305 131.371C493.785 131.562 493.188 131.686 492.514 131.74L491.529 132.492ZM491.529 139H485.76L487.018 136.949H491.529C492.231 136.949 492.814 136.863 493.279 136.689C493.744 136.507 494.09 136.252 494.318 135.924C494.555 135.587 494.674 135.186 494.674 134.721C494.674 134.256 494.555 133.859 494.318 133.531C494.09 133.194 493.744 132.939 493.279 132.766C492.814 132.583 492.231 132.492 491.529 132.492H487.688L487.715 130.469H492.514L493.43 131.234C494.241 131.298 494.929 131.499 495.494 131.836C496.059 132.173 496.488 132.602 496.779 133.121C497.071 133.632 497.217 134.188 497.217 134.789C497.217 135.482 497.085 136.092 496.82 136.621C496.565 137.15 496.191 137.592 495.699 137.947C495.207 138.294 494.61 138.558 493.908 138.74C493.206 138.913 492.413 139 491.529 139ZM499.938 131.768V131.453C499.938 130.387 500.092 129.398 500.402 128.486C500.712 127.566 501.159 126.768 501.742 126.094C502.326 125.41 503.032 124.882 503.861 124.508C504.691 124.125 505.62 123.934 506.65 123.934C507.689 123.934 508.624 124.125 509.453 124.508C510.292 124.882 511.003 125.41 511.586 126.094C512.178 126.768 512.63 127.566 512.939 128.486C513.249 129.398 513.404 130.387 513.404 131.453V131.768C513.404 132.834 513.249 133.823 512.939 134.734C512.63 135.646 512.178 136.443 511.586 137.127C511.003 137.801 510.296 138.33 509.467 138.713C508.646 139.087 507.717 139.273 506.678 139.273C505.639 139.273 504.704 139.087 503.875 138.713C503.046 138.33 502.335 137.801 501.742 137.127C501.159 136.443 500.712 135.646 500.402 134.734C500.092 133.823 499.938 132.834 499.938 131.768ZM502.467 131.453V131.768C502.467 132.506 502.553 133.203 502.727 133.859C502.9 134.507 503.16 135.081 503.506 135.582C503.861 136.083 504.303 136.48 504.832 136.771C505.361 137.054 505.976 137.195 506.678 137.195C507.37 137.195 507.977 137.054 508.496 136.771C509.025 136.48 509.462 136.083 509.809 135.582C510.155 135.081 510.415 134.507 510.588 133.859C510.77 133.203 510.861 132.506 510.861 131.768V131.453C510.861 130.724 510.77 130.036 510.588 129.389C510.415 128.732 510.15 128.154 509.795 127.652C509.449 127.142 509.011 126.741 508.482 126.449C507.963 126.158 507.352 126.012 506.65 126.012C505.958 126.012 505.347 126.158 504.818 126.449C504.299 126.741 503.861 127.142 503.506 127.652C503.16 128.154 502.9 128.732 502.727 129.389C502.553 130.036 502.467 130.724 502.467 131.453ZM522.715 139.273C521.685 139.273 520.751 139.1 519.912 138.754C519.083 138.398 518.367 137.902 517.766 137.264C517.173 136.626 516.717 135.869 516.398 134.994C516.079 134.119 515.92 133.162 515.92 132.123V131.549C515.92 130.346 516.098 129.275 516.453 128.336C516.809 127.388 517.292 126.586 517.902 125.93C518.513 125.273 519.206 124.777 519.98 124.439C520.755 124.102 521.557 123.934 522.387 123.934C523.444 123.934 524.355 124.116 525.121 124.48C525.896 124.845 526.529 125.355 527.021 126.012C527.514 126.659 527.878 127.424 528.115 128.309C528.352 129.184 528.471 130.141 528.471 131.18V132.314H517.424V130.25H525.941V130.059C525.905 129.402 525.768 128.764 525.531 128.145C525.303 127.525 524.939 127.014 524.438 126.613C523.936 126.212 523.253 126.012 522.387 126.012C521.812 126.012 521.284 126.135 520.801 126.381C520.318 126.618 519.903 126.973 519.557 127.447C519.21 127.921 518.941 128.5 518.75 129.184C518.559 129.867 518.463 130.656 518.463 131.549V132.123C518.463 132.825 518.559 133.486 518.75 134.105C518.951 134.716 519.238 135.254 519.611 135.719C519.994 136.184 520.454 136.548 520.992 136.812C521.539 137.077 522.159 137.209 522.852 137.209C523.745 137.209 524.501 137.027 525.121 136.662C525.741 136.298 526.283 135.81 526.748 135.199L528.279 136.416C527.96 136.899 527.555 137.359 527.062 137.797C526.57 138.234 525.964 138.59 525.244 138.863C524.533 139.137 523.69 139.273 522.715 139.273ZM543.633 129.498V131.576H536.961V129.498H543.633ZM274.201 165.492H269.348L269.32 163.469H273.285C274.069 163.469 274.721 163.391 275.24 163.236C275.769 163.081 276.165 162.849 276.43 162.539C276.694 162.229 276.826 161.846 276.826 161.391C276.826 161.035 276.749 160.725 276.594 160.461C276.448 160.188 276.225 159.964 275.924 159.791C275.623 159.609 275.249 159.477 274.803 159.395C274.365 159.303 273.85 159.258 273.258 159.258H270.018V172H267.488V157.207H273.258C274.197 157.207 275.04 157.289 275.787 157.453C276.544 157.617 277.186 157.868 277.715 158.205C278.253 158.533 278.663 158.952 278.945 159.463C279.228 159.973 279.369 160.575 279.369 161.268C279.369 161.714 279.278 162.138 279.096 162.539C278.913 162.94 278.645 163.296 278.289 163.605C277.934 163.915 277.496 164.171 276.977 164.371C276.457 164.562 275.86 164.686 275.186 164.74L274.201 165.492ZM274.201 172H268.432L269.689 169.949H274.201C274.903 169.949 275.486 169.863 275.951 169.689C276.416 169.507 276.762 169.252 276.99 168.924C277.227 168.587 277.346 168.186 277.346 167.721C277.346 167.256 277.227 166.859 276.99 166.531C276.762 166.194 276.416 165.939 275.951 165.766C275.486 165.583 274.903 165.492 274.201 165.492H270.359L270.387 163.469H275.186L276.102 164.234C276.913 164.298 277.601 164.499 278.166 164.836C278.731 165.173 279.16 165.602 279.451 166.121C279.743 166.632 279.889 167.188 279.889 167.789C279.889 168.482 279.757 169.092 279.492 169.621C279.237 170.15 278.863 170.592 278.371 170.947C277.879 171.294 277.282 171.558 276.58 171.74C275.878 171.913 275.085 172 274.201 172ZM282.609 164.768V164.453C282.609 163.387 282.764 162.398 283.074 161.486C283.384 160.566 283.831 159.768 284.414 159.094C284.997 158.41 285.704 157.882 286.533 157.508C287.363 157.125 288.292 156.934 289.322 156.934C290.361 156.934 291.296 157.125 292.125 157.508C292.964 157.882 293.674 158.41 294.258 159.094C294.85 159.768 295.301 160.566 295.611 161.486C295.921 162.398 296.076 163.387 296.076 164.453V164.768C296.076 165.834 295.921 166.823 295.611 167.734C295.301 168.646 294.85 169.443 294.258 170.127C293.674 170.801 292.968 171.33 292.139 171.713C291.318 172.087 290.389 172.273 289.35 172.273C288.311 172.273 287.376 172.087 286.547 171.713C285.717 171.33 285.007 170.801 284.414 170.127C283.831 169.443 283.384 168.646 283.074 167.734C282.764 166.823 282.609 165.834 282.609 164.768ZM285.139 164.453V164.768C285.139 165.506 285.225 166.203 285.398 166.859C285.572 167.507 285.831 168.081 286.178 168.582C286.533 169.083 286.975 169.48 287.504 169.771C288.033 170.054 288.648 170.195 289.35 170.195C290.042 170.195 290.648 170.054 291.168 169.771C291.697 169.48 292.134 169.083 292.48 168.582C292.827 168.081 293.087 167.507 293.26 166.859C293.442 166.203 293.533 165.506 293.533 164.768V164.453C293.533 163.724 293.442 163.036 293.26 162.389C293.087 161.732 292.822 161.154 292.467 160.652C292.12 160.142 291.683 159.741 291.154 159.449C290.635 159.158 290.024 159.012 289.322 159.012C288.63 159.012 288.019 159.158 287.49 159.449C286.971 159.741 286.533 160.142 286.178 160.652C285.831 161.154 285.572 161.732 285.398 162.389C285.225 163.036 285.139 163.724 285.139 164.453ZM304.771 164.932H302.051V163.373H304.566C305.268 163.373 305.824 163.286 306.234 163.113C306.645 162.931 306.936 162.68 307.109 162.361C307.283 162.042 307.369 161.669 307.369 161.24C307.369 160.857 307.269 160.497 307.068 160.16C306.877 159.814 306.567 159.536 306.139 159.326C305.71 159.107 305.136 158.998 304.416 158.998C303.833 158.998 303.304 159.103 302.83 159.312C302.356 159.513 301.978 159.791 301.695 160.146C301.422 160.493 301.285 160.885 301.285 161.322H298.756C298.756 160.42 299.011 159.645 299.521 158.998C300.041 158.342 300.729 157.836 301.586 157.48C302.452 157.125 303.395 156.947 304.416 156.947C305.273 156.947 306.038 157.043 306.713 157.234C307.396 157.417 307.975 157.69 308.449 158.055C308.923 158.41 309.283 158.857 309.529 159.395C309.785 159.923 309.912 160.538 309.912 161.24C309.912 161.742 309.794 162.215 309.557 162.662C309.32 163.109 308.978 163.505 308.531 163.852C308.085 164.189 307.542 164.453 306.904 164.645C306.275 164.836 305.564 164.932 304.771 164.932ZM302.051 163.975H304.771C305.656 163.975 306.435 164.061 307.109 164.234C307.784 164.398 308.349 164.645 308.805 164.973C309.26 165.301 309.602 165.706 309.83 166.189C310.067 166.663 310.186 167.21 310.186 167.83C310.186 168.523 310.044 169.147 309.762 169.703C309.488 170.25 309.096 170.715 308.586 171.098C308.076 171.48 307.465 171.772 306.754 171.973C306.052 172.173 305.273 172.273 304.416 172.273C303.459 172.273 302.529 172.109 301.627 171.781C300.725 171.453 299.982 170.947 299.398 170.264C298.815 169.571 298.523 168.691 298.523 167.625H301.053C301.053 168.072 301.194 168.495 301.477 168.896C301.759 169.298 302.151 169.621 302.652 169.867C303.163 170.113 303.751 170.236 304.416 170.236C305.127 170.236 305.719 170.127 306.193 169.908C306.667 169.689 307.023 169.398 307.26 169.033C307.506 168.669 307.629 168.272 307.629 167.844C307.629 167.288 307.52 166.841 307.301 166.504C307.082 166.167 306.745 165.921 306.289 165.766C305.842 165.602 305.268 165.52 304.566 165.52H302.051V163.975ZM321.971 168.637L327.002 157.207H329.436L322.846 172H321.096L314.533 157.207H316.967L321.971 168.637ZM316.229 157.207V172H313.699V157.207H316.229ZM327.631 172V157.207H330.174V172H327.631ZM333.578 164.768V164.453C333.578 163.387 333.733 162.398 334.043 161.486C334.353 160.566 334.799 159.768 335.383 159.094C335.966 158.41 336.673 157.882 337.502 157.508C338.331 157.125 339.261 156.934 340.291 156.934C341.33 156.934 342.264 157.125 343.094 157.508C343.932 157.882 344.643 158.41 345.227 159.094C345.819 159.768 346.27 160.566 346.58 161.486C346.89 162.398 347.045 163.387 347.045 164.453V164.768C347.045 165.834 346.89 166.823 346.58 167.734C346.27 168.646 345.819 169.443 345.227 170.127C344.643 170.801 343.937 171.33 343.107 171.713C342.287 172.087 341.357 172.273 340.318 172.273C339.279 172.273 338.345 172.087 337.516 171.713C336.686 171.33 335.975 170.801 335.383 170.127C334.799 169.443 334.353 168.646 334.043 167.734C333.733 166.823 333.578 165.834 333.578 164.768ZM336.107 164.453V164.768C336.107 165.506 336.194 166.203 336.367 166.859C336.54 167.507 336.8 168.081 337.146 168.582C337.502 169.083 337.944 169.48 338.473 169.771C339.001 170.054 339.617 170.195 340.318 170.195C341.011 170.195 341.617 170.054 342.137 169.771C342.665 169.48 343.103 169.083 343.449 168.582C343.796 168.081 344.055 167.507 344.229 166.859C344.411 166.203 344.502 165.506 344.502 164.768V164.453C344.502 163.724 344.411 163.036 344.229 162.389C344.055 161.732 343.791 161.154 343.436 160.652C343.089 160.142 342.652 159.741 342.123 159.449C341.604 159.158 340.993 159.012 340.291 159.012C339.598 159.012 338.988 159.158 338.459 159.449C337.939 159.741 337.502 160.142 337.146 160.652C336.8 161.154 336.54 161.732 336.367 162.389C336.194 163.036 336.107 163.724 336.107 164.453ZM354.4 165.561L348.795 157.207H351.844L355.672 163.332H358.625L358.256 165.561H354.4ZM355.781 165.301L351.488 172H348.289L354.182 163.469L355.781 165.301ZM359.924 157.207V172H357.395V157.207H359.924ZM368.551 157.207L362.945 165.561H359.09L358.693 163.332H361.66L365.488 157.207H368.551ZM365.844 172L361.537 165.301L363.164 163.469L369.043 172H365.844ZM381.416 163.619V165.67H373.596V163.619H381.416ZM374.129 157.207V172H371.6V157.207H374.129ZM383.467 157.207V172H380.924V157.207H383.467ZM386.871 164.768V164.453C386.871 163.387 387.026 162.398 387.336 161.486C387.646 160.566 388.092 159.768 388.676 159.094C389.259 158.41 389.965 157.882 390.795 157.508C391.624 157.125 392.554 156.934 393.584 156.934C394.623 156.934 395.557 157.125 396.387 157.508C397.225 157.882 397.936 158.41 398.52 159.094C399.112 159.768 399.563 160.566 399.873 161.486C400.183 162.398 400.338 163.387 400.338 164.453V164.768C400.338 165.834 400.183 166.823 399.873 167.734C399.563 168.646 399.112 169.443 398.52 170.127C397.936 170.801 397.23 171.33 396.4 171.713C395.58 172.087 394.65 172.273 393.611 172.273C392.572 172.273 391.638 172.087 390.809 171.713C389.979 171.33 389.268 170.801 388.676 170.127C388.092 169.443 387.646 168.646 387.336 167.734C387.026 166.823 386.871 165.834 386.871 164.768ZM389.4 164.453V164.768C389.4 165.506 389.487 166.203 389.66 166.859C389.833 167.507 390.093 168.081 390.439 168.582C390.795 169.083 391.237 169.48 391.766 169.771C392.294 170.054 392.91 170.195 393.611 170.195C394.304 170.195 394.91 170.054 395.43 169.771C395.958 169.48 396.396 169.083 396.742 168.582C397.089 168.081 397.348 167.507 397.521 166.859C397.704 166.203 397.795 165.506 397.795 164.768V164.453C397.795 163.724 397.704 163.036 397.521 162.389C397.348 161.732 397.084 161.154 396.729 160.652C396.382 160.142 395.945 159.741 395.416 159.449C394.896 159.158 394.286 159.012 393.584 159.012C392.891 159.012 392.281 159.158 391.752 159.449C391.232 159.741 390.795 160.142 390.439 160.652C390.093 161.154 389.833 161.732 389.66 162.389C389.487 163.036 389.4 163.724 389.4 164.453ZM409.43 170.195C410.031 170.195 410.587 170.072 411.098 169.826C411.608 169.58 412.027 169.243 412.355 168.814C412.684 168.377 412.87 167.88 412.916 167.324H415.322C415.277 168.199 414.98 169.015 414.434 169.771C413.896 170.519 413.189 171.125 412.314 171.59C411.439 172.046 410.478 172.273 409.43 172.273C408.318 172.273 407.347 172.077 406.518 171.686C405.697 171.294 405.014 170.756 404.467 170.072C403.929 169.389 403.523 168.605 403.25 167.721C402.986 166.827 402.854 165.884 402.854 164.891V164.316C402.854 163.323 402.986 162.384 403.25 161.5C403.523 160.607 403.929 159.818 404.467 159.135C405.014 158.451 405.697 157.913 406.518 157.521C407.347 157.13 408.318 156.934 409.43 156.934C410.587 156.934 411.599 157.171 412.465 157.645C413.331 158.109 414.01 158.747 414.502 159.559C415.003 160.361 415.277 161.272 415.322 162.293H412.916C412.87 161.682 412.697 161.131 412.396 160.639C412.105 160.146 411.704 159.755 411.193 159.463C410.692 159.162 410.104 159.012 409.43 159.012C408.655 159.012 408.003 159.167 407.475 159.477C406.955 159.777 406.54 160.188 406.23 160.707C405.93 161.217 405.711 161.787 405.574 162.416C405.447 163.036 405.383 163.669 405.383 164.316V164.891C405.383 165.538 405.447 166.176 405.574 166.805C405.702 167.434 405.916 168.003 406.217 168.514C406.527 169.024 406.941 169.434 407.461 169.744C407.99 170.045 408.646 170.195 409.43 170.195ZM424.195 157.207V172H421.652V157.207H424.195ZM429.158 157.207V159.258H416.785V157.207H429.158ZM433.725 162.293H438.168C439.362 162.293 440.369 162.503 441.189 162.922C442.01 163.332 442.63 163.902 443.049 164.631C443.477 165.351 443.691 166.171 443.691 167.092C443.691 167.775 443.573 168.418 443.336 169.02C443.099 169.612 442.743 170.132 442.27 170.578C441.805 171.025 441.226 171.376 440.533 171.631C439.85 171.877 439.061 172 438.168 172H431.879V157.207H434.408V169.922H438.168C438.897 169.922 439.48 169.79 439.918 169.525C440.355 169.261 440.67 168.919 440.861 168.5C441.053 168.081 441.148 167.643 441.148 167.188C441.148 166.741 441.053 166.303 440.861 165.875C440.67 165.447 440.355 165.091 439.918 164.809C439.48 164.517 438.897 164.371 438.168 164.371H433.725V162.293ZM458.977 159.012C458.421 159.012 457.887 159.135 457.377 159.381C456.876 159.627 456.461 159.969 456.133 160.406C455.814 160.835 455.654 161.331 455.654 161.896H453.234C453.234 161.012 453.508 160.197 454.055 159.449C454.602 158.693 455.312 158.087 456.188 157.631C457.062 157.166 457.992 156.934 458.977 156.934C460.016 156.934 460.936 157.13 461.738 157.521C462.54 157.913 463.215 158.451 463.762 159.135C464.318 159.818 464.737 160.607 465.02 161.5C465.302 162.384 465.443 163.323 465.443 164.316V164.891C465.443 165.884 465.298 166.827 465.006 167.721C464.723 168.605 464.304 169.393 463.748 170.086C463.201 170.77 462.527 171.307 461.725 171.699C460.932 172.091 460.02 172.287 458.99 172.287C457.887 172.287 456.898 172.05 456.023 171.576C455.158 171.102 454.474 170.464 453.973 169.662C453.48 168.851 453.234 167.939 453.234 166.928H455.654C455.654 167.538 455.8 168.094 456.092 168.596C456.393 169.088 456.794 169.48 457.295 169.771C457.796 170.063 458.361 170.209 458.99 170.209C459.674 170.209 460.262 170.054 460.754 169.744C461.255 169.434 461.665 169.024 461.984 168.514C462.303 168.003 462.536 167.434 462.682 166.805C462.837 166.167 462.914 165.529 462.914 164.891V164.316C462.914 163.669 462.837 163.031 462.682 162.402C462.536 161.773 462.303 161.204 461.984 160.693C461.674 160.183 461.269 159.777 460.768 159.477C460.275 159.167 459.678 159.012 458.977 159.012ZM464.145 163.428V165.492H457.322V163.428H464.145ZM475.807 165.492H470.953L470.926 163.469H474.891C475.674 163.469 476.326 163.391 476.846 163.236C477.374 163.081 477.771 162.849 478.035 162.539C478.299 162.229 478.432 161.846 478.432 161.391C478.432 161.035 478.354 160.725 478.199 160.461C478.053 160.188 477.83 159.964 477.529 159.791C477.229 159.609 476.855 159.477 476.408 159.395C475.971 159.303 475.456 159.258 474.863 159.258H471.623V172H469.094V157.207H474.863C475.802 157.207 476.645 157.289 477.393 157.453C478.149 157.617 478.792 157.868 479.32 158.205C479.858 158.533 480.268 158.952 480.551 159.463C480.833 159.973 480.975 160.575 480.975 161.268C480.975 161.714 480.883 162.138 480.701 162.539C480.519 162.94 480.25 163.296 479.895 163.605C479.539 163.915 479.102 164.171 478.582 164.371C478.062 164.562 477.465 164.686 476.791 164.74L475.807 165.492ZM475.807 172H470.037L471.295 169.949H475.807C476.508 169.949 477.092 169.863 477.557 169.689C478.021 169.507 478.368 169.252 478.596 168.924C478.833 168.587 478.951 168.186 478.951 167.721C478.951 167.256 478.833 166.859 478.596 166.531C478.368 166.194 478.021 165.939 477.557 165.766C477.092 165.583 476.508 165.492 475.807 165.492H471.965L471.992 163.469H476.791L477.707 164.234C478.518 164.298 479.206 164.499 479.771 164.836C480.337 165.173 480.765 165.602 481.057 166.121C481.348 166.632 481.494 167.188 481.494 167.789C481.494 168.482 481.362 169.092 481.098 169.621C480.842 170.15 480.469 170.592 479.977 170.947C479.484 171.294 478.887 171.558 478.186 171.74C477.484 171.913 476.691 172 475.807 172ZM484.215 164.768V164.453C484.215 163.387 484.37 162.398 484.68 161.486C484.99 160.566 485.436 159.768 486.02 159.094C486.603 158.41 487.309 157.882 488.139 157.508C488.968 157.125 489.898 156.934 490.928 156.934C491.967 156.934 492.901 157.125 493.73 157.508C494.569 157.882 495.28 158.41 495.863 159.094C496.456 159.768 496.907 160.566 497.217 161.486C497.527 162.398 497.682 163.387 497.682 164.453V164.768C497.682 165.834 497.527 166.823 497.217 167.734C496.907 168.646 496.456 169.443 495.863 170.127C495.28 170.801 494.574 171.33 493.744 171.713C492.924 172.087 491.994 172.273 490.955 172.273C489.916 172.273 488.982 172.087 488.152 171.713C487.323 171.33 486.612 170.801 486.02 170.127C485.436 169.443 484.99 168.646 484.68 167.734C484.37 166.823 484.215 165.834 484.215 164.768ZM486.744 164.453V164.768C486.744 165.506 486.831 166.203 487.004 166.859C487.177 167.507 487.437 168.081 487.783 168.582C488.139 169.083 488.581 169.48 489.109 169.771C489.638 170.054 490.253 170.195 490.955 170.195C491.648 170.195 492.254 170.054 492.773 169.771C493.302 169.48 493.74 169.083 494.086 168.582C494.432 168.081 494.692 167.507 494.865 166.859C495.048 166.203 495.139 165.506 495.139 164.768V164.453C495.139 163.724 495.048 163.036 494.865 162.389C494.692 161.732 494.428 161.154 494.072 160.652C493.726 160.142 493.288 159.741 492.76 159.449C492.24 159.158 491.63 159.012 490.928 159.012C490.235 159.012 489.624 159.158 489.096 159.449C488.576 159.741 488.139 160.142 487.783 160.652C487.437 161.154 487.177 161.732 487.004 162.389C486.831 163.036 486.744 163.724 486.744 164.453ZM510.52 157.207V159.299H503.369V157.207H510.52ZM512.748 157.207V172H510.219V157.207H512.748ZM502.754 157.207H505.297L504.914 164.344C504.85 165.447 504.745 166.422 504.6 167.27C504.463 168.108 504.271 168.828 504.025 169.43C503.788 170.031 503.488 170.523 503.123 170.906C502.768 171.28 502.339 171.558 501.838 171.74C501.337 171.913 500.758 172 500.102 172H499.309V169.771L499.855 169.73C500.247 169.703 500.58 169.612 500.854 169.457C501.136 169.302 501.373 169.074 501.564 168.773C501.756 168.464 501.911 168.067 502.029 167.584C502.157 167.101 502.253 166.527 502.316 165.861C502.389 165.196 502.444 164.421 502.48 163.537L502.754 157.207ZM525.244 163.482V165.547H517.383V163.482H525.244ZM519.584 157.207V172H517.055V157.207H519.584ZM523.084 164.768V164.453C523.084 163.387 523.239 162.398 523.549 161.486C523.859 160.566 524.305 159.768 524.889 159.094C525.481 158.41 526.188 157.882 527.008 157.508C527.837 157.125 528.767 156.934 529.797 156.934C530.845 156.934 531.784 157.125 532.613 157.508C533.443 157.882 534.149 158.41 534.732 159.094C535.325 159.768 535.776 160.566 536.086 161.486C536.396 162.398 536.551 163.387 536.551 164.453V164.768C536.551 165.834 536.396 166.823 536.086 167.734C535.776 168.646 535.329 169.443 534.746 170.127C534.163 170.801 533.456 171.33 532.627 171.713C531.798 172.087 530.863 172.273 529.824 172.273C528.785 172.273 527.851 172.087 527.021 171.713C526.192 171.33 525.481 170.801 524.889 170.127C524.305 169.443 523.859 168.646 523.549 167.734C523.239 166.823 523.084 165.834 523.084 164.768ZM525.627 164.453V164.768C525.627 165.506 525.714 166.203 525.887 166.859C526.06 167.507 526.32 168.081 526.666 168.582C527.021 169.083 527.459 169.48 527.979 169.771C528.507 170.054 529.122 170.195 529.824 170.195C530.526 170.195 531.137 170.054 531.656 169.771C532.185 169.48 532.622 169.083 532.969 168.582C533.315 168.081 533.575 167.507 533.748 166.859C533.93 166.203 534.021 165.506 534.021 164.768V164.453C534.021 163.724 533.93 163.036 533.748 162.389C533.575 161.732 533.311 161.154 532.955 160.652C532.609 160.142 532.171 159.741 531.643 159.449C531.114 159.158 530.499 159.012 529.797 159.012C529.104 159.012 528.498 159.158 527.979 159.449C527.459 159.741 527.021 160.142 526.666 160.652C526.32 161.154 526.06 161.732 525.887 162.389C525.714 163.036 525.627 163.724 525.627 164.453ZM539.9 172V157.207H542.43V169.922H549.238V157.207H551.781V172H539.9ZM553.531 169.922L553.285 176.389H551.029V172H549.102V169.922H553.531ZM559.014 167.994L565.836 157.207H568.379V172H565.836V161.213L559.014 172H556.498V157.207H559.014V167.994ZM575.174 167.994L581.996 157.207H584.539V172H581.996V161.213L575.174 172H572.658V157.207H575.174V167.994ZM294.518 190.207V205H291.975V190.207H294.518ZM299.48 190.207V192.258H287.107V190.207H299.48ZM308.914 198.492H304.061L304.033 196.469H307.998C308.782 196.469 309.434 196.391 309.953 196.236C310.482 196.081 310.878 195.849 311.143 195.539C311.407 195.229 311.539 194.846 311.539 194.391C311.539 194.035 311.462 193.725 311.307 193.461C311.161 193.188 310.938 192.964 310.637 192.791C310.336 192.609 309.962 192.477 309.516 192.395C309.078 192.303 308.563 192.258 307.971 192.258H304.73V205H302.201V190.207H307.971C308.91 190.207 309.753 190.289 310.5 190.453C311.257 190.617 311.899 190.868 312.428 191.205C312.965 191.533 313.376 191.952 313.658 192.463C313.941 192.973 314.082 193.575 314.082 194.268C314.082 194.714 313.991 195.138 313.809 195.539C313.626 195.94 313.357 196.296 313.002 196.605C312.646 196.915 312.209 197.171 311.689 197.371C311.17 197.562 310.573 197.686 309.898 197.74L308.914 198.492ZM308.914 205H303.145L304.402 202.949H308.914C309.616 202.949 310.199 202.863 310.664 202.689C311.129 202.507 311.475 202.252 311.703 201.924C311.94 201.587 312.059 201.186 312.059 200.721C312.059 200.256 311.94 199.859 311.703 199.531C311.475 199.194 311.129 198.939 310.664 198.766C310.199 198.583 309.616 198.492 308.914 198.492H305.072L305.1 196.469H309.898L310.814 197.234C311.626 197.298 312.314 197.499 312.879 197.836C313.444 198.173 313.872 198.602 314.164 199.121C314.456 199.632 314.602 200.188 314.602 200.789C314.602 201.482 314.469 202.092 314.205 202.621C313.95 203.15 313.576 203.592 313.084 203.947C312.592 204.294 311.995 204.558 311.293 204.74C310.591 204.913 309.798 205 308.914 205ZM317.322 197.768V197.453C317.322 196.387 317.477 195.398 317.787 194.486C318.097 193.566 318.544 192.768 319.127 192.094C319.71 191.41 320.417 190.882 321.246 190.508C322.076 190.125 323.005 189.934 324.035 189.934C325.074 189.934 326.008 190.125 326.838 190.508C327.676 190.882 328.387 191.41 328.971 192.094C329.563 192.768 330.014 193.566 330.324 194.486C330.634 195.398 330.789 196.387 330.789 197.453V197.768C330.789 198.834 330.634 199.823 330.324 200.734C330.014 201.646 329.563 202.443 328.971 203.127C328.387 203.801 327.681 204.33 326.852 204.713C326.031 205.087 325.102 205.273 324.062 205.273C323.023 205.273 322.089 205.087 321.26 204.713C320.43 204.33 319.719 203.801 319.127 203.127C318.544 202.443 318.097 201.646 317.787 200.734C317.477 199.823 317.322 198.834 317.322 197.768ZM319.852 197.453V197.768C319.852 198.506 319.938 199.203 320.111 199.859C320.285 200.507 320.544 201.081 320.891 201.582C321.246 202.083 321.688 202.48 322.217 202.771C322.745 203.054 323.361 203.195 324.062 203.195C324.755 203.195 325.361 203.054 325.881 202.771C326.41 202.48 326.847 202.083 327.193 201.582C327.54 201.081 327.799 200.507 327.973 199.859C328.155 199.203 328.246 198.506 328.246 197.768V197.453C328.246 196.724 328.155 196.036 327.973 195.389C327.799 194.732 327.535 194.154 327.18 193.652C326.833 193.142 326.396 192.741 325.867 192.449C325.348 192.158 324.737 192.012 324.035 192.012C323.342 192.012 322.732 192.158 322.203 192.449C321.684 192.741 321.246 193.142 320.891 193.652C320.544 194.154 320.285 194.732 320.111 195.389C319.938 196.036 319.852 196.724 319.852 197.453ZM340.1 205.273C339.07 205.273 338.135 205.1 337.297 204.754C336.467 204.398 335.752 203.902 335.15 203.264C334.558 202.626 334.102 201.869 333.783 200.994C333.464 200.119 333.305 199.162 333.305 198.123V197.549C333.305 196.346 333.482 195.275 333.838 194.336C334.193 193.388 334.676 192.586 335.287 191.93C335.898 191.273 336.59 190.777 337.365 190.439C338.14 190.102 338.942 189.934 339.771 189.934C340.829 189.934 341.74 190.116 342.506 190.48C343.281 190.845 343.914 191.355 344.406 192.012C344.898 192.659 345.263 193.424 345.5 194.309C345.737 195.184 345.855 196.141 345.855 197.18V198.314H334.809V196.25H343.326V196.059C343.29 195.402 343.153 194.764 342.916 194.145C342.688 193.525 342.324 193.014 341.822 192.613C341.321 192.212 340.637 192.012 339.771 192.012C339.197 192.012 338.669 192.135 338.186 192.381C337.702 192.618 337.288 192.973 336.941 193.447C336.595 193.921 336.326 194.5 336.135 195.184C335.943 195.867 335.848 196.656 335.848 197.549V198.123C335.848 198.825 335.943 199.486 336.135 200.105C336.335 200.716 336.622 201.254 336.996 201.719C337.379 202.184 337.839 202.548 338.377 202.812C338.924 203.077 339.544 203.209 340.236 203.209C341.13 203.209 341.886 203.027 342.506 202.662C343.126 202.298 343.668 201.81 344.133 201.199L345.664 202.416C345.345 202.899 344.939 203.359 344.447 203.797C343.955 204.234 343.349 204.59 342.629 204.863C341.918 205.137 341.075 205.273 340.1 205.273ZM351.543 200.994L358.365 190.207H360.908V205H358.365V194.213L351.543 205H349.027V190.207H351.543V200.994ZM356.984 184.848H359.035C359.035 185.559 358.871 186.192 358.543 186.748C358.215 187.295 357.745 187.723 357.135 188.033C356.524 188.343 355.799 188.498 354.961 188.498C353.694 188.498 352.691 188.161 351.953 187.486C351.224 186.803 350.859 185.923 350.859 184.848H352.91C352.91 185.385 353.065 185.859 353.375 186.27C353.685 186.68 354.214 186.885 354.961 186.885C355.69 186.885 356.21 186.68 356.52 186.27C356.829 185.859 356.984 185.385 356.984 184.848ZM387.609 185.094V205H384.957L374.936 189.646V205H372.297V185.094H374.936L384.998 200.488V185.094H387.609ZM394.924 185.094V205H392.285V185.094H394.924ZM403.264 194.049V196.209H394.35V194.049H403.264ZM404.617 185.094V187.254H394.35V185.094H404.617ZM415.391 185.094V205H412.793V185.094H415.391ZM421.789 185.094V187.254H406.408V185.094H421.789ZM440.246 183.768H442.324C442.324 184.661 442.188 185.372 441.914 185.9C441.641 186.42 441.267 186.821 440.793 187.104C440.328 187.386 439.799 187.6 439.207 187.746C438.624 187.892 438.018 188.033 437.389 188.17C436.605 188.334 435.876 188.594 435.201 188.949C434.536 189.296 433.962 189.788 433.479 190.426C433.005 191.064 432.654 191.893 432.426 192.914C432.207 193.935 432.148 195.197 432.248 196.701V197.959H430.17V196.701C430.17 195.015 430.329 193.543 430.648 192.285C430.977 191.027 431.437 189.965 432.029 189.1C432.622 188.234 433.324 187.546 434.135 187.035C434.955 186.525 435.857 186.174 436.842 185.982C437.553 185.846 438.163 185.7 438.674 185.545C439.184 185.381 439.572 185.162 439.836 184.889C440.109 184.615 440.246 184.242 440.246 183.768ZM437.252 191.055C438.218 191.055 439.079 191.223 439.836 191.561C440.592 191.898 441.235 192.367 441.764 192.969C442.292 193.57 442.693 194.281 442.967 195.102C443.249 195.913 443.391 196.797 443.391 197.754V198.055C443.391 199.085 443.24 200.042 442.939 200.926C442.648 201.801 442.215 202.566 441.641 203.223C441.076 203.87 440.383 204.376 439.562 204.74C438.751 205.105 437.826 205.287 436.787 205.287C435.748 205.287 434.818 205.105 433.998 204.74C433.187 204.376 432.494 203.87 431.92 203.223C431.346 202.566 430.908 201.801 430.607 200.926C430.316 200.042 430.17 199.085 430.17 198.055V197.754C430.17 197.526 430.211 197.303 430.293 197.084C430.375 196.865 430.475 196.642 430.594 196.414C430.721 196.186 430.835 195.945 430.936 195.689C431.273 194.869 431.733 194.108 432.316 193.406C432.909 192.704 433.615 192.139 434.436 191.711C435.265 191.273 436.204 191.055 437.252 191.055ZM436.76 193.119C435.83 193.119 435.064 193.333 434.463 193.762C433.87 194.19 433.428 194.76 433.137 195.471C432.845 196.173 432.699 196.934 432.699 197.754V198.055C432.699 198.747 432.781 199.404 432.945 200.023C433.109 200.643 433.355 201.195 433.684 201.678C434.021 202.152 434.445 202.525 434.955 202.799C435.475 203.072 436.085 203.209 436.787 203.209C437.489 203.209 438.095 203.072 438.605 202.799C439.116 202.525 439.535 202.152 439.863 201.678C440.191 201.195 440.438 200.643 440.602 200.023C440.766 199.404 440.848 198.747 440.848 198.055V197.754C440.848 197.134 440.766 196.546 440.602 195.99C440.438 195.434 440.187 194.942 439.85 194.514C439.521 194.085 439.098 193.748 438.578 193.502C438.068 193.247 437.462 193.119 436.76 193.119ZM456.146 190.207V192.299H448.996V190.207H456.146ZM458.375 190.207V205H455.846V190.207H458.375ZM448.381 190.207H450.924L450.541 197.344C450.477 198.447 450.372 199.422 450.227 200.27C450.09 201.108 449.898 201.828 449.652 202.43C449.415 203.031 449.115 203.523 448.75 203.906C448.395 204.28 447.966 204.558 447.465 204.74C446.964 204.913 446.385 205 445.729 205H444.936V202.771L445.482 202.73C445.874 202.703 446.207 202.612 446.48 202.457C446.763 202.302 447 202.074 447.191 201.773C447.383 201.464 447.538 201.067 447.656 200.584C447.784 200.101 447.88 199.527 447.943 198.861C448.016 198.196 448.071 197.421 448.107 196.537L448.381 190.207ZM471.172 202.471V194.855C471.172 194.272 471.053 193.766 470.816 193.338C470.589 192.9 470.242 192.563 469.777 192.326C469.312 192.089 468.738 191.971 468.055 191.971C467.417 191.971 466.856 192.08 466.373 192.299C465.899 192.518 465.525 192.805 465.252 193.16C464.988 193.516 464.855 193.898 464.855 194.309H462.326C462.326 193.78 462.463 193.256 462.736 192.736C463.01 192.217 463.402 191.747 463.912 191.328C464.432 190.9 465.051 190.562 465.771 190.316C466.501 190.061 467.312 189.934 468.205 189.934C469.281 189.934 470.229 190.116 471.049 190.48C471.878 190.845 472.525 191.396 472.99 192.135C473.464 192.864 473.701 193.78 473.701 194.883V201.773C473.701 202.266 473.742 202.79 473.824 203.346C473.915 203.902 474.048 204.38 474.221 204.781V205H471.582C471.454 204.708 471.354 204.321 471.281 203.838C471.208 203.346 471.172 202.89 471.172 202.471ZM471.609 196.031L471.637 197.809H469.08C468.36 197.809 467.717 197.868 467.152 197.986C466.587 198.096 466.113 198.264 465.73 198.492C465.348 198.72 465.056 199.007 464.855 199.354C464.655 199.691 464.555 200.087 464.555 200.543C464.555 201.008 464.66 201.432 464.869 201.814C465.079 202.197 465.393 202.503 465.812 202.73C466.241 202.949 466.765 203.059 467.385 203.059C468.16 203.059 468.843 202.895 469.436 202.566C470.028 202.238 470.497 201.837 470.844 201.363C471.199 200.889 471.391 200.429 471.418 199.982L472.498 201.199C472.434 201.582 472.261 202.006 471.979 202.471C471.696 202.936 471.318 203.382 470.844 203.811C470.379 204.23 469.823 204.581 469.176 204.863C468.538 205.137 467.818 205.273 467.016 205.273C466.013 205.273 465.133 205.077 464.377 204.686C463.63 204.294 463.046 203.77 462.627 203.113C462.217 202.448 462.012 201.705 462.012 200.885C462.012 200.092 462.167 199.395 462.477 198.793C462.786 198.182 463.233 197.676 463.816 197.275C464.4 196.865 465.102 196.555 465.922 196.346C466.742 196.136 467.658 196.031 468.67 196.031H471.609ZM487.236 190.207V192.299H480.4V205H477.871V190.207H487.236ZM488.494 197.768V197.453C488.494 196.387 488.649 195.398 488.959 194.486C489.269 193.566 489.715 192.768 490.299 192.094C490.882 191.41 491.589 190.882 492.418 190.508C493.247 190.125 494.177 189.934 495.207 189.934C496.246 189.934 497.18 190.125 498.01 190.508C498.848 190.882 499.559 191.41 500.143 192.094C500.735 192.768 501.186 193.566 501.496 194.486C501.806 195.398 501.961 196.387 501.961 197.453V197.768C501.961 198.834 501.806 199.823 501.496 200.734C501.186 201.646 500.735 202.443 500.143 203.127C499.559 203.801 498.853 204.33 498.023 204.713C497.203 205.087 496.273 205.273 495.234 205.273C494.195 205.273 493.261 205.087 492.432 204.713C491.602 204.33 490.891 203.801 490.299 203.127C489.715 202.443 489.269 201.646 488.959 200.734C488.649 199.823 488.494 198.834 488.494 197.768ZM491.023 197.453V197.768C491.023 198.506 491.11 199.203 491.283 199.859C491.456 200.507 491.716 201.081 492.062 201.582C492.418 202.083 492.86 202.48 493.389 202.771C493.917 203.054 494.533 203.195 495.234 203.195C495.927 203.195 496.533 203.054 497.053 202.771C497.581 202.48 498.019 202.083 498.365 201.582C498.712 201.081 498.971 200.507 499.145 199.859C499.327 199.203 499.418 198.506 499.418 197.768V197.453C499.418 196.724 499.327 196.036 499.145 195.389C498.971 194.732 498.707 194.154 498.352 193.652C498.005 193.142 497.568 192.741 497.039 192.449C496.52 192.158 495.909 192.012 495.207 192.012C494.514 192.012 493.904 192.158 493.375 192.449C492.855 192.741 492.418 193.142 492.062 193.652C491.716 194.154 491.456 194.732 491.283 195.389C491.11 196.036 491.023 196.724 491.023 197.453ZM506.814 190.207H509.344L509.125 195.744C509.07 197.148 508.911 198.36 508.646 199.381C508.382 200.402 508.045 201.272 507.635 201.992C507.225 202.703 506.764 203.3 506.254 203.783C505.753 204.266 505.233 204.672 504.695 205H503.438L503.506 202.936L504.025 202.922C504.326 202.566 504.618 202.202 504.9 201.828C505.183 201.445 505.443 200.994 505.68 200.475C505.917 199.946 506.113 199.303 506.268 198.547C506.432 197.781 506.536 196.847 506.582 195.744L506.814 190.207ZM507.443 190.207H516.344V205H513.814V192.545H507.443V190.207ZM502.863 202.922H518.244V209.361H515.715V205H505.393V209.361H502.85L502.863 202.922ZM529.77 202.471V194.855C529.77 194.272 529.651 193.766 529.414 193.338C529.186 192.9 528.84 192.563 528.375 192.326C527.91 192.089 527.336 191.971 526.652 191.971C526.014 191.971 525.454 192.08 524.971 192.299C524.497 192.518 524.123 192.805 523.85 193.16C523.585 193.516 523.453 193.898 523.453 194.309H520.924C520.924 193.78 521.061 193.256 521.334 192.736C521.607 192.217 521.999 191.747 522.51 191.328C523.029 190.9 523.649 190.562 524.369 190.316C525.098 190.061 525.91 189.934 526.803 189.934C527.878 189.934 528.826 190.116 529.646 190.48C530.476 190.845 531.123 191.396 531.588 192.135C532.062 192.864 532.299 193.78 532.299 194.883V201.773C532.299 202.266 532.34 202.79 532.422 203.346C532.513 203.902 532.645 204.38 532.818 204.781V205H530.18C530.052 204.708 529.952 204.321 529.879 203.838C529.806 203.346 529.77 202.89 529.77 202.471ZM530.207 196.031L530.234 197.809H527.678C526.958 197.809 526.315 197.868 525.75 197.986C525.185 198.096 524.711 198.264 524.328 198.492C523.945 198.72 523.654 199.007 523.453 199.354C523.253 199.691 523.152 200.087 523.152 200.543C523.152 201.008 523.257 201.432 523.467 201.814C523.676 202.197 523.991 202.503 524.41 202.73C524.839 202.949 525.363 203.059 525.982 203.059C526.757 203.059 527.441 202.895 528.033 202.566C528.626 202.238 529.095 201.837 529.441 201.363C529.797 200.889 529.988 200.429 530.016 199.982L531.096 201.199C531.032 201.582 530.859 202.006 530.576 202.471C530.294 202.936 529.915 203.382 529.441 203.811C528.977 204.23 528.421 204.581 527.773 204.863C527.135 205.137 526.415 205.273 525.613 205.273C524.611 205.273 523.731 205.077 522.975 204.686C522.227 204.294 521.644 203.77 521.225 203.113C520.814 202.448 520.609 201.705 520.609 200.885C520.609 200.092 520.764 199.395 521.074 198.793C521.384 198.182 521.831 197.676 522.414 197.275C522.997 196.865 523.699 196.555 524.52 196.346C525.34 196.136 526.256 196.031 527.268 196.031H530.207ZM538.807 193.051V210.688H536.264V190.207H538.588L538.807 193.051ZM548.773 197.48V197.768C548.773 198.843 548.646 199.841 548.391 200.762C548.135 201.673 547.762 202.466 547.27 203.141C546.786 203.815 546.189 204.339 545.479 204.713C544.768 205.087 543.952 205.273 543.031 205.273C542.092 205.273 541.263 205.118 540.543 204.809C539.823 204.499 539.212 204.048 538.711 203.455C538.21 202.863 537.809 202.152 537.508 201.322C537.216 200.493 537.016 199.559 536.906 198.52V196.988C537.016 195.895 537.221 194.915 537.521 194.049C537.822 193.183 538.219 192.445 538.711 191.834C539.212 191.214 539.818 190.745 540.529 190.426C541.24 190.098 542.061 189.934 542.99 189.934C543.92 189.934 544.745 190.116 545.465 190.48C546.185 190.836 546.791 191.346 547.283 192.012C547.775 192.677 548.145 193.475 548.391 194.404C548.646 195.325 548.773 196.35 548.773 197.48ZM546.23 197.768V197.48C546.23 196.742 546.153 196.049 545.998 195.402C545.843 194.746 545.602 194.172 545.273 193.68C544.954 193.178 544.544 192.786 544.043 192.504C543.542 192.212 542.945 192.066 542.252 192.066C541.614 192.066 541.058 192.176 540.584 192.395C540.119 192.613 539.723 192.91 539.395 193.283C539.066 193.648 538.798 194.067 538.588 194.541C538.387 195.006 538.237 195.489 538.137 195.99V199.531C538.319 200.169 538.574 200.771 538.902 201.336C539.23 201.892 539.668 202.343 540.215 202.689C540.762 203.027 541.45 203.195 542.279 203.195C542.963 203.195 543.551 203.054 544.043 202.771C544.544 202.48 544.954 202.083 545.273 201.582C545.602 201.081 545.843 200.507 545.998 199.859C546.153 199.203 546.23 198.506 546.23 197.768ZM554.994 197.945H557.729L553.449 205H550.715L554.994 197.945ZM557.113 190.207H563.293V205H560.764V192.258H557.113C556.393 192.258 555.805 192.381 555.35 192.627C554.894 192.864 554.561 193.174 554.352 193.557C554.142 193.939 554.037 194.336 554.037 194.746C554.037 195.147 554.133 195.535 554.324 195.908C554.516 196.273 554.816 196.574 555.227 196.811C555.637 197.048 556.165 197.166 556.812 197.166H561.447V199.244H556.812C555.965 199.244 555.213 199.13 554.557 198.902C553.9 198.674 553.344 198.36 552.889 197.959C552.433 197.549 552.087 197.07 551.85 196.523C551.613 195.967 551.494 195.366 551.494 194.719C551.494 194.072 551.617 193.475 551.863 192.928C552.118 192.381 552.483 191.902 552.957 191.492C553.44 191.082 554.028 190.768 554.721 190.549C555.423 190.321 556.22 190.207 557.113 190.207ZM290.771 218.094V238H288.119L278.098 222.646V238H275.459V218.094H278.098L288.16 233.488V218.094H290.771ZM298.086 218.094V238H295.447V218.094H298.086ZM306.426 227.049V229.209H297.512V227.049H306.426ZM307.779 218.094V220.254H297.512V218.094H307.779ZM318.553 218.094V238H315.955V218.094H318.553ZM324.951 218.094V220.254H309.57V218.094H324.951ZM329.613 228.498V230.576H322.941V228.498H329.613ZM334.822 233.994L341.645 223.207H344.188V238H341.645V227.213L334.822 238H332.307V223.207H334.822V233.994ZM357.805 223.207V225.299H350.969V238H348.439V223.207H357.805ZM362.535 226.051V243.688H359.992V223.207H362.316L362.535 226.051ZM372.502 230.48V230.768C372.502 231.843 372.374 232.841 372.119 233.762C371.864 234.673 371.49 235.466 370.998 236.141C370.515 236.815 369.918 237.339 369.207 237.713C368.496 238.087 367.68 238.273 366.76 238.273C365.821 238.273 364.992 238.118 364.271 237.809C363.551 237.499 362.941 237.048 362.439 236.455C361.938 235.863 361.537 235.152 361.236 234.322C360.945 233.493 360.744 232.559 360.635 231.52V229.988C360.744 228.895 360.949 227.915 361.25 227.049C361.551 226.183 361.947 225.445 362.439 224.834C362.941 224.214 363.547 223.745 364.258 223.426C364.969 223.098 365.789 222.934 366.719 222.934C367.648 222.934 368.473 223.116 369.193 223.48C369.913 223.836 370.52 224.346 371.012 225.012C371.504 225.677 371.873 226.475 372.119 227.404C372.374 228.325 372.502 229.35 372.502 230.48ZM369.959 230.768V230.48C369.959 229.742 369.882 229.049 369.727 228.402C369.572 227.746 369.33 227.172 369.002 226.68C368.683 226.178 368.273 225.786 367.771 225.504C367.27 225.212 366.673 225.066 365.98 225.066C365.342 225.066 364.786 225.176 364.312 225.395C363.848 225.613 363.451 225.91 363.123 226.283C362.795 226.648 362.526 227.067 362.316 227.541C362.116 228.006 361.965 228.489 361.865 228.99V232.531C362.048 233.169 362.303 233.771 362.631 234.336C362.959 234.892 363.396 235.343 363.943 235.689C364.49 236.027 365.178 236.195 366.008 236.195C366.691 236.195 367.279 236.054 367.771 235.771C368.273 235.48 368.683 235.083 369.002 234.582C369.33 234.081 369.572 233.507 369.727 232.859C369.882 232.203 369.959 231.506 369.959 230.768ZM381.867 238.273C380.837 238.273 379.903 238.1 379.064 237.754C378.235 237.398 377.52 236.902 376.918 236.264C376.326 235.626 375.87 234.869 375.551 233.994C375.232 233.119 375.072 232.162 375.072 231.123V230.549C375.072 229.346 375.25 228.275 375.605 227.336C375.961 226.388 376.444 225.586 377.055 224.93C377.665 224.273 378.358 223.777 379.133 223.439C379.908 223.102 380.71 222.934 381.539 222.934C382.596 222.934 383.508 223.116 384.273 223.48C385.048 223.845 385.682 224.355 386.174 225.012C386.666 225.659 387.031 226.424 387.268 227.309C387.505 228.184 387.623 229.141 387.623 230.18V231.314H376.576V229.25H385.094V229.059C385.057 228.402 384.921 227.764 384.684 227.145C384.456 226.525 384.091 226.014 383.59 225.613C383.089 225.212 382.405 225.012 381.539 225.012C380.965 225.012 380.436 225.135 379.953 225.381C379.47 225.618 379.055 225.973 378.709 226.447C378.363 226.921 378.094 227.5 377.902 228.184C377.711 228.867 377.615 229.656 377.615 230.549V231.123C377.615 231.825 377.711 232.486 377.902 233.105C378.103 233.716 378.39 234.254 378.764 234.719C379.146 235.184 379.607 235.548 380.145 235.812C380.691 236.077 381.311 236.209 382.004 236.209C382.897 236.209 383.654 236.027 384.273 235.662C384.893 235.298 385.436 234.81 385.9 234.199L387.432 235.416C387.113 235.899 386.707 236.359 386.215 236.797C385.723 237.234 385.117 237.59 384.396 237.863C383.686 238.137 382.842 238.273 381.867 238.273Z" fill="white"/>
<path d="M403.551 223.207V238H401.008V223.207H403.551ZM408.514 223.207V225.258H396.141V223.207H408.514ZM409.758 230.768V230.453C409.758 229.387 409.913 228.398 410.223 227.486C410.533 226.566 410.979 225.768 411.562 225.094C412.146 224.41 412.852 223.882 413.682 223.508C414.511 223.125 415.441 222.934 416.471 222.934C417.51 222.934 418.444 223.125 419.273 223.508C420.112 223.882 420.823 224.41 421.406 225.094C421.999 225.768 422.45 226.566 422.76 227.486C423.07 228.398 423.225 229.387 423.225 230.453V230.768C423.225 231.834 423.07 232.823 422.76 233.734C422.45 234.646 421.999 235.443 421.406 236.127C420.823 236.801 420.117 237.33 419.287 237.713C418.467 238.087 417.537 238.273 416.498 238.273C415.459 238.273 414.525 238.087 413.695 237.713C412.866 237.33 412.155 236.801 411.562 236.127C410.979 235.443 410.533 234.646 410.223 233.734C409.913 232.823 409.758 231.834 409.758 230.768ZM412.287 230.453V230.768C412.287 231.506 412.374 232.203 412.547 232.859C412.72 233.507 412.98 234.081 413.326 234.582C413.682 235.083 414.124 235.48 414.652 235.771C415.181 236.054 415.796 236.195 416.498 236.195C417.191 236.195 417.797 236.054 418.316 235.771C418.845 235.48 419.283 235.083 419.629 234.582C419.975 234.081 420.235 233.507 420.408 232.859C420.59 232.203 420.682 231.506 420.682 230.768V230.453C420.682 229.724 420.59 229.036 420.408 228.389C420.235 227.732 419.971 227.154 419.615 226.652C419.269 226.142 418.831 225.741 418.303 225.449C417.783 225.158 417.173 225.012 416.471 225.012C415.778 225.012 415.167 225.158 414.639 225.449C414.119 225.741 413.682 226.142 413.326 226.652C412.98 227.154 412.72 227.732 412.547 228.389C412.374 229.036 412.287 229.724 412.287 230.453ZM436.062 223.207V225.299H428.912V223.207H436.062ZM438.291 223.207V238H435.762V223.207H438.291ZM428.297 223.207H430.84L430.457 230.344C430.393 231.447 430.288 232.422 430.143 233.27C430.006 234.108 429.814 234.828 429.568 235.43C429.331 236.031 429.031 236.523 428.666 236.906C428.311 237.28 427.882 237.558 427.381 237.74C426.88 237.913 426.301 238 425.645 238H424.852V235.771L425.398 235.73C425.79 235.703 426.123 235.612 426.396 235.457C426.679 235.302 426.916 235.074 427.107 234.773C427.299 234.464 427.454 234.067 427.572 233.584C427.7 233.101 427.796 232.527 427.859 231.861C427.932 231.196 427.987 230.421 428.023 229.537L428.297 223.207ZM444.443 228.293H448.887C450.081 228.293 451.088 228.503 451.908 228.922C452.729 229.332 453.348 229.902 453.768 230.631C454.196 231.351 454.41 232.171 454.41 233.092C454.41 233.775 454.292 234.418 454.055 235.02C453.818 235.612 453.462 236.132 452.988 236.578C452.523 237.025 451.945 237.376 451.252 237.631C450.568 237.877 449.78 238 448.887 238H442.598V223.207H445.127V235.922H448.887C449.616 235.922 450.199 235.79 450.637 235.525C451.074 235.261 451.389 234.919 451.58 234.5C451.771 234.081 451.867 233.643 451.867 233.188C451.867 232.741 451.771 232.303 451.58 231.875C451.389 231.447 451.074 231.091 450.637 230.809C450.199 230.517 449.616 230.371 448.887 230.371H444.443V228.293ZM460.316 223.207V238H457.787V223.207H460.316ZM470.023 223.207L463.01 231.684H459.469L459.086 229.469H461.984L466.947 223.207H470.023ZM467.303 238L461.861 231.301L463.488 229.469L470.516 238H467.303ZM471.746 230.768V230.453C471.746 229.387 471.901 228.398 472.211 227.486C472.521 226.566 472.967 225.768 473.551 225.094C474.134 224.41 474.84 223.882 475.67 223.508C476.499 223.125 477.429 222.934 478.459 222.934C479.498 222.934 480.432 223.125 481.262 223.508C482.1 223.882 482.811 224.41 483.395 225.094C483.987 225.768 484.438 226.566 484.748 227.486C485.058 228.398 485.213 229.387 485.213 230.453V230.768C485.213 231.834 485.058 232.823 484.748 233.734C484.438 234.646 483.987 235.443 483.395 236.127C482.811 236.801 482.105 237.33 481.275 237.713C480.455 238.087 479.525 238.273 478.486 238.273C477.447 238.273 476.513 238.087 475.684 237.713C474.854 237.33 474.143 236.801 473.551 236.127C472.967 235.443 472.521 234.646 472.211 233.734C471.901 232.823 471.746 231.834 471.746 230.768ZM474.275 230.453V230.768C474.275 231.506 474.362 232.203 474.535 232.859C474.708 233.507 474.968 234.081 475.314 234.582C475.67 235.083 476.112 235.48 476.641 235.771C477.169 236.054 477.785 236.195 478.486 236.195C479.179 236.195 479.785 236.054 480.305 235.771C480.833 235.48 481.271 235.083 481.617 234.582C481.964 234.081 482.223 233.507 482.396 232.859C482.579 232.203 482.67 231.506 482.67 230.768V230.453C482.67 229.724 482.579 229.036 482.396 228.389C482.223 227.732 481.959 227.154 481.604 226.652C481.257 226.142 480.82 225.741 480.291 225.449C479.771 225.158 479.161 225.012 478.459 225.012C477.766 225.012 477.156 225.158 476.627 225.449C476.107 225.741 475.67 226.142 475.314 226.652C474.968 227.154 474.708 227.732 474.535 228.389C474.362 229.036 474.275 229.724 474.275 230.453ZM501.359 223.207V238H498.816V223.207H501.359ZM506.322 223.207V225.258H493.949V223.207H506.322ZM513.637 236.195C514.238 236.195 514.794 236.072 515.305 235.826C515.815 235.58 516.234 235.243 516.562 234.814C516.891 234.377 517.077 233.88 517.123 233.324H519.529C519.484 234.199 519.188 235.015 518.641 235.771C518.103 236.519 517.396 237.125 516.521 237.59C515.646 238.046 514.685 238.273 513.637 238.273C512.525 238.273 511.554 238.077 510.725 237.686C509.904 237.294 509.221 236.756 508.674 236.072C508.136 235.389 507.73 234.605 507.457 233.721C507.193 232.827 507.061 231.884 507.061 230.891V230.316C507.061 229.323 507.193 228.384 507.457 227.5C507.73 226.607 508.136 225.818 508.674 225.135C509.221 224.451 509.904 223.913 510.725 223.521C511.554 223.13 512.525 222.934 513.637 222.934C514.794 222.934 515.806 223.171 516.672 223.645C517.538 224.109 518.217 224.747 518.709 225.559C519.21 226.361 519.484 227.272 519.529 228.293H517.123C517.077 227.682 516.904 227.131 516.604 226.639C516.312 226.146 515.911 225.755 515.4 225.463C514.899 225.162 514.311 225.012 513.637 225.012C512.862 225.012 512.21 225.167 511.682 225.477C511.162 225.777 510.747 226.188 510.438 226.707C510.137 227.217 509.918 227.787 509.781 228.416C509.654 229.036 509.59 229.669 509.59 230.316V230.891C509.59 231.538 509.654 232.176 509.781 232.805C509.909 233.434 510.123 234.003 510.424 234.514C510.734 235.024 511.148 235.434 511.668 235.744C512.197 236.045 512.853 236.195 513.637 236.195ZM528.293 236.195C528.895 236.195 529.451 236.072 529.961 235.826C530.471 235.58 530.891 235.243 531.219 234.814C531.547 234.377 531.734 233.88 531.779 233.324H534.186C534.14 234.199 533.844 235.015 533.297 235.771C532.759 236.519 532.053 237.125 531.178 237.59C530.303 238.046 529.341 238.273 528.293 238.273C527.181 238.273 526.21 238.077 525.381 237.686C524.561 237.294 523.877 236.756 523.33 236.072C522.792 235.389 522.387 234.605 522.113 233.721C521.849 232.827 521.717 231.884 521.717 230.891V230.316C521.717 229.323 521.849 228.384 522.113 227.5C522.387 226.607 522.792 225.818 523.33 225.135C523.877 224.451 524.561 223.913 525.381 223.521C526.21 223.13 527.181 222.934 528.293 222.934C529.451 222.934 530.462 223.171 531.328 223.645C532.194 224.109 532.873 224.747 533.365 225.559C533.867 226.361 534.14 227.272 534.186 228.293H531.779C531.734 227.682 531.561 227.131 531.26 226.639C530.968 226.146 530.567 225.755 530.057 225.463C529.555 225.162 528.967 225.012 528.293 225.012C527.518 225.012 526.867 225.167 526.338 225.477C525.818 225.777 525.404 226.188 525.094 226.707C524.793 227.217 524.574 227.787 524.438 228.416C524.31 229.036 524.246 229.669 524.246 230.316V230.891C524.246 231.538 524.31 232.176 524.438 232.805C524.565 233.434 524.779 234.003 525.08 234.514C525.39 235.024 525.805 235.434 526.324 235.744C526.853 236.045 527.509 236.195 528.293 236.195ZM542.949 236.195C543.551 236.195 544.107 236.072 544.617 235.826C545.128 235.58 545.547 235.243 545.875 234.814C546.203 234.377 546.39 233.88 546.436 233.324H548.842C548.796 234.199 548.5 235.015 547.953 235.771C547.415 236.519 546.709 237.125 545.834 237.59C544.959 238.046 543.997 238.273 542.949 238.273C541.837 238.273 540.867 238.077 540.037 237.686C539.217 237.294 538.533 236.756 537.986 236.072C537.449 235.389 537.043 234.605 536.77 233.721C536.505 232.827 536.373 231.884 536.373 230.891V230.316C536.373 229.323 536.505 228.384 536.77 227.5C537.043 226.607 537.449 225.818 537.986 225.135C538.533 224.451 539.217 223.913 540.037 223.521C540.867 223.13 541.837 222.934 542.949 222.934C544.107 222.934 545.118 223.171 545.984 223.645C546.85 224.109 547.529 224.747 548.021 225.559C548.523 226.361 548.796 227.272 548.842 228.293H546.436C546.39 227.682 546.217 227.131 545.916 226.639C545.624 226.146 545.223 225.755 544.713 225.463C544.212 225.162 543.624 225.012 542.949 225.012C542.174 225.012 541.523 225.167 540.994 225.477C540.475 225.777 540.06 226.188 539.75 226.707C539.449 227.217 539.23 227.787 539.094 228.416C538.966 229.036 538.902 229.669 538.902 230.316V230.891C538.902 231.538 538.966 232.176 539.094 232.805C539.221 233.434 539.436 234.003 539.736 234.514C540.046 235.024 540.461 235.434 540.98 235.744C541.509 236.045 542.165 236.195 542.949 236.195ZM551.727 236.66C551.727 236.232 551.859 235.872 552.123 235.58C552.396 235.279 552.788 235.129 553.299 235.129C553.809 235.129 554.197 235.279 554.461 235.58C554.734 235.872 554.871 236.232 554.871 236.66C554.871 237.079 554.734 237.435 554.461 237.727C554.197 238.018 553.809 238.164 553.299 238.164C552.788 238.164 552.396 238.018 552.123 237.727C551.859 237.435 551.727 237.079 551.727 236.66ZM559.109 236.66C559.109 236.232 559.242 235.872 559.506 235.58C559.779 235.279 560.171 235.129 560.682 235.129C561.192 235.129 561.579 235.279 561.844 235.58C562.117 235.872 562.254 236.232 562.254 236.66C562.254 237.079 562.117 237.435 561.844 237.727C561.579 238.018 561.192 238.164 560.682 238.164C560.171 238.164 559.779 238.018 559.506 237.727C559.242 237.435 559.109 237.079 559.109 236.66ZM566.492 236.66C566.492 236.232 566.624 235.872 566.889 235.58C567.162 235.279 567.554 235.129 568.064 235.129C568.575 235.129 568.962 235.279 569.227 235.58C569.5 235.872 569.637 236.232 569.637 236.66C569.637 237.079 569.5 237.435 569.227 237.727C568.962 238.018 568.575 238.164 568.064 238.164C567.554 238.164 567.162 238.018 566.889 237.727C566.624 237.435 566.492 237.079 566.492 236.66ZM308.408 263.945H311.143L306.863 271H304.129L308.408 263.945ZM310.527 256.207H316.707V271H314.178V258.258H310.527C309.807 258.258 309.219 258.381 308.764 258.627C308.308 258.864 307.975 259.174 307.766 259.557C307.556 259.939 307.451 260.336 307.451 260.746C307.451 261.147 307.547 261.535 307.738 261.908C307.93 262.273 308.23 262.574 308.641 262.811C309.051 263.048 309.579 263.166 310.227 263.166H314.861V265.244H310.227C309.379 265.244 308.627 265.13 307.971 264.902C307.314 264.674 306.758 264.36 306.303 263.959C305.847 263.549 305.501 263.07 305.264 262.523C305.027 261.967 304.908 261.366 304.908 260.719C304.908 260.072 305.031 259.475 305.277 258.928C305.533 258.381 305.897 257.902 306.371 257.492C306.854 257.082 307.442 256.768 308.135 256.549C308.837 256.321 309.634 256.207 310.527 256.207ZM332.908 258.012C332.352 258.012 331.819 258.135 331.309 258.381C330.807 258.627 330.393 258.969 330.064 259.406C329.745 259.835 329.586 260.331 329.586 260.896H327.166C327.166 260.012 327.439 259.197 327.986 258.449C328.533 257.693 329.244 257.087 330.119 256.631C330.994 256.166 331.924 255.934 332.908 255.934C333.947 255.934 334.868 256.13 335.67 256.521C336.472 256.913 337.146 257.451 337.693 258.135C338.249 258.818 338.669 259.607 338.951 260.5C339.234 261.384 339.375 262.323 339.375 263.316V263.891C339.375 264.884 339.229 265.827 338.938 266.721C338.655 267.605 338.236 268.393 337.68 269.086C337.133 269.77 336.458 270.307 335.656 270.699C334.863 271.091 333.952 271.287 332.922 271.287C331.819 271.287 330.83 271.05 329.955 270.576C329.089 270.102 328.406 269.464 327.904 268.662C327.412 267.851 327.166 266.939 327.166 265.928H329.586C329.586 266.538 329.732 267.094 330.023 267.596C330.324 268.088 330.725 268.48 331.227 268.771C331.728 269.063 332.293 269.209 332.922 269.209C333.605 269.209 334.193 269.054 334.686 268.744C335.187 268.434 335.597 268.024 335.916 267.514C336.235 267.003 336.467 266.434 336.613 265.805C336.768 265.167 336.846 264.529 336.846 263.891V263.316C336.846 262.669 336.768 262.031 336.613 261.402C336.467 260.773 336.235 260.204 335.916 259.693C335.606 259.183 335.201 258.777 334.699 258.477C334.207 258.167 333.61 258.012 332.908 258.012ZM338.076 262.428V264.492H331.254V262.428H338.076ZM347.729 256.207V271H345.186V256.207H347.729ZM352.691 256.207V258.258H340.318V256.207H352.691ZM353.936 263.768V263.453C353.936 262.387 354.09 261.398 354.4 260.486C354.71 259.566 355.157 258.768 355.74 258.094C356.324 257.41 357.03 256.882 357.859 256.508C358.689 256.125 359.618 255.934 360.648 255.934C361.688 255.934 362.622 256.125 363.451 256.508C364.29 256.882 365.001 257.41 365.584 258.094C366.176 258.768 366.628 259.566 366.938 260.486C367.247 261.398 367.402 262.387 367.402 263.453V263.768C367.402 264.834 367.247 265.823 366.938 266.734C366.628 267.646 366.176 268.443 365.584 269.127C365.001 269.801 364.294 270.33 363.465 270.713C362.645 271.087 361.715 271.273 360.676 271.273C359.637 271.273 358.702 271.087 357.873 270.713C357.044 270.33 356.333 269.801 355.74 269.127C355.157 268.443 354.71 267.646 354.4 266.734C354.09 265.823 353.936 264.834 353.936 263.768ZM356.465 263.453V263.768C356.465 264.506 356.551 265.203 356.725 265.859C356.898 266.507 357.158 267.081 357.504 267.582C357.859 268.083 358.301 268.48 358.83 268.771C359.359 269.054 359.974 269.195 360.676 269.195C361.368 269.195 361.975 269.054 362.494 268.771C363.023 268.48 363.46 268.083 363.807 267.582C364.153 267.081 364.413 266.507 364.586 265.859C364.768 265.203 364.859 264.506 364.859 263.768V263.453C364.859 262.724 364.768 262.036 364.586 261.389C364.413 260.732 364.148 260.154 363.793 259.652C363.447 259.142 363.009 258.741 362.48 258.449C361.961 258.158 361.35 258.012 360.648 258.012C359.956 258.012 359.345 258.158 358.816 258.449C358.297 258.741 357.859 259.142 357.504 259.652C357.158 260.154 356.898 260.732 356.725 261.389C356.551 262.036 356.465 262.724 356.465 263.453ZM380.131 256.207V258.299H373.295V271H370.766V256.207H380.131ZM381.389 263.768V263.453C381.389 262.387 381.544 261.398 381.854 260.486C382.163 259.566 382.61 258.768 383.193 258.094C383.777 257.41 384.483 256.882 385.312 256.508C386.142 256.125 387.072 255.934 388.102 255.934C389.141 255.934 390.075 256.125 390.904 256.508C391.743 256.882 392.454 257.41 393.037 258.094C393.63 258.768 394.081 259.566 394.391 260.486C394.701 261.398 394.855 262.387 394.855 263.453V263.768C394.855 264.834 394.701 265.823 394.391 266.734C394.081 267.646 393.63 268.443 393.037 269.127C392.454 269.801 391.747 270.33 390.918 270.713C390.098 271.087 389.168 271.273 388.129 271.273C387.09 271.273 386.156 271.087 385.326 270.713C384.497 270.33 383.786 269.801 383.193 269.127C382.61 268.443 382.163 267.646 381.854 266.734C381.544 265.823 381.389 264.834 381.389 263.768ZM383.918 263.453V263.768C383.918 264.506 384.005 265.203 384.178 265.859C384.351 266.507 384.611 267.081 384.957 267.582C385.312 268.083 385.755 268.48 386.283 268.771C386.812 269.054 387.427 269.195 388.129 269.195C388.822 269.195 389.428 269.054 389.947 268.771C390.476 268.48 390.913 268.083 391.26 267.582C391.606 267.081 391.866 266.507 392.039 265.859C392.221 265.203 392.312 264.506 392.312 263.768V263.453C392.312 262.724 392.221 262.036 392.039 261.389C391.866 260.732 391.602 260.154 391.246 259.652C390.9 259.142 390.462 258.741 389.934 258.449C389.414 258.158 388.803 258.012 388.102 258.012C387.409 258.012 386.798 258.158 386.27 258.449C385.75 258.741 385.312 259.142 384.957 259.652C384.611 260.154 384.351 260.732 384.178 261.389C384.005 262.036 383.918 262.724 383.918 263.453ZM415.008 262.619V264.67H407.188V262.619H415.008ZM407.721 256.207V271H405.191V256.207H407.721ZM417.059 256.207V271H414.516V256.207H417.059ZM427.271 271.273C426.242 271.273 425.307 271.1 424.469 270.754C423.639 270.398 422.924 269.902 422.322 269.264C421.73 268.626 421.274 267.869 420.955 266.994C420.636 266.119 420.477 265.162 420.477 264.123V263.549C420.477 262.346 420.654 261.275 421.01 260.336C421.365 259.388 421.848 258.586 422.459 257.93C423.07 257.273 423.762 256.777 424.537 256.439C425.312 256.102 426.114 255.934 426.943 255.934C428.001 255.934 428.912 256.116 429.678 256.48C430.452 256.845 431.086 257.355 431.578 258.012C432.07 258.659 432.435 259.424 432.672 260.309C432.909 261.184 433.027 262.141 433.027 263.18V264.314H421.98V262.25H430.498V262.059C430.462 261.402 430.325 260.764 430.088 260.145C429.86 259.525 429.495 259.014 428.994 258.613C428.493 258.212 427.809 258.012 426.943 258.012C426.369 258.012 425.84 258.135 425.357 258.381C424.874 258.618 424.46 258.973 424.113 259.447C423.767 259.921 423.498 260.5 423.307 261.184C423.115 261.867 423.02 262.656 423.02 263.549V264.123C423.02 264.825 423.115 265.486 423.307 266.105C423.507 266.716 423.794 267.254 424.168 267.719C424.551 268.184 425.011 268.548 425.549 268.812C426.096 269.077 426.715 269.209 427.408 269.209C428.301 269.209 429.058 269.027 429.678 268.662C430.298 268.298 430.84 267.81 431.305 267.199L432.836 268.416C432.517 268.899 432.111 269.359 431.619 269.797C431.127 270.234 430.521 270.59 429.801 270.863C429.09 271.137 428.247 271.273 427.271 271.273ZM452.482 256.207V258.299H445.646V271H443.117V256.207H452.482ZM453.74 263.768V263.453C453.74 262.387 453.895 261.398 454.205 260.486C454.515 259.566 454.962 258.768 455.545 258.094C456.128 257.41 456.835 256.882 457.664 256.508C458.493 256.125 459.423 255.934 460.453 255.934C461.492 255.934 462.426 256.125 463.256 256.508C464.094 256.882 464.805 257.41 465.389 258.094C465.981 258.768 466.432 259.566 466.742 260.486C467.052 261.398 467.207 262.387 467.207 263.453V263.768C467.207 264.834 467.052 265.823 466.742 266.734C466.432 267.646 465.981 268.443 465.389 269.127C464.805 269.801 464.099 270.33 463.27 270.713C462.449 271.087 461.52 271.273 460.48 271.273C459.441 271.273 458.507 271.087 457.678 270.713C456.848 270.33 456.137 269.801 455.545 269.127C454.962 268.443 454.515 267.646 454.205 266.734C453.895 265.823 453.74 264.834 453.74 263.768ZM456.27 263.453V263.768C456.27 264.506 456.356 265.203 456.529 265.859C456.702 266.507 456.962 267.081 457.309 267.582C457.664 268.083 458.106 268.48 458.635 268.771C459.163 269.054 459.779 269.195 460.48 269.195C461.173 269.195 461.779 269.054 462.299 268.771C462.827 268.48 463.265 268.083 463.611 267.582C463.958 267.081 464.217 266.507 464.391 265.859C464.573 265.203 464.664 264.506 464.664 263.768V263.453C464.664 262.724 464.573 262.036 464.391 261.389C464.217 260.732 463.953 260.154 463.598 259.652C463.251 259.142 462.814 258.741 462.285 258.449C461.766 258.158 461.155 258.012 460.453 258.012C459.76 258.012 459.15 258.158 458.621 258.449C458.102 258.741 457.664 259.142 457.309 259.652C456.962 260.154 456.702 260.732 456.529 261.389C456.356 262.036 456.27 262.724 456.27 263.453ZM477.324 264.492H472.471L472.443 262.469H476.408C477.192 262.469 477.844 262.391 478.363 262.236C478.892 262.081 479.288 261.849 479.553 261.539C479.817 261.229 479.949 260.846 479.949 260.391C479.949 260.035 479.872 259.725 479.717 259.461C479.571 259.188 479.348 258.964 479.047 258.791C478.746 258.609 478.372 258.477 477.926 258.395C477.488 258.303 476.973 258.258 476.381 258.258H473.141V271H470.611V256.207H476.381C477.32 256.207 478.163 256.289 478.91 256.453C479.667 256.617 480.309 256.868 480.838 257.205C481.376 257.533 481.786 257.952 482.068 258.463C482.351 258.973 482.492 259.575 482.492 260.268C482.492 260.714 482.401 261.138 482.219 261.539C482.036 261.94 481.768 262.296 481.412 262.605C481.057 262.915 480.619 263.171 480.1 263.371C479.58 263.562 478.983 263.686 478.309 263.74L477.324 264.492ZM477.324 271H471.555L472.812 268.949H477.324C478.026 268.949 478.609 268.863 479.074 268.689C479.539 268.507 479.885 268.252 480.113 267.924C480.35 267.587 480.469 267.186 480.469 266.721C480.469 266.256 480.35 265.859 480.113 265.531C479.885 265.194 479.539 264.939 479.074 264.766C478.609 264.583 478.026 264.492 477.324 264.492H473.482L473.51 262.469H478.309L479.225 263.234C480.036 263.298 480.724 263.499 481.289 263.836C481.854 264.173 482.283 264.602 482.574 265.121C482.866 265.632 483.012 266.188 483.012 266.789C483.012 267.482 482.88 268.092 482.615 268.621C482.36 269.15 481.986 269.592 481.494 269.947C481.002 270.294 480.405 270.558 479.703 270.74C479.001 270.913 478.208 271 477.324 271ZM485.732 263.768V263.453C485.732 262.387 485.887 261.398 486.197 260.486C486.507 259.566 486.954 258.768 487.537 258.094C488.12 257.41 488.827 256.882 489.656 256.508C490.486 256.125 491.415 255.934 492.445 255.934C493.484 255.934 494.419 256.125 495.248 256.508C496.087 256.882 496.798 257.41 497.381 258.094C497.973 258.768 498.424 259.566 498.734 260.486C499.044 261.398 499.199 262.387 499.199 263.453V263.768C499.199 264.834 499.044 265.823 498.734 266.734C498.424 267.646 497.973 268.443 497.381 269.127C496.798 269.801 496.091 270.33 495.262 270.713C494.441 271.087 493.512 271.273 492.473 271.273C491.434 271.273 490.499 271.087 489.67 270.713C488.84 270.33 488.13 269.801 487.537 269.127C486.954 268.443 486.507 267.646 486.197 266.734C485.887 265.823 485.732 264.834 485.732 263.768ZM488.262 263.453V263.768C488.262 264.506 488.348 265.203 488.521 265.859C488.695 266.507 488.954 267.081 489.301 267.582C489.656 268.083 490.098 268.48 490.627 268.771C491.156 269.054 491.771 269.195 492.473 269.195C493.165 269.195 493.771 269.054 494.291 268.771C494.82 268.48 495.257 268.083 495.604 267.582C495.95 267.081 496.21 266.507 496.383 265.859C496.565 265.203 496.656 264.506 496.656 263.768V263.453C496.656 262.724 496.565 262.036 496.383 261.389C496.21 260.732 495.945 260.154 495.59 259.652C495.243 259.142 494.806 258.741 494.277 258.449C493.758 258.158 493.147 258.012 492.445 258.012C491.753 258.012 491.142 258.158 490.613 258.449C490.094 258.741 489.656 259.142 489.301 259.652C488.954 260.154 488.695 260.732 488.521 261.389C488.348 262.036 488.262 262.724 488.262 263.453ZM504.9 259.051V276.688H502.357V256.207H504.682L504.9 259.051ZM514.867 263.48V263.768C514.867 264.843 514.74 265.841 514.484 266.762C514.229 267.673 513.855 268.466 513.363 269.141C512.88 269.815 512.283 270.339 511.572 270.713C510.861 271.087 510.046 271.273 509.125 271.273C508.186 271.273 507.357 271.118 506.637 270.809C505.917 270.499 505.306 270.048 504.805 269.455C504.303 268.863 503.902 268.152 503.602 267.322C503.31 266.493 503.109 265.559 503 264.52V262.988C503.109 261.895 503.314 260.915 503.615 260.049C503.916 259.183 504.312 258.445 504.805 257.834C505.306 257.214 505.912 256.745 506.623 256.426C507.334 256.098 508.154 255.934 509.084 255.934C510.014 255.934 510.839 256.116 511.559 256.48C512.279 256.836 512.885 257.346 513.377 258.012C513.869 258.677 514.238 259.475 514.484 260.404C514.74 261.325 514.867 262.35 514.867 263.48ZM512.324 263.768V263.48C512.324 262.742 512.247 262.049 512.092 261.402C511.937 260.746 511.695 260.172 511.367 259.68C511.048 259.178 510.638 258.786 510.137 258.504C509.635 258.212 509.038 258.066 508.346 258.066C507.708 258.066 507.152 258.176 506.678 258.395C506.213 258.613 505.816 258.91 505.488 259.283C505.16 259.648 504.891 260.067 504.682 260.541C504.481 261.006 504.331 261.489 504.23 261.99V265.531C504.413 266.169 504.668 266.771 504.996 267.336C505.324 267.892 505.762 268.343 506.309 268.689C506.855 269.027 507.544 269.195 508.373 269.195C509.057 269.195 509.645 269.054 510.137 268.771C510.638 268.48 511.048 268.083 511.367 267.582C511.695 267.081 511.937 266.507 512.092 265.859C512.247 265.203 512.324 264.506 512.324 263.768ZM520.828 266.994L527.65 256.207H530.193V271H527.65V260.213L520.828 271H518.312V256.207H520.828V266.994ZM544.139 256.207V258.299H536.988V256.207H544.139ZM546.367 256.207V271H543.838V256.207H546.367ZM536.373 256.207H538.916L538.533 263.344C538.469 264.447 538.365 265.422 538.219 266.27C538.082 267.108 537.891 267.828 537.645 268.43C537.408 269.031 537.107 269.523 536.742 269.906C536.387 270.28 535.958 270.558 535.457 270.74C534.956 270.913 534.377 271 533.721 271H532.928V268.771L533.475 268.73C533.867 268.703 534.199 268.612 534.473 268.457C534.755 268.302 534.992 268.074 535.184 267.773C535.375 267.464 535.53 267.067 535.648 266.584C535.776 266.101 535.872 265.527 535.936 264.861C536.008 264.196 536.063 263.421 536.1 262.537L536.373 256.207Z" fill="white" fill-opacity="0.6"/>
<path d="M217.694 358.998C230.43 353.159 266.584 330.089 271.995 318.74C284.465 293.646 244.309 254.718 209.658 272.588C147.064 304.717 129.96 315.862 146.722 344.085C152.349 354.42 163.006 361.806 176.33 364.606C189.653 367.405 204.542 365.387 217.694 358.998Z" fill="#F85AE8"/>
<path d="M84.5064 390.327C90.9532 392.401 110.63 388.196 116.124 384.104C128.176 375.078 125.373 342.116 107.266 337.575C74.6961 329.334 66.6236 334.996 64.2691 358.149C62.5313 375.078 69.2023 385.393 84.5064 390.327Z" fill="#F85AE8"/>
<path d="M11.042 383.711C14.5134 384.806 25.1087 382.588 28.0669 380.429C34.5569 375.668 33.0476 358.281 23.2975 355.886C5.75949 351.539 1.41272 354.526 0.14491 366.738C-0.790853 375.668 2.80127 381.109 11.042 383.711Z" fill="#F85AE8"/>
</svg>
