<svg width="31" height="58" viewBox="0 0 31 58" fill="none" xmlns="http://www.w3.org/2000/svg">
<path d="M11.9138 20.5526H16.2433C19.191 20.5526 21.6987 21.0693 23.7662 22.1026C25.8337 23.1359 27.4202 24.5722 28.5256 26.4115C29.631 28.2302 30.1837 30.3485 30.1837 32.7664C30.1837 35.6597 29.6105 38.119 28.4642 40.1443C27.3178 42.1696 25.7109 43.7196 23.6434 44.7942C21.5758 45.8482 19.1501 46.3752 16.3661 46.3752C14.7694 46.3752 13.1523 46.1375 11.5146 45.6622C9.89746 45.1869 8.40312 44.4636 7.0316 43.4922C5.68055 42.5003 4.59561 41.2293 3.7768 39.6793C2.95798 38.1293 2.54857 36.2797 2.54857 34.1304L5.34279 33.3244C5.34279 34.6264 5.74196 35.825 6.54031 36.9204C7.35913 37.995 8.49523 38.8527 9.94864 39.4933C11.402 40.134 13.0908 40.4543 15.0151 40.4543C16.6527 40.4543 18.0447 40.1236 19.191 39.4623C20.3579 38.7803 21.2381 37.8607 21.8317 36.7034C22.4458 35.5461 22.7529 34.2337 22.7529 32.7664C22.7529 31.2785 22.4765 29.9352 21.9238 28.7365C21.3711 27.5379 20.5523 26.5769 19.4674 25.8536C18.4029 25.1302 17.0826 24.7686 15.5064 24.7686H11.9138V20.5526ZM14.3088 0C17.1133 0 19.5493 0.495991 21.6168 1.48797C23.6843 2.47996 25.281 3.88527 26.4069 5.7039C27.5532 7.52254 28.1264 9.68217 28.1264 12.1828C28.1264 14.2288 27.5737 16.0887 26.4683 17.7627C25.3834 19.4367 23.8481 20.7696 21.8624 21.7616C19.8973 22.7536 17.5943 23.2496 14.9537 23.2496H11.9138V19.1577H14.186C15.7622 19.1577 17.0212 18.889 17.9628 18.3517C18.9249 17.7937 19.6209 17.0084 20.0508 15.9957C20.5012 14.9831 20.7263 13.8051 20.7263 12.4618C20.7263 11.3251 20.4909 10.2712 20.0201 9.29984C19.5493 8.30786 18.843 7.50187 17.9014 6.88188C16.9598 6.26189 15.7622 5.9519 14.3088 5.9519C13.0192 5.9519 11.8422 6.25156 10.7777 6.85088C9.7337 7.4502 8.90464 8.29752 8.29053 9.39284C7.69689 10.4675 7.40007 11.7075 7.40007 13.1128V58H0V13.1128C0 10.5708 0.655054 8.31819 1.96516 6.35489C3.27527 4.37092 5.00502 2.82095 7.15442 1.70497C9.32429 0.568323 11.7091 0 14.3088 0Z" fill="black"/>
</svg>
