<svg width="48" height="72" viewBox="0 0 48 72" fill="none" xmlns="http://www.w3.org/2000/svg">
<path d="M12 18L13 18L12 18ZM12.1231 14.4357L11.1354 14.2792L12.1231 14.4357ZM20.4357 6.12312L20.2792 5.13543L20.4357 6.12312ZM20.4357 41.8769L20.2792 42.8646L20.4357 41.8769ZM12 30L11 30L12 30ZM12.1231 33.5643L11.1354 33.7208L12.1231 33.5643ZM36 30H37H36ZM35.8769 33.5643L36.8646 33.7208L35.8769 33.5643ZM27.5643 41.8769L27.7208 42.8646L27.5643 41.8769ZM36 18L35 18V18H36ZM35.8769 14.4357L36.8646 14.2792L35.8769 14.4357ZM27.5643 6.12312L27.7208 5.13543L27.5643 6.12312ZM12 32H11H12ZM22 22V21V22ZM23 18C23 18.5523 23.4477 19 24 19C24.5523 19 25 18.5523 25 18L23 18ZM35 18V30H37V18H35ZM13 30L13 18L11 18L11 30L13 30ZM13 18C13 16.1038 13.0031 15.2721 13.1108 14.5921L11.1354 14.2792C10.9969 15.1539 11 16.1802 11 18L13 18ZM24 5C22.1802 5 21.1539 4.9969 20.2792 5.13543L20.5921 7.1108C21.2721 7.0031 22.1038 7 24 7V5ZM13.1108 14.5921C13.7208 10.7411 16.7411 7.72075 20.5921 7.1108L20.2792 5.13543C15.5724 5.88091 11.8809 9.5724 11.1354 14.2792L13.1108 14.5921ZM24 41C22.1038 41 21.2721 40.9969 20.5921 40.8892L20.2792 42.8646C21.1539 43.0031 22.1802 43 24 43V41ZM11 30C11 31.8198 10.9969 32.8461 11.1354 33.7208L13.1108 33.4079C13.0031 32.7279 13 31.8962 13 30L11 30ZM20.5921 40.8892C16.7411 40.2793 13.7207 37.2589 13.1108 33.4079L11.1354 33.7208C11.8809 38.4276 15.5724 42.1191 20.2792 42.8646L20.5921 40.8892ZM35 30C35 31.8962 34.9969 32.7279 34.8892 33.4079L36.8646 33.7208C37.0031 32.8461 37 31.8198 37 30L35 30ZM24 43C25.8198 43 26.8461 43.0031 27.7208 42.8646L27.4079 40.8892C26.7279 40.9969 25.8962 41 24 41V43ZM34.8892 33.4079C34.2793 37.2589 31.2589 40.2793 27.4079 40.8892L27.7208 42.8646C32.4276 42.1191 36.1191 38.4276 36.8646 33.7208L34.8892 33.4079ZM37 18C37 16.1802 37.0031 15.1539 36.8646 14.2792L34.8892 14.5921C34.9969 15.2721 35 16.1038 35 18L37 18ZM24 7C25.8962 7 26.7279 7.0031 27.4079 7.11081L27.7208 5.13543C26.8461 4.9969 25.8198 5 24 5V7ZM36.8646 14.2792C36.1191 9.5724 32.4276 5.88092 27.7208 5.13543L27.4079 7.11081C31.2589 7.72075 34.2793 10.7411 34.8892 14.5921L36.8646 14.2792ZM26 41L22 41L22 43L26 43L26 41ZM22 23H26V21H22V23ZM13 32C13 27.0294 17.0294 23 22 23V21C15.9249 21 11 25.9249 11 32H13ZM22 41C17.0294 41 13 36.9706 13 32H11C11 38.0751 15.9249 43 22 43V41ZM35 32C35 36.9706 30.9706 41 26 41V43C32.0751 43 37 38.0751 37 32H35ZM37 32C37 25.9249 32.0751 21 26 21V23C30.9706 23 35 27.0294 35 32H37ZM25 18L25 6L23 6L23 18L25 18Z" fill="white"/>
<path d="M30.07 62.4297L24 68.4997L17.93 62.4297" stroke="white" stroke-width="2" stroke-miterlimit="10" stroke-linecap="round" stroke-linejoin="round"/>
<path d="M24 51.5V68.33" stroke="white" stroke-width="2" stroke-miterlimit="10" stroke-linecap="round" stroke-linejoin="round"/>
</svg>
