<svg width="258" height="257" viewBox="0 0 258 257" fill="none" xmlns="http://www.w3.org/2000/svg">
<path d="M148.111 190.891C210.581 190.891 261.222 148.291 261.222 95.7415C261.222 43.1917 210.581 0.591797 148.111 0.591797C85.6416 0.591797 35 43.1917 35 95.7415C35 148.291 85.6416 190.891 148.111 190.891Z" fill="#EF2ADC"/>
<path d="M88.8853 67.0356H90.3853C90.3071 67.7544 90.1014 68.3976 89.7681 68.9653C89.4347 69.533 88.9634 69.9836 88.354 70.3169C87.7446 70.645 86.9842 70.8091 86.0728 70.8091C85.4061 70.8091 84.7993 70.6841 84.2524 70.4341C83.7108 70.1841 83.2446 69.8299 82.854 69.3716C82.4634 68.908 82.1613 68.3534 81.9478 67.7075C81.7394 67.0565 81.6353 66.3325 81.6353 65.5356V64.4028C81.6353 63.606 81.7394 62.8846 81.9478 62.2388C82.1613 61.5877 82.466 61.0304 82.8618 60.5669C83.2629 60.1034 83.7446 59.7466 84.3071 59.4966C84.8696 59.2466 85.5024 59.1216 86.2056 59.1216C87.0649 59.1216 87.7915 59.283 88.3853 59.606C88.979 59.9289 89.4399 60.3768 89.7681 60.9497C90.1014 61.5174 90.3071 62.1763 90.3853 62.9263H88.8853C88.8123 62.395 88.6769 61.9393 88.479 61.5591C88.2811 61.1737 87.9998 60.8768 87.6353 60.6685C87.2707 60.4601 86.7941 60.356 86.2056 60.356C85.7004 60.356 85.255 60.4523 84.8696 60.645C84.4894 60.8377 84.1691 61.1112 83.9087 61.4653C83.6535 61.8195 83.4608 62.244 83.3306 62.7388C83.2004 63.2336 83.1353 63.783 83.1353 64.3872V65.5356C83.1353 66.0929 83.1925 66.6164 83.3071 67.106C83.4269 67.5955 83.6066 68.0252 83.8462 68.395C84.0858 68.7648 84.3905 69.0565 84.7603 69.27C85.13 69.4784 85.5675 69.5825 86.0728 69.5825C86.7134 69.5825 87.2238 69.481 87.604 69.2778C87.9842 69.0747 88.2707 68.783 88.4634 68.4028C88.6613 68.0226 88.8019 67.5669 88.8853 67.0356ZM97.2056 69.2075V64.856C97.2056 64.5226 97.1379 64.2336 97.0024 63.9888C96.8722 63.7388 96.6743 63.5461 96.4087 63.4106C96.1431 63.2752 95.8149 63.2075 95.4243 63.2075C95.0597 63.2075 94.7394 63.27 94.4634 63.395C94.1925 63.52 93.979 63.6841 93.8228 63.8872C93.6717 64.0903 93.5962 64.3091 93.5962 64.5435H92.1509C92.1509 64.2414 92.229 63.9419 92.3853 63.645C92.5415 63.3481 92.7655 63.0799 93.0571 62.8403C93.354 62.5955 93.7082 62.4028 94.1196 62.2622C94.5363 62.1164 94.9998 62.0435 95.5103 62.0435C96.1248 62.0435 96.6665 62.1476 97.1353 62.356C97.6092 62.5643 97.979 62.8794 98.2446 63.3013C98.5155 63.7179 98.6509 64.2414 98.6509 64.8716V68.8091C98.6509 69.0903 98.6743 69.3898 98.7212 69.7075C98.7733 70.0252 98.8488 70.2987 98.9478 70.5278V70.6528H97.4399C97.367 70.4862 97.3097 70.2648 97.2681 69.9888C97.2264 69.7075 97.2056 69.4471 97.2056 69.2075ZM97.4556 65.5278L97.4712 66.5435H96.0103C95.5988 66.5435 95.2316 66.5773 94.9087 66.645C94.5858 66.7075 94.3149 66.8039 94.0962 66.9341C93.8774 67.0643 93.7108 67.2284 93.5962 67.4263C93.4816 67.619 93.4243 67.8455 93.4243 68.106C93.4243 68.3716 93.4842 68.6138 93.604 68.8325C93.7238 69.0513 93.9035 69.2257 94.1431 69.356C94.3879 69.481 94.6873 69.5435 95.0415 69.5435C95.4842 69.5435 95.8748 69.4497 96.2134 69.2622C96.5519 69.0747 96.8201 68.8455 97.0181 68.5747C97.2212 68.3039 97.3306 68.0409 97.3462 67.7856L97.9634 68.481C97.9269 68.6997 97.828 68.9419 97.6665 69.2075C97.505 69.4731 97.2889 69.7284 97.0181 69.9731C96.7524 70.2127 96.4347 70.4132 96.0649 70.5747C95.7004 70.731 95.2889 70.8091 94.8306 70.8091C94.2576 70.8091 93.755 70.6971 93.3228 70.4731C92.8957 70.2492 92.5623 69.9497 92.3228 69.5747C92.0884 69.1945 91.9712 68.77 91.9712 68.3013C91.9712 67.8481 92.0597 67.4497 92.2368 67.106C92.4139 66.757 92.6691 66.4679 93.0024 66.2388C93.3358 66.0044 93.7368 65.8273 94.2056 65.7075C94.6743 65.5877 95.1978 65.5278 95.7759 65.5278H97.4556ZM105.784 68.731L108.659 62.1997H110.049L106.284 70.6528H105.284L101.534 62.1997H102.924L105.784 68.731ZM102.502 62.1997V70.6528H101.057V62.1997H102.502ZM109.018 70.6528V62.1997H110.471V70.6528H109.018ZM112.417 66.52V66.3403C112.417 65.731 112.505 65.1659 112.682 64.645C112.859 64.119 113.114 63.6632 113.448 63.2778C113.781 62.8872 114.185 62.5851 114.659 62.3716C115.133 62.1528 115.664 62.0435 116.252 62.0435C116.846 62.0435 117.38 62.1528 117.854 62.3716C118.333 62.5851 118.739 62.8872 119.073 63.2778C119.411 63.6632 119.669 64.119 119.846 64.645C120.023 65.1659 120.112 65.731 120.112 66.3403V66.52C120.112 67.1294 120.023 67.6945 119.846 68.2153C119.669 68.7362 119.411 69.1919 119.073 69.5825C118.739 69.9679 118.336 70.27 117.862 70.4888C117.393 70.7023 116.862 70.8091 116.268 70.8091C115.674 70.8091 115.14 70.7023 114.667 70.4888C114.193 70.27 113.786 69.9679 113.448 69.5825C113.114 69.1919 112.859 68.7362 112.682 68.2153C112.505 67.6945 112.417 67.1294 112.417 66.52ZM113.862 66.3403V66.52C113.862 66.9419 113.911 67.3403 114.01 67.7153C114.109 68.0851 114.258 68.4132 114.456 68.6997C114.659 68.9862 114.911 69.2127 115.213 69.3794C115.515 69.5409 115.867 69.6216 116.268 69.6216C116.664 69.6216 117.01 69.5409 117.307 69.3794C117.609 69.2127 117.859 68.9862 118.057 68.6997C118.255 68.4132 118.403 68.0851 118.502 67.7153C118.607 67.3403 118.659 66.9419 118.659 66.52V66.3403C118.659 65.9237 118.607 65.5304 118.502 65.1606C118.403 64.7856 118.252 64.4549 118.049 64.1685C117.851 63.8768 117.601 63.6476 117.299 63.481C117.002 63.3143 116.653 63.231 116.252 63.231C115.857 63.231 115.508 63.3143 115.206 63.481C114.909 63.6476 114.659 63.8768 114.456 64.1685C114.258 64.4549 114.109 64.7856 114.01 65.1606C113.911 65.5304 113.862 65.9237 113.862 66.3403ZM125.432 70.8091C124.844 70.8091 124.31 70.7101 123.831 70.5122C123.357 70.3091 122.948 70.0252 122.604 69.6606C122.265 69.2961 122.005 68.8638 121.823 68.3638C121.64 67.8638 121.549 67.3169 121.549 66.7231V66.395C121.549 65.7075 121.651 65.0955 121.854 64.5591C122.057 64.0174 122.333 63.5591 122.682 63.1841C123.031 62.8091 123.427 62.5252 123.87 62.3325C124.312 62.1398 124.771 62.0435 125.245 62.0435C125.849 62.0435 126.37 62.1476 126.807 62.356C127.25 62.5643 127.612 62.856 127.893 63.231C128.174 63.6007 128.383 64.0382 128.518 64.5435C128.653 65.0435 128.721 65.5903 128.721 66.1841V66.8325H122.409V65.6528H127.276V65.5435C127.255 65.1685 127.177 64.8039 127.042 64.4497C126.911 64.0955 126.703 63.8039 126.417 63.5747C126.13 63.3455 125.739 63.231 125.245 63.231C124.917 63.231 124.614 63.3013 124.338 63.4419C124.062 63.5773 123.825 63.7804 123.627 64.0513C123.43 64.3221 123.276 64.6528 123.167 65.0435C123.057 65.4341 123.002 65.8846 123.002 66.395V66.7231C123.002 67.1242 123.057 67.5018 123.167 67.856C123.281 68.2049 123.445 68.5122 123.659 68.7778C123.877 69.0435 124.14 69.2518 124.448 69.4028C124.76 69.5539 125.114 69.6294 125.51 69.6294C126.021 69.6294 126.453 69.5252 126.807 69.3169C127.161 69.1086 127.471 68.8299 127.737 68.481L128.612 69.1763C128.43 69.4523 128.198 69.7153 127.917 69.9653C127.635 70.2153 127.289 70.4185 126.877 70.5747C126.471 70.731 125.989 70.8091 125.432 70.8091ZM135.948 62.1997V70.6528H134.502V62.1997H135.948ZM141.495 62.1997L137.487 67.0435H135.463L135.245 65.7778H136.901L139.737 62.1997H141.495ZM139.94 70.6528L136.831 66.8247L137.76 65.7778L141.776 70.6528H139.94ZM148.018 69.2075V64.856C148.018 64.5226 147.95 64.2336 147.815 63.9888C147.685 63.7388 147.487 63.5461 147.221 63.4106C146.956 63.2752 146.627 63.2075 146.237 63.2075C145.872 63.2075 145.552 63.27 145.276 63.395C145.005 63.52 144.792 63.6841 144.635 63.8872C144.484 64.0903 144.409 64.3091 144.409 64.5435H142.963C142.963 64.2414 143.042 63.9419 143.198 63.645C143.354 63.3481 143.578 63.0799 143.87 62.8403C144.167 62.5955 144.521 62.4028 144.932 62.2622C145.349 62.1164 145.812 62.0435 146.323 62.0435C146.937 62.0435 147.479 62.1476 147.948 62.356C148.422 62.5643 148.792 62.8794 149.057 63.3013C149.328 63.7179 149.463 64.2414 149.463 64.8716V68.8091C149.463 69.0903 149.487 69.3898 149.534 69.7075C149.586 70.0252 149.661 70.2987 149.76 70.5278V70.6528H148.252C148.18 70.4862 148.122 70.2648 148.081 69.9888C148.039 69.7075 148.018 69.4471 148.018 69.2075ZM148.268 65.5278L148.284 66.5435H146.823C146.411 66.5435 146.044 66.5773 145.721 66.645C145.398 66.7075 145.127 66.8039 144.909 66.9341C144.69 67.0643 144.523 67.2284 144.409 67.4263C144.294 67.619 144.237 67.8455 144.237 68.106C144.237 68.3716 144.297 68.6138 144.417 68.8325C144.536 69.0513 144.716 69.2257 144.956 69.356C145.2 69.481 145.5 69.5435 145.854 69.5435C146.297 69.5435 146.687 69.4497 147.026 69.2622C147.364 69.0747 147.633 68.8455 147.831 68.5747C148.034 68.3039 148.143 68.0409 148.159 67.7856L148.776 68.481C148.739 68.6997 148.64 68.9419 148.479 69.2075C148.318 69.4731 148.101 69.7284 147.831 69.9731C147.565 70.2127 147.247 70.4132 146.877 70.5747C146.513 70.731 146.101 70.8091 145.643 70.8091C145.07 70.8091 144.568 70.6971 144.135 70.4731C143.708 70.2492 143.375 69.9497 143.135 69.5747C142.901 69.1945 142.784 68.77 142.784 68.3013C142.784 67.8481 142.872 67.4497 143.049 67.106C143.226 66.757 143.482 66.4679 143.815 66.2388C144.148 66.0044 144.549 65.8273 145.018 65.7075C145.487 65.5877 146.01 65.5278 146.588 65.5278H148.268ZM153.299 68.3638L157.198 62.1997H158.651V70.6528H157.198V64.4888L153.299 70.6528H151.862V62.1997H153.299V68.3638ZM156.409 59.1372H157.581C157.581 59.5435 157.487 59.9054 157.299 60.2231C157.112 60.5356 156.844 60.7804 156.495 60.9575C156.146 61.1346 155.732 61.2231 155.252 61.2231C154.528 61.2231 153.956 61.0304 153.534 60.645C153.117 60.2544 152.909 59.7518 152.909 59.1372H154.081C154.081 59.4445 154.169 59.7153 154.346 59.9497C154.523 60.1841 154.825 60.3013 155.252 60.3013C155.669 60.3013 155.966 60.1841 156.143 59.9497C156.32 59.7153 156.409 59.4445 156.409 59.1372ZM170.69 66.5747V66.7388C170.69 67.3325 170.625 67.8794 170.495 68.3794C170.364 68.8742 170.169 69.3039 169.909 69.6685C169.653 70.033 169.336 70.3169 168.956 70.52C168.575 70.7179 168.135 70.8169 167.635 70.8169C167.224 70.8169 166.862 70.7622 166.549 70.6528C166.237 70.5382 165.971 70.3742 165.752 70.1606C165.539 69.9471 165.367 69.6919 165.237 69.395C165.112 69.0929 165.026 68.7544 164.979 68.3794V64.6294C165.026 64.2284 165.112 63.869 165.237 63.5513C165.367 63.2336 165.539 62.9627 165.752 62.7388C165.971 62.5148 166.234 62.3429 166.542 62.2231C166.849 62.1034 167.208 62.0435 167.62 62.0435C168.026 62.0435 168.39 62.1164 168.713 62.2622C169.042 62.4028 169.328 62.606 169.573 62.8716C169.823 63.1372 170.028 63.4575 170.19 63.8325C170.357 64.2023 170.482 64.619 170.565 65.0825C170.648 65.5461 170.69 66.0435 170.69 66.5747ZM169.245 66.7388V66.5747C169.245 66.2101 169.219 65.8638 169.167 65.5356C169.12 65.2023 169.044 64.8976 168.94 64.6216C168.841 64.3403 168.711 64.0955 168.549 63.8872C168.388 63.6789 168.193 63.5174 167.963 63.4028C167.739 63.2882 167.482 63.231 167.19 63.231C166.877 63.231 166.617 63.27 166.409 63.3481C166.206 63.4263 166.047 63.5304 165.932 63.6606C165.818 63.7856 165.734 63.9185 165.682 64.0591V68.9575C165.745 69.0721 165.836 69.1815 165.956 69.2856C166.075 69.3846 166.237 69.4679 166.44 69.5356C166.643 69.5981 166.898 69.6294 167.206 69.6294C167.57 69.6294 167.88 69.5565 168.135 69.4106C168.396 69.2596 168.607 69.0513 168.768 68.7856C168.935 68.52 169.055 68.2127 169.127 67.8638C169.206 67.5148 169.245 67.1398 169.245 66.7388ZM160.651 66.7388V66.5747C160.651 66.0435 160.693 65.5461 160.776 65.0825C160.859 64.619 160.984 64.2023 161.151 63.8325C161.318 63.4575 161.523 63.1372 161.768 62.8716C162.018 62.606 162.305 62.4028 162.627 62.2622C162.956 62.1164 163.323 62.0435 163.729 62.0435C164.13 62.0435 164.479 62.1034 164.776 62.2231C165.078 62.3429 165.333 62.5148 165.542 62.7388C165.75 62.9627 165.917 63.2336 166.042 63.5513C166.167 63.869 166.255 64.2284 166.307 64.6294V68.231C166.26 68.6268 166.174 68.9836 166.049 69.3013C165.924 69.619 165.758 69.8924 165.549 70.1216C165.341 70.3455 165.083 70.5174 164.776 70.6372C164.474 70.757 164.12 70.8169 163.713 70.8169C163.213 70.8169 162.773 70.7179 162.393 70.52C162.013 70.3169 161.693 70.033 161.432 69.6685C161.177 69.3039 160.982 68.8742 160.846 68.3794C160.716 67.8794 160.651 67.3325 160.651 66.7388ZM162.104 66.5747V66.7388C162.104 67.1398 162.138 67.5148 162.206 67.8638C162.278 68.2127 162.39 68.52 162.542 68.7856C162.698 69.0513 162.901 69.2596 163.151 69.4106C163.401 69.5565 163.708 69.6294 164.073 69.6294C164.385 69.6294 164.643 69.5903 164.846 69.5122C165.049 69.4341 165.211 69.3325 165.331 69.2075C165.45 69.0825 165.542 68.9523 165.604 68.8169V64.0591C165.552 63.9185 165.466 63.7856 165.346 63.6606C165.232 63.5304 165.073 63.4263 164.87 63.3481C164.667 63.27 164.406 63.231 164.088 63.231C163.724 63.231 163.414 63.3195 163.159 63.4966C162.903 63.6737 162.698 63.9159 162.542 64.2231C162.39 64.5304 162.278 64.8872 162.206 65.2935C162.138 65.6945 162.104 66.1216 162.104 66.5747ZM164.885 73.9028V58.6528H166.338V73.9028H164.885ZM172.198 66.52V66.3403C172.198 65.731 172.286 65.1659 172.463 64.645C172.64 64.119 172.896 63.6632 173.229 63.2778C173.562 62.8872 173.966 62.5851 174.44 62.3716C174.914 62.1528 175.445 62.0435 176.034 62.0435C176.627 62.0435 177.161 62.1528 177.635 62.3716C178.114 62.5851 178.521 62.8872 178.854 63.2778C179.193 63.6632 179.45 64.119 179.627 64.645C179.805 65.1659 179.893 65.731 179.893 66.3403V66.52C179.893 67.1294 179.805 67.6945 179.627 68.2153C179.45 68.7362 179.193 69.1919 178.854 69.5825C178.521 69.9679 178.117 70.27 177.643 70.4888C177.174 70.7023 176.643 70.8091 176.049 70.8091C175.456 70.8091 174.922 70.7023 174.448 70.4888C173.974 70.27 173.568 69.9679 173.229 69.5825C172.896 69.1919 172.64 68.7362 172.463 68.2153C172.286 67.6945 172.198 67.1294 172.198 66.52ZM173.643 66.3403V66.52C173.643 66.9419 173.693 67.3403 173.792 67.7153C173.89 68.0851 174.039 68.4132 174.237 68.6997C174.44 68.9862 174.693 69.2127 174.995 69.3794C175.297 69.5409 175.648 69.6216 176.049 69.6216C176.445 69.6216 176.792 69.5409 177.088 69.3794C177.39 69.2127 177.64 68.9862 177.838 68.6997C178.036 68.4132 178.185 68.0851 178.284 67.7153C178.388 67.3403 178.44 66.9419 178.44 66.52V66.3403C178.44 65.9237 178.388 65.5304 178.284 65.1606C178.185 64.7856 178.034 64.4549 177.831 64.1685C177.633 63.8768 177.383 63.6476 177.081 63.481C176.784 63.3143 176.435 63.231 176.034 63.231C175.638 63.231 175.289 63.3143 174.987 63.481C174.69 63.6476 174.44 63.8768 174.237 64.1685C174.039 64.4549 173.89 64.7856 173.792 65.1606C173.693 65.5304 173.643 65.9237 173.643 66.3403ZM185.674 66.9341H182.901L182.885 65.7778H185.151C185.599 65.7778 185.971 65.7336 186.268 65.645C186.57 65.5565 186.797 65.4237 186.948 65.2466C187.099 65.0695 187.174 64.8507 187.174 64.5903C187.174 64.3872 187.13 64.2101 187.042 64.0591C186.958 63.9028 186.831 63.7752 186.659 63.6763C186.487 63.5721 186.273 63.4966 186.018 63.4497C185.768 63.3976 185.474 63.3716 185.135 63.3716H183.284V70.6528H181.838V62.1997H185.135C185.672 62.1997 186.153 62.2466 186.581 62.3403C187.013 62.4341 187.38 62.5773 187.682 62.77C187.989 62.9575 188.224 63.1971 188.385 63.4888C188.547 63.7804 188.627 64.1242 188.627 64.52C188.627 64.7752 188.575 65.0174 188.471 65.2466C188.367 65.4757 188.213 65.6789 188.01 65.856C187.807 66.033 187.557 66.1789 187.26 66.2935C186.963 66.4028 186.622 66.4731 186.237 66.5044L185.674 66.9341ZM185.674 70.6528H182.377L183.096 69.481H185.674C186.075 69.481 186.409 69.4315 186.674 69.3325C186.94 69.2284 187.138 69.0825 187.268 68.895C187.403 68.7023 187.471 68.4731 187.471 68.2075C187.471 67.9419 187.403 67.7153 187.268 67.5278C187.138 67.3351 186.94 67.1893 186.674 67.0903C186.409 66.9862 186.075 66.9341 185.674 66.9341H183.479L183.495 65.7778H186.237L186.76 66.2153C187.224 66.2518 187.617 66.3664 187.94 66.5591C188.263 66.7518 188.508 66.9966 188.674 67.2935C188.841 67.5851 188.924 67.9028 188.924 68.2466C188.924 68.6424 188.849 68.9914 188.698 69.2935C188.552 69.5955 188.338 69.8481 188.057 70.0513C187.776 70.2492 187.435 70.4002 187.034 70.5044C186.633 70.6034 186.18 70.6528 185.674 70.6528ZM190.479 66.52V66.3403C190.479 65.731 190.568 65.1659 190.745 64.645C190.922 64.119 191.177 63.6632 191.51 63.2778C191.844 62.8872 192.247 62.5851 192.721 62.3716C193.195 62.1528 193.726 62.0435 194.315 62.0435C194.909 62.0435 195.443 62.1528 195.917 62.3716C196.396 62.5851 196.802 62.8872 197.135 63.2778C197.474 63.6632 197.732 64.119 197.909 64.645C198.086 65.1659 198.174 65.731 198.174 66.3403V66.52C198.174 67.1294 198.086 67.6945 197.909 68.2153C197.732 68.7362 197.474 69.1919 197.135 69.5825C196.802 69.9679 196.398 70.27 195.924 70.4888C195.456 70.7023 194.924 70.8091 194.331 70.8091C193.737 70.8091 193.203 70.7023 192.729 70.4888C192.255 70.27 191.849 69.9679 191.51 69.5825C191.177 69.1919 190.922 68.7362 190.745 68.2153C190.568 67.6945 190.479 67.1294 190.479 66.52ZM191.924 66.3403V66.52C191.924 66.9419 191.974 67.3403 192.073 67.7153C192.172 68.0851 192.32 68.4132 192.518 68.6997C192.721 68.9862 192.974 69.2127 193.276 69.3794C193.578 69.5409 193.93 69.6216 194.331 69.6216C194.726 69.6216 195.073 69.5409 195.37 69.3794C195.672 69.2127 195.922 68.9862 196.12 68.6997C196.318 68.4132 196.466 68.0851 196.565 67.7153C196.669 67.3403 196.721 66.9419 196.721 66.52V66.3403C196.721 65.9237 196.669 65.5304 196.565 65.1606C196.466 64.7856 196.315 64.4549 196.112 64.1685C195.914 63.8768 195.664 63.6476 195.362 63.481C195.065 63.3143 194.716 63.231 194.315 63.231C193.919 63.231 193.57 63.3143 193.268 63.481C192.971 63.6476 192.721 63.8768 192.518 64.1685C192.32 64.4549 192.172 64.7856 192.073 65.1606C191.974 65.5304 191.924 65.9237 191.924 66.3403ZM203.495 70.8091C202.906 70.8091 202.372 70.7101 201.893 70.5122C201.419 70.3091 201.01 70.0252 200.667 69.6606C200.328 69.2961 200.068 68.8638 199.885 68.3638C199.703 67.8638 199.612 67.3169 199.612 66.7231V66.395C199.612 65.7075 199.713 65.0955 199.917 64.5591C200.12 64.0174 200.396 63.5591 200.745 63.1841C201.094 62.8091 201.489 62.5252 201.932 62.3325C202.375 62.1398 202.833 62.0435 203.307 62.0435C203.911 62.0435 204.432 62.1476 204.87 62.356C205.312 62.5643 205.674 62.856 205.956 63.231C206.237 63.6007 206.445 64.0382 206.581 64.5435C206.716 65.0435 206.784 65.5903 206.784 66.1841V66.8325H200.471V65.6528H205.338V65.5435C205.318 65.1685 205.239 64.8039 205.104 64.4497C204.974 64.0955 204.765 63.8039 204.479 63.5747C204.193 63.3455 203.802 63.231 203.307 63.231C202.979 63.231 202.677 63.3013 202.401 63.4419C202.125 63.5773 201.888 63.7804 201.69 64.0513C201.492 64.3221 201.338 64.6528 201.229 65.0435C201.12 65.4341 201.065 65.8846 201.065 66.395V66.7231C201.065 67.1242 201.12 67.5018 201.229 67.856C201.344 68.2049 201.508 68.5122 201.721 68.7778C201.94 69.0435 202.203 69.2518 202.51 69.4028C202.823 69.5539 203.177 69.6294 203.573 69.6294C204.083 69.6294 204.515 69.5252 204.87 69.3169C205.224 69.1086 205.534 68.8299 205.799 68.481L206.674 69.1763C206.492 69.4523 206.26 69.7153 205.979 69.9653C205.698 70.2153 205.351 70.4185 204.94 70.5747C204.534 70.731 204.052 70.8091 203.495 70.8091ZM215.448 65.2231V66.4106H211.635V65.2231H215.448ZM61.4868 85.9341H58.7134L58.6978 84.7778H60.9634C61.4113 84.7778 61.7837 84.7336 62.0806 84.645C62.3826 84.5565 62.6092 84.4237 62.7603 84.2466C62.9113 84.0695 62.9868 83.8507 62.9868 83.5903C62.9868 83.3872 62.9425 83.2101 62.854 83.0591C62.7707 82.9028 62.6431 82.7752 62.4712 82.6763C62.2993 82.5721 62.0858 82.4966 61.8306 82.4497C61.5806 82.3976 61.2863 82.3716 60.9478 82.3716H59.0962V89.6528H57.6509V81.1997H60.9478C61.4842 81.1997 61.966 81.2466 62.3931 81.3403C62.8254 81.4341 63.1925 81.5773 63.4946 81.77C63.8019 81.9575 64.0363 82.1971 64.1978 82.4888C64.3592 82.7804 64.4399 83.1242 64.4399 83.52C64.4399 83.7752 64.3879 84.0174 64.2837 84.2466C64.1795 84.4757 64.0259 84.6789 63.8228 84.856C63.6196 85.033 63.3696 85.1789 63.0728 85.2935C62.7759 85.4028 62.4347 85.4731 62.0493 85.5044L61.4868 85.9341ZM61.4868 89.6528H58.1899L58.9087 88.481H61.4868C61.8879 88.481 62.2212 88.4315 62.4868 88.3325C62.7524 88.2284 62.9504 88.0825 63.0806 87.895C63.216 87.7023 63.2837 87.4731 63.2837 87.2075C63.2837 86.9419 63.216 86.7153 63.0806 86.5278C62.9504 86.3351 62.7524 86.1893 62.4868 86.0903C62.2212 85.9862 61.8879 85.9341 61.4868 85.9341H59.2915L59.3071 84.7778H62.0493L62.5728 85.2153C63.0363 85.2518 63.4295 85.3664 63.7524 85.5591C64.0754 85.7518 64.3201 85.9966 64.4868 86.2935C64.6535 86.5851 64.7368 86.9028 64.7368 87.2466C64.7368 87.6424 64.6613 87.9914 64.5103 88.2935C64.3644 88.5955 64.1509 88.8481 63.8696 89.0513C63.5884 89.2492 63.2472 89.4002 62.8462 89.5044C62.4451 89.6034 61.992 89.6528 61.4868 89.6528ZM66.2915 85.52V85.3403C66.2915 84.731 66.38 84.1659 66.5571 83.645C66.7342 83.119 66.9894 82.6632 67.3228 82.2778C67.6561 81.8872 68.0597 81.5851 68.5337 81.3716C69.0076 81.1528 69.5389 81.0435 70.1274 81.0435C70.7212 81.0435 71.255 81.1528 71.729 81.3716C72.2082 81.5851 72.6144 81.8872 72.9478 82.2778C73.2863 82.6632 73.5441 83.119 73.7212 83.645C73.8983 84.1659 73.9868 84.731 73.9868 85.3403V85.52C73.9868 86.1294 73.8983 86.6945 73.7212 87.2153C73.5441 87.7362 73.2863 88.1919 72.9478 88.5825C72.6144 88.9679 72.2108 89.27 71.7368 89.4888C71.2681 89.7023 70.7368 89.8091 70.1431 89.8091C69.5493 89.8091 69.0155 89.7023 68.5415 89.4888C68.0675 89.27 67.6613 88.9679 67.3228 88.5825C66.9894 88.1919 66.7342 87.7362 66.5571 87.2153C66.38 86.6945 66.2915 86.1294 66.2915 85.52ZM67.7368 85.3403V85.52C67.7368 85.9419 67.7863 86.3403 67.8853 86.7153C67.9842 87.0851 68.1326 87.4132 68.3306 87.6997C68.5337 87.9862 68.7863 88.2127 69.0884 88.3794C69.3905 88.5409 69.742 88.6216 70.1431 88.6216C70.5389 88.6216 70.8853 88.5409 71.1821 88.3794C71.4842 88.2127 71.7342 87.9862 71.9321 87.6997C72.13 87.4132 72.2785 87.0851 72.3774 86.7153C72.4816 86.3403 72.5337 85.9419 72.5337 85.52V85.3403C72.5337 84.9237 72.4816 84.5304 72.3774 84.1606C72.2785 83.7856 72.1274 83.4549 71.9243 83.1685C71.7264 82.8768 71.4764 82.6476 71.1743 82.481C70.8774 82.3143 70.5285 82.231 70.1274 82.231C69.7316 82.231 69.3826 82.3143 69.0806 82.481C68.7837 82.6476 68.5337 82.8768 68.3306 83.1685C68.1326 83.4549 67.9842 83.7856 67.8853 84.1606C67.7863 84.5304 67.7368 84.9237 67.7368 85.3403ZM78.9556 85.6138H77.4009V84.7231H78.8384C79.2394 84.7231 79.5571 84.6737 79.7915 84.5747C80.0259 84.4705 80.1925 84.3273 80.2915 84.145C80.3905 83.9627 80.4399 83.7492 80.4399 83.5044C80.4399 83.2856 80.3826 83.0799 80.2681 82.8872C80.1587 82.6893 79.9816 82.5304 79.7368 82.4106C79.492 82.2856 79.1639 82.2231 78.7524 82.2231C78.4191 82.2231 78.117 82.283 77.8462 82.4028C77.5754 82.5174 77.3592 82.6763 77.1978 82.8794C77.0415 83.0773 76.9634 83.3013 76.9634 83.5513H75.5181C75.5181 83.0356 75.6639 82.5929 75.9556 82.2231C76.2524 81.8481 76.6457 81.5591 77.1353 81.356C77.63 81.1528 78.1691 81.0513 78.7524 81.0513C79.242 81.0513 79.6795 81.106 80.0649 81.2153C80.4556 81.3195 80.7863 81.4757 81.0571 81.6841C81.328 81.8872 81.5337 82.1424 81.6743 82.4497C81.8201 82.7518 81.8931 83.1034 81.8931 83.5044C81.8931 83.7909 81.8254 84.0617 81.6899 84.3169C81.5545 84.5721 81.3592 84.7987 81.104 84.9966C80.8488 85.1893 80.5389 85.3403 80.1743 85.4497C79.8149 85.5591 79.4087 85.6138 78.9556 85.6138ZM77.4009 85.0669H78.9556C79.4608 85.0669 79.9061 85.1164 80.2915 85.2153C80.6769 85.3091 80.9998 85.4497 81.2603 85.6372C81.5207 85.8247 81.716 86.0565 81.8462 86.3325C81.9816 86.6034 82.0493 86.9159 82.0493 87.27C82.0493 87.6659 81.9686 88.0226 81.8071 88.3403C81.6509 88.6528 81.4269 88.9185 81.1353 89.1372C80.8436 89.356 80.4946 89.5226 80.0884 89.6372C79.6873 89.7518 79.242 89.8091 78.7524 89.8091C78.2056 89.8091 77.6743 89.7153 77.1587 89.5278C76.6431 89.3403 76.2186 89.0513 75.8853 88.6606C75.5519 88.2648 75.3853 87.7622 75.3853 87.1528H76.8306C76.8306 87.408 76.9113 87.6502 77.0728 87.8794C77.2342 88.1086 77.4582 88.2935 77.7446 88.4341C78.0363 88.5747 78.3722 88.645 78.7524 88.645C79.1587 88.645 79.4972 88.5825 79.7681 88.4575C80.0389 88.3325 80.242 88.1659 80.3774 87.9575C80.5181 87.7492 80.5884 87.5226 80.5884 87.2778C80.5884 86.9601 80.5259 86.7049 80.4009 86.5122C80.2759 86.3195 80.0832 86.1789 79.8228 86.0903C79.5675 85.9966 79.2394 85.9497 78.8384 85.9497H77.4009V85.0669ZM88.7837 87.731L91.6587 81.1997H93.0493L89.2837 89.6528H88.2837L84.5337 81.1997H85.9243L88.7837 87.731ZM85.5024 81.1997V89.6528H84.0571V81.1997H85.5024ZM92.0181 89.6528V81.1997H93.4712V89.6528H92.0181ZM95.4165 85.52V85.3403C95.4165 84.731 95.505 84.1659 95.6821 83.645C95.8592 83.119 96.1144 82.6632 96.4478 82.2778C96.7811 81.8872 97.1847 81.5851 97.6587 81.3716C98.1326 81.1528 98.6639 81.0435 99.2524 81.0435C99.8462 81.0435 100.38 81.1528 100.854 81.3716C101.333 81.5851 101.739 81.8872 102.073 82.2778C102.411 82.6632 102.669 83.119 102.846 83.645C103.023 84.1659 103.112 84.731 103.112 85.3403V85.52C103.112 86.1294 103.023 86.6945 102.846 87.2153C102.669 87.7362 102.411 88.1919 102.073 88.5825C101.739 88.9679 101.336 89.27 100.862 89.4888C100.393 89.7023 99.8618 89.8091 99.2681 89.8091C98.6743 89.8091 98.1405 89.7023 97.6665 89.4888C97.1925 89.27 96.7863 88.9679 96.4478 88.5825C96.1144 88.1919 95.8592 87.7362 95.6821 87.2153C95.505 86.6945 95.4165 86.1294 95.4165 85.52ZM96.8618 85.3403V85.52C96.8618 85.9419 96.9113 86.3403 97.0103 86.7153C97.1092 87.0851 97.2576 87.4132 97.4556 87.6997C97.6587 87.9862 97.9113 88.2127 98.2134 88.3794C98.5155 88.5409 98.867 88.6216 99.2681 88.6216C99.6639 88.6216 100.01 88.5409 100.307 88.3794C100.609 88.2127 100.859 87.9862 101.057 87.6997C101.255 87.4132 101.403 87.0851 101.502 86.7153C101.607 86.3403 101.659 85.9419 101.659 85.52V85.3403C101.659 84.9237 101.607 84.5304 101.502 84.1606C101.403 83.7856 101.252 83.4549 101.049 83.1685C100.851 82.8768 100.601 82.6476 100.299 82.481C100.002 82.3143 99.6535 82.231 99.2524 82.231C98.8566 82.231 98.5076 82.3143 98.2056 82.481C97.9087 82.6476 97.6587 82.8768 97.4556 83.1685C97.2576 83.4549 97.1092 83.7856 97.0103 84.1606C96.9113 84.5304 96.8618 84.9237 96.8618 85.3403ZM107.315 85.9731L104.112 81.1997H105.854L108.042 84.6997H109.729L109.518 85.9731H107.315ZM108.104 85.8247L105.651 89.6528H103.823L107.19 84.7778L108.104 85.8247ZM110.471 81.1997V89.6528H109.026V81.1997H110.471ZM115.401 81.1997L112.198 85.9731H109.995L109.768 84.6997H111.463L113.651 81.1997H115.401ZM113.854 89.6528L111.393 85.8247L112.323 84.7778L115.682 89.6528H113.854ZM122.752 84.8638V86.0356H118.284V84.8638H122.752ZM118.588 81.1997V89.6528H117.143V81.1997H118.588ZM123.924 81.1997V89.6528H122.471V81.1997H123.924ZM125.87 85.52V85.3403C125.87 84.731 125.958 84.1659 126.135 83.645C126.312 83.119 126.568 82.6632 126.901 82.2778C127.234 81.8872 127.638 81.5851 128.112 81.3716C128.586 81.1528 129.117 81.0435 129.706 81.0435C130.299 81.0435 130.833 81.1528 131.307 81.3716C131.786 81.5851 132.193 81.8872 132.526 82.2778C132.864 82.6632 133.122 83.119 133.299 83.645C133.476 84.1659 133.565 84.731 133.565 85.3403V85.52C133.565 86.1294 133.476 86.6945 133.299 87.2153C133.122 87.7362 132.864 88.1919 132.526 88.5825C132.193 88.9679 131.789 89.27 131.315 89.4888C130.846 89.7023 130.315 89.8091 129.721 89.8091C129.127 89.8091 128.594 89.7023 128.12 89.4888C127.646 89.27 127.239 88.9679 126.901 88.5825C126.568 88.1919 126.312 87.7362 126.135 87.2153C125.958 86.6945 125.87 86.1294 125.87 85.52ZM127.315 85.3403V85.52C127.315 85.9419 127.364 86.3403 127.463 86.7153C127.562 87.0851 127.711 87.4132 127.909 87.6997C128.112 87.9862 128.364 88.2127 128.667 88.3794C128.969 88.5409 129.32 88.6216 129.721 88.6216C130.117 88.6216 130.463 88.5409 130.76 88.3794C131.062 88.2127 131.312 87.9862 131.51 87.6997C131.708 87.4132 131.857 87.0851 131.956 86.7153C132.06 86.3403 132.112 85.9419 132.112 85.52V85.3403C132.112 84.9237 132.06 84.5304 131.956 84.1606C131.857 83.7856 131.706 83.4549 131.502 83.1685C131.305 82.8768 131.055 82.6476 130.752 82.481C130.456 82.3143 130.107 82.231 129.706 82.231C129.31 82.231 128.961 82.3143 128.659 82.481C128.362 82.6476 128.112 82.8768 127.909 83.1685C127.711 83.4549 127.562 83.7856 127.463 84.1606C127.364 84.5304 127.315 84.9237 127.315 85.3403ZM138.76 88.6216C139.104 88.6216 139.422 88.5513 139.713 88.4106C140.005 88.27 140.245 88.0773 140.432 87.8325C140.62 87.5825 140.726 87.2987 140.752 86.981H142.127C142.101 87.481 141.932 87.9471 141.62 88.3794C141.312 88.8065 140.909 89.1528 140.409 89.4185C139.909 89.6789 139.359 89.8091 138.76 89.8091C138.125 89.8091 137.57 89.6971 137.096 89.4731C136.627 89.2492 136.237 88.9419 135.924 88.5513C135.617 88.1606 135.385 87.7127 135.229 87.2075C135.078 86.6971 135.002 86.158 135.002 85.5903V85.2622C135.002 84.6945 135.078 84.158 135.229 83.6528C135.385 83.1424 135.617 82.6919 135.924 82.3013C136.237 81.9106 136.627 81.6034 137.096 81.3794C137.57 81.1554 138.125 81.0435 138.76 81.0435C139.422 81.0435 140 81.1789 140.495 81.4497C140.989 81.7153 141.377 82.0799 141.659 82.5435C141.945 83.0018 142.101 83.5226 142.127 84.106H140.752C140.726 83.757 140.627 83.4419 140.456 83.1606C140.289 82.8794 140.06 82.6554 139.768 82.4888C139.482 82.3169 139.146 82.231 138.76 82.231C138.318 82.231 137.945 82.3195 137.643 82.4966C137.346 82.6685 137.109 82.9028 136.932 83.1997C136.76 83.4914 136.635 83.8169 136.557 84.1763C136.484 84.5304 136.448 84.8924 136.448 85.2622V85.5903C136.448 85.9601 136.484 86.3247 136.557 86.6841C136.63 87.0435 136.752 87.369 136.924 87.6606C137.101 87.9523 137.338 88.1867 137.635 88.3638C137.937 88.5356 138.312 88.6216 138.76 88.6216ZM147.198 81.1997V89.6528H145.745V81.1997H147.198ZM150.034 81.1997V82.3716H142.963V81.1997H150.034ZM152.643 84.106H155.182C155.864 84.106 156.44 84.2257 156.909 84.4653C157.377 84.6997 157.732 85.0252 157.971 85.4419C158.216 85.8534 158.338 86.3221 158.338 86.8481C158.338 87.2388 158.271 87.606 158.135 87.9497C158 88.2882 157.797 88.5851 157.526 88.8403C157.26 89.0955 156.93 89.2961 156.534 89.4419C156.143 89.5825 155.693 89.6528 155.182 89.6528H151.588V81.1997H153.034V88.4653H155.182C155.599 88.4653 155.932 88.3898 156.182 88.2388C156.432 88.0877 156.612 87.8924 156.721 87.6528C156.831 87.4132 156.885 87.1632 156.885 86.9028C156.885 86.6476 156.831 86.3976 156.721 86.1528C156.612 85.908 156.432 85.7049 156.182 85.5435C155.932 85.3768 155.599 85.2935 155.182 85.2935H152.643V84.106ZM167.073 82.231C166.755 82.231 166.45 82.3013 166.159 82.4419C165.872 82.5825 165.635 82.7778 165.448 83.0278C165.265 83.2726 165.174 83.5565 165.174 83.8794H163.792C163.792 83.3742 163.948 82.908 164.26 82.481C164.573 82.0487 164.979 81.7023 165.479 81.4419C165.979 81.1763 166.51 81.0435 167.073 81.0435C167.667 81.0435 168.193 81.1554 168.651 81.3794C169.109 81.6034 169.495 81.9106 169.807 82.3013C170.125 82.6919 170.364 83.1424 170.526 83.6528C170.687 84.158 170.768 84.6945 170.768 85.2622V85.5903C170.768 86.158 170.685 86.6971 170.518 87.2075C170.357 87.7127 170.117 88.1632 169.799 88.5591C169.487 88.9497 169.101 89.257 168.643 89.481C168.19 89.7049 167.669 89.8169 167.081 89.8169C166.45 89.8169 165.885 89.6815 165.385 89.4106C164.89 89.1398 164.5 88.7752 164.213 88.3169C163.932 87.8534 163.792 87.3325 163.792 86.7544H165.174C165.174 87.1034 165.258 87.4211 165.424 87.7075C165.596 87.9888 165.825 88.2127 166.112 88.3794C166.398 88.5461 166.721 88.6294 167.081 88.6294C167.471 88.6294 167.807 88.5409 168.088 88.3638C168.375 88.1867 168.609 87.9523 168.792 87.6606C168.974 87.369 169.107 87.0435 169.19 86.6841C169.278 86.3195 169.323 85.9549 169.323 85.5903V85.2622C169.323 84.8924 169.278 84.5278 169.19 84.1685C169.107 83.8091 168.974 83.4836 168.792 83.1919C168.614 82.9002 168.383 82.6685 168.096 82.4966C167.815 82.3195 167.474 82.231 167.073 82.231ZM170.026 84.7544V85.9341H166.127V84.7544H170.026ZM176.69 85.9341H173.917L173.901 84.7778H176.167C176.614 84.7778 176.987 84.7336 177.284 84.645C177.586 84.5565 177.812 84.4237 177.963 84.2466C178.114 84.0695 178.19 83.8507 178.19 83.5903C178.19 83.3872 178.146 83.2101 178.057 83.0591C177.974 82.9028 177.846 82.7752 177.674 82.6763C177.502 82.5721 177.289 82.4966 177.034 82.4497C176.784 82.3976 176.489 82.3716 176.151 82.3716H174.299V89.6528H172.854V81.1997H176.151C176.687 81.1997 177.169 81.2466 177.596 81.3403C178.028 81.4341 178.396 81.5773 178.698 81.77C179.005 81.9575 179.239 82.1971 179.401 82.4888C179.562 82.7804 179.643 83.1242 179.643 83.52C179.643 83.7752 179.591 84.0174 179.487 84.2466C179.383 84.4757 179.229 84.6789 179.026 84.856C178.823 85.033 178.573 85.1789 178.276 85.2935C177.979 85.4028 177.638 85.4731 177.252 85.5044L176.69 85.9341ZM176.69 89.6528H173.393L174.112 88.481H176.69C177.091 88.481 177.424 88.4315 177.69 88.3325C177.956 88.2284 178.153 88.0825 178.284 87.895C178.419 87.7023 178.487 87.4731 178.487 87.2075C178.487 86.9419 178.419 86.7153 178.284 86.5278C178.153 86.3351 177.956 86.1893 177.69 86.0903C177.424 85.9862 177.091 85.9341 176.69 85.9341H174.495L174.51 84.7778H177.252L177.776 85.2153C178.239 85.2518 178.633 85.3664 178.956 85.5591C179.278 85.7518 179.523 85.9966 179.69 86.2935C179.857 86.5851 179.94 86.9028 179.94 87.2466C179.94 87.6424 179.864 87.9914 179.713 88.2935C179.568 88.5955 179.354 88.8481 179.073 89.0513C178.792 89.2492 178.45 89.4002 178.049 89.5044C177.648 89.6034 177.195 89.6528 176.69 89.6528ZM181.495 85.52V85.3403C181.495 84.731 181.583 84.1659 181.76 83.645C181.937 83.119 182.193 82.6632 182.526 82.2778C182.859 81.8872 183.263 81.5851 183.737 81.3716C184.211 81.1528 184.742 81.0435 185.331 81.0435C185.924 81.0435 186.458 81.1528 186.932 81.3716C187.411 81.5851 187.818 81.8872 188.151 82.2778C188.489 82.6632 188.747 83.119 188.924 83.645C189.101 84.1659 189.19 84.731 189.19 85.3403V85.52C189.19 86.1294 189.101 86.6945 188.924 87.2153C188.747 87.7362 188.489 88.1919 188.151 88.5825C187.818 88.9679 187.414 89.27 186.94 89.4888C186.471 89.7023 185.94 89.8091 185.346 89.8091C184.752 89.8091 184.219 89.7023 183.745 89.4888C183.271 89.27 182.864 88.9679 182.526 88.5825C182.193 88.1919 181.937 87.7362 181.76 87.2153C181.583 86.6945 181.495 86.1294 181.495 85.52ZM182.94 85.3403V85.52C182.94 85.9419 182.989 86.3403 183.088 86.7153C183.187 87.0851 183.336 87.4132 183.534 87.6997C183.737 87.9862 183.989 88.2127 184.292 88.3794C184.594 88.5409 184.945 88.6216 185.346 88.6216C185.742 88.6216 186.088 88.5409 186.385 88.3794C186.687 88.2127 186.937 87.9862 187.135 87.6997C187.333 87.4132 187.482 87.0851 187.581 86.7153C187.685 86.3403 187.737 85.9419 187.737 85.52V85.3403C187.737 84.9237 187.685 84.5304 187.581 84.1606C187.482 83.7856 187.331 83.4549 187.127 83.1685C186.93 82.8768 186.68 82.6476 186.377 82.481C186.081 82.3143 185.732 82.231 185.331 82.231C184.935 82.231 184.586 82.3143 184.284 82.481C183.987 82.6476 183.737 82.8768 183.534 83.1685C183.336 83.4549 183.187 83.7856 183.088 84.1606C182.989 84.5304 182.94 84.9237 182.94 85.3403ZM196.526 81.1997V82.395H192.44V81.1997H196.526ZM197.799 81.1997V89.6528H196.354V81.1997H197.799ZM192.088 81.1997H193.542L193.323 85.2778C193.286 85.908 193.226 86.4653 193.143 86.9497C193.065 87.4289 192.956 87.8403 192.815 88.1841C192.68 88.5278 192.508 88.8091 192.299 89.0278C192.096 89.2414 191.851 89.4002 191.565 89.5044C191.278 89.6034 190.948 89.6528 190.573 89.6528H190.12V88.3794L190.432 88.356C190.656 88.3403 190.846 88.2882 191.002 88.1997C191.164 88.1112 191.299 87.981 191.409 87.8091C191.518 87.632 191.607 87.4054 191.674 87.1294C191.747 86.8534 191.802 86.5252 191.838 86.145C191.88 85.7648 191.911 85.3221 191.932 84.8169L192.088 81.1997ZM204.94 84.7856V85.9653H200.448V84.7856H204.94ZM201.706 81.1997V89.6528H200.26V81.1997H201.706ZM203.706 85.52V85.3403C203.706 84.731 203.794 84.1659 203.971 83.645C204.148 83.119 204.403 82.6632 204.737 82.2778C205.075 81.8872 205.479 81.5851 205.948 81.3716C206.422 81.1528 206.953 81.0435 207.542 81.0435C208.14 81.0435 208.677 81.1528 209.151 81.3716C209.625 81.5851 210.028 81.8872 210.362 82.2778C210.7 82.6632 210.958 83.119 211.135 83.645C211.312 84.1659 211.401 84.731 211.401 85.3403V85.52C211.401 86.1294 211.312 86.6945 211.135 87.2153C210.958 87.7362 210.703 88.1919 210.37 88.5825C210.036 88.9679 209.633 89.27 209.159 89.4888C208.685 89.7023 208.151 89.8091 207.557 89.8091C206.963 89.8091 206.43 89.7023 205.956 89.4888C205.482 89.27 205.075 88.9679 204.737 88.5825C204.403 88.1919 204.148 87.7362 203.971 87.2153C203.794 86.6945 203.706 86.1294 203.706 85.52ZM205.159 85.3403V85.52C205.159 85.9419 205.208 86.3403 205.307 86.7153C205.406 87.0851 205.555 87.4132 205.752 87.6997C205.956 87.9862 206.206 88.2127 206.502 88.3794C206.805 88.5409 207.156 88.6216 207.557 88.6216C207.958 88.6216 208.307 88.5409 208.604 88.3794C208.906 88.2127 209.156 87.9862 209.354 87.6997C209.552 87.4132 209.7 87.0851 209.799 86.7153C209.903 86.3403 209.956 85.9419 209.956 85.52V85.3403C209.956 84.9237 209.903 84.5304 209.799 84.1606C209.7 83.7856 209.549 83.4549 209.346 83.1685C209.148 82.8768 208.898 82.6476 208.596 82.481C208.294 82.3143 207.943 82.231 207.542 82.231C207.146 82.231 206.799 82.3143 206.502 82.481C206.206 82.6476 205.956 82.8768 205.752 83.1685C205.555 83.4549 205.406 83.7856 205.307 84.1606C205.208 84.5304 205.159 84.9237 205.159 85.3403ZM213.315 89.6528V81.1997H214.76V88.4653H218.651V81.1997H220.104V89.6528H213.315ZM221.104 88.4653L220.963 92.1606H219.674V89.6528H218.573V88.4653H221.104ZM224.237 87.3638L228.135 81.1997H229.588V89.6528H228.135V83.4888L224.237 89.6528H222.799V81.1997H224.237V87.3638ZM233.471 87.3638L237.37 81.1997H238.823V89.6528H237.37V83.4888L233.471 89.6528H232.034V81.1997H233.471V87.3638ZM54.8228 100.2V108.653H53.3696V100.2H54.8228ZM57.6587 100.2V101.372H50.5884V100.2H57.6587ZM63.0493 104.934H60.2759L60.2603 103.778H62.5259C62.9738 103.778 63.3462 103.734 63.6431 103.645C63.9451 103.556 64.1717 103.424 64.3228 103.247C64.4738 103.069 64.5493 102.851 64.5493 102.59C64.5493 102.387 64.505 102.21 64.4165 102.059C64.3332 101.903 64.2056 101.775 64.0337 101.676C63.8618 101.572 63.6483 101.497 63.3931 101.45C63.1431 101.398 62.8488 101.372 62.5103 101.372H60.6587V108.653H59.2134V100.2H62.5103C63.0467 100.2 63.5285 100.247 63.9556 100.34C64.3879 100.434 64.755 100.577 65.0571 100.77C65.3644 100.958 65.5988 101.197 65.7603 101.489C65.9217 101.78 66.0024 102.124 66.0024 102.52C66.0024 102.775 65.9504 103.017 65.8462 103.247C65.742 103.476 65.5884 103.679 65.3853 103.856C65.1821 104.033 64.9321 104.179 64.6353 104.293C64.3384 104.403 63.9972 104.473 63.6118 104.504L63.0493 104.934ZM63.0493 108.653H59.7524L60.4712 107.481H63.0493C63.4504 107.481 63.7837 107.431 64.0493 107.333C64.3149 107.228 64.5129 107.083 64.6431 106.895C64.7785 106.702 64.8462 106.473 64.8462 106.208C64.8462 105.942 64.7785 105.715 64.6431 105.528C64.5129 105.335 64.3149 105.189 64.0493 105.09C63.7837 104.986 63.4504 104.934 63.0493 104.934H60.854L60.8696 103.778H63.6118L64.1353 104.215C64.5988 104.252 64.992 104.366 65.3149 104.559C65.6379 104.752 65.8826 104.997 66.0493 105.293C66.216 105.585 66.2993 105.903 66.2993 106.247C66.2993 106.642 66.2238 106.991 66.0728 107.293C65.9269 107.596 65.7134 107.848 65.4321 108.051C65.1509 108.249 64.8097 108.4 64.4087 108.504C64.0076 108.603 63.5545 108.653 63.0493 108.653ZM67.854 104.52V104.34C67.854 103.731 67.9425 103.166 68.1196 102.645C68.2967 102.119 68.5519 101.663 68.8853 101.278C69.2186 100.887 69.6222 100.585 70.0962 100.372C70.5701 100.153 71.1014 100.043 71.6899 100.043C72.2837 100.043 72.8175 100.153 73.2915 100.372C73.7707 100.585 74.1769 100.887 74.5103 101.278C74.8488 101.663 75.1066 102.119 75.2837 102.645C75.4608 103.166 75.5493 103.731 75.5493 104.34V104.52C75.5493 105.129 75.4608 105.694 75.2837 106.215C75.1066 106.736 74.8488 107.192 74.5103 107.583C74.1769 107.968 73.7733 108.27 73.2993 108.489C72.8306 108.702 72.2993 108.809 71.7056 108.809C71.1118 108.809 70.578 108.702 70.104 108.489C69.63 108.27 69.2238 107.968 68.8853 107.583C68.5519 107.192 68.2967 106.736 68.1196 106.215C67.9425 105.694 67.854 105.129 67.854 104.52ZM69.2993 104.34V104.52C69.2993 104.942 69.3488 105.34 69.4478 105.715C69.5467 106.085 69.6951 106.413 69.8931 106.7C70.0962 106.986 70.3488 107.213 70.6509 107.379C70.953 107.541 71.3045 107.622 71.7056 107.622C72.1014 107.622 72.4478 107.541 72.7446 107.379C73.0467 107.213 73.2967 106.986 73.4946 106.7C73.6925 106.413 73.841 106.085 73.9399 105.715C74.0441 105.34 74.0962 104.942 74.0962 104.52V104.34C74.0962 103.924 74.0441 103.53 73.9399 103.161C73.841 102.786 73.6899 102.455 73.4868 102.168C73.2889 101.877 73.0389 101.648 72.7368 101.481C72.4399 101.314 72.091 101.231 71.6899 101.231C71.2941 101.231 70.9451 101.314 70.6431 101.481C70.3462 101.648 70.0962 101.877 69.8931 102.168C69.6951 102.455 69.5467 102.786 69.4478 103.161C69.3488 103.53 69.2993 103.924 69.2993 104.34ZM80.8696 108.809C80.2811 108.809 79.7472 108.71 79.2681 108.512C78.7941 108.309 78.3853 108.025 78.0415 107.661C77.703 107.296 77.4425 106.864 77.2603 106.364C77.078 105.864 76.9868 105.317 76.9868 104.723V104.395C76.9868 103.708 77.0884 103.096 77.2915 102.559C77.4946 102.017 77.7707 101.559 78.1196 101.184C78.4686 100.809 78.8644 100.525 79.3071 100.333C79.7498 100.14 80.2082 100.043 80.6821 100.043C81.2863 100.043 81.8071 100.148 82.2446 100.356C82.6873 100.564 83.0493 100.856 83.3306 101.231C83.6118 101.601 83.8201 102.038 83.9556 102.543C84.091 103.043 84.1587 103.59 84.1587 104.184V104.833H77.8462V103.653H82.7134V103.543C82.6925 103.168 82.6144 102.804 82.479 102.45C82.3488 102.096 82.1405 101.804 81.854 101.575C81.5675 101.346 81.1769 101.231 80.6821 101.231C80.354 101.231 80.0519 101.301 79.7759 101.442C79.4998 101.577 79.2629 101.78 79.0649 102.051C78.867 102.322 78.7134 102.653 78.604 103.043C78.4946 103.434 78.4399 103.885 78.4399 104.395V104.723C78.4399 105.124 78.4946 105.502 78.604 105.856C78.7186 106.205 78.8826 106.512 79.0962 106.778C79.3149 107.043 79.578 107.252 79.8853 107.403C80.1978 107.554 80.5519 107.629 80.9478 107.629C81.4582 107.629 81.8905 107.525 82.2446 107.317C82.5988 107.109 82.9087 106.83 83.1743 106.481L84.0493 107.176C83.867 107.452 83.6353 107.715 83.354 107.965C83.0728 108.215 82.7264 108.418 82.3149 108.575C81.9087 108.731 81.4269 108.809 80.8696 108.809ZM87.4087 106.364L91.3071 100.2H92.7603V108.653H91.3071V102.489L87.4087 108.653H85.9712V100.2H87.4087V106.364ZM90.5181 97.1372H91.6899C91.6899 97.5435 91.5962 97.9054 91.4087 98.2231C91.2212 98.5356 90.953 98.7804 90.604 98.9575C90.255 99.1346 89.841 99.2231 89.3618 99.2231C88.6379 99.2231 88.0649 99.0304 87.6431 98.645C87.2264 98.2544 87.0181 97.7518 87.0181 97.1372H88.1899C88.1899 97.4445 88.2785 97.7153 88.4556 97.9497C88.6326 98.1841 88.9347 98.3013 89.3618 98.3013C89.7785 98.3013 90.0754 98.1841 90.2524 97.9497C90.4295 97.7153 90.5181 97.4445 90.5181 97.1372ZM108.018 97.2778V108.653H106.502L100.776 99.8794V108.653H99.2681V97.2778H100.776L106.526 106.075V97.2778H108.018ZM112.198 97.2778V108.653H110.69V97.2778H112.198ZM116.963 102.395V103.629H111.87V102.395H116.963ZM117.737 97.2778V98.5122H111.87V97.2778H117.737ZM123.893 97.2778V108.653H122.409V97.2778H123.893ZM127.549 97.2778V98.5122H118.76V97.2778H127.549ZM138.096 96.52H139.284C139.284 97.0304 139.206 97.4367 139.049 97.7388C138.893 98.0356 138.68 98.2648 138.409 98.4263C138.143 98.5877 137.841 98.7101 137.502 98.7935C137.169 98.8768 136.823 98.9575 136.463 99.0356C136.015 99.1294 135.599 99.2778 135.213 99.481C134.833 99.6789 134.505 99.9601 134.229 100.325C133.958 100.689 133.758 101.163 133.627 101.747C133.502 102.33 133.469 103.051 133.526 103.911V104.629H132.338V103.911C132.338 102.947 132.43 102.106 132.612 101.387C132.799 100.668 133.062 100.062 133.401 99.5669C133.739 99.0721 134.14 98.6789 134.604 98.3872C135.073 98.0955 135.588 97.895 136.151 97.7856C136.557 97.7075 136.906 97.6242 137.198 97.5356C137.489 97.4419 137.711 97.3169 137.862 97.1606C138.018 97.0044 138.096 96.7909 138.096 96.52ZM136.385 100.684C136.937 100.684 137.43 100.78 137.862 100.973C138.294 101.166 138.661 101.434 138.963 101.778C139.265 102.122 139.495 102.528 139.651 102.997C139.812 103.46 139.893 103.965 139.893 104.512V104.684C139.893 105.273 139.807 105.819 139.635 106.325C139.469 106.825 139.221 107.262 138.893 107.637C138.57 108.007 138.174 108.296 137.706 108.504C137.242 108.713 136.713 108.817 136.12 108.817C135.526 108.817 134.995 108.713 134.526 108.504C134.062 108.296 133.667 108.007 133.338 107.637C133.01 107.262 132.76 106.825 132.588 106.325C132.422 105.819 132.338 105.273 132.338 104.684V104.512C132.338 104.382 132.362 104.254 132.409 104.129C132.456 104.004 132.513 103.877 132.581 103.747C132.653 103.616 132.719 103.478 132.776 103.333C132.969 102.864 133.232 102.429 133.565 102.028C133.903 101.627 134.307 101.304 134.776 101.059C135.25 100.809 135.786 100.684 136.385 100.684ZM136.104 101.864C135.573 101.864 135.135 101.986 134.792 102.231C134.453 102.476 134.2 102.801 134.034 103.208C133.867 103.609 133.784 104.043 133.784 104.512V104.684C133.784 105.08 133.831 105.455 133.924 105.809C134.018 106.163 134.159 106.478 134.346 106.754C134.539 107.025 134.781 107.239 135.073 107.395C135.37 107.551 135.719 107.629 136.12 107.629C136.521 107.629 136.867 107.551 137.159 107.395C137.45 107.239 137.69 107.025 137.877 106.754C138.065 106.478 138.206 106.163 138.299 105.809C138.393 105.455 138.44 105.08 138.44 104.684V104.512C138.44 104.158 138.393 103.822 138.299 103.504C138.206 103.187 138.062 102.905 137.87 102.661C137.682 102.416 137.44 102.223 137.143 102.083C136.851 101.937 136.505 101.864 136.104 101.864ZM147.182 100.2V101.395H143.096V100.2H147.182ZM148.456 100.2V108.653H147.01V100.2H148.456ZM142.745 100.2H144.198L143.979 104.278C143.943 104.908 143.883 105.465 143.799 105.95C143.721 106.429 143.612 106.84 143.471 107.184C143.336 107.528 143.164 107.809 142.956 108.028C142.752 108.241 142.508 108.4 142.221 108.504C141.935 108.603 141.604 108.653 141.229 108.653H140.776V107.379L141.088 107.356C141.312 107.34 141.502 107.288 141.659 107.2C141.82 107.111 141.956 106.981 142.065 106.809C142.174 106.632 142.263 106.405 142.331 106.129C142.403 105.853 142.458 105.525 142.495 105.145C142.536 104.765 142.568 104.322 142.588 103.817L142.745 100.2ZM155.768 107.208V102.856C155.768 102.523 155.7 102.234 155.565 101.989C155.435 101.739 155.237 101.546 154.971 101.411C154.706 101.275 154.377 101.208 153.987 101.208C153.622 101.208 153.302 101.27 153.026 101.395C152.755 101.52 152.542 101.684 152.385 101.887C152.234 102.09 152.159 102.309 152.159 102.543H150.713C150.713 102.241 150.792 101.942 150.948 101.645C151.104 101.348 151.328 101.08 151.62 100.84C151.917 100.596 152.271 100.403 152.682 100.262C153.099 100.116 153.562 100.043 154.073 100.043C154.687 100.043 155.229 100.148 155.698 100.356C156.172 100.564 156.542 100.879 156.807 101.301C157.078 101.718 157.213 102.241 157.213 102.872V106.809C157.213 107.09 157.237 107.39 157.284 107.708C157.336 108.025 157.411 108.299 157.51 108.528V108.653H156.002C155.93 108.486 155.872 108.265 155.831 107.989C155.789 107.708 155.768 107.447 155.768 107.208ZM156.018 103.528L156.034 104.543H154.573C154.161 104.543 153.794 104.577 153.471 104.645C153.148 104.708 152.877 104.804 152.659 104.934C152.44 105.064 152.273 105.228 152.159 105.426C152.044 105.619 151.987 105.846 151.987 106.106C151.987 106.372 152.047 106.614 152.167 106.833C152.286 107.051 152.466 107.226 152.706 107.356C152.95 107.481 153.25 107.543 153.604 107.543C154.047 107.543 154.437 107.45 154.776 107.262C155.114 107.075 155.383 106.846 155.581 106.575C155.784 106.304 155.893 106.041 155.909 105.786L156.526 106.481C156.489 106.7 156.39 106.942 156.229 107.208C156.068 107.473 155.851 107.728 155.581 107.973C155.315 108.213 154.997 108.413 154.627 108.575C154.263 108.731 153.851 108.809 153.393 108.809C152.82 108.809 152.318 108.697 151.885 108.473C151.458 108.249 151.125 107.95 150.885 107.575C150.651 107.194 150.534 106.77 150.534 106.301C150.534 105.848 150.622 105.45 150.799 105.106C150.976 104.757 151.232 104.468 151.565 104.239C151.898 104.004 152.299 103.827 152.768 103.708C153.237 103.588 153.76 103.528 154.338 103.528H156.018ZM164.948 100.2V101.395H161.042V108.653H159.596V100.2H164.948ZM165.667 104.52V104.34C165.667 103.731 165.755 103.166 165.932 102.645C166.109 102.119 166.364 101.663 166.698 101.278C167.031 100.887 167.435 100.585 167.909 100.372C168.383 100.153 168.914 100.043 169.502 100.043C170.096 100.043 170.63 100.153 171.104 100.372C171.583 100.585 171.989 100.887 172.323 101.278C172.661 101.663 172.919 102.119 173.096 102.645C173.273 103.166 173.362 103.731 173.362 104.34V104.52C173.362 105.129 173.273 105.694 173.096 106.215C172.919 106.736 172.661 107.192 172.323 107.583C171.989 107.968 171.586 108.27 171.112 108.489C170.643 108.702 170.112 108.809 169.518 108.809C168.924 108.809 168.39 108.702 167.917 108.489C167.443 108.27 167.036 107.968 166.698 107.583C166.364 107.192 166.109 106.736 165.932 106.215C165.755 105.694 165.667 105.129 165.667 104.52ZM167.112 104.34V104.52C167.112 104.942 167.161 105.34 167.26 105.715C167.359 106.085 167.508 106.413 167.706 106.7C167.909 106.986 168.161 107.213 168.463 107.379C168.765 107.541 169.117 107.622 169.518 107.622C169.914 107.622 170.26 107.541 170.557 107.379C170.859 107.213 171.109 106.986 171.307 106.7C171.505 106.413 171.653 106.085 171.752 105.715C171.857 105.34 171.909 104.942 171.909 104.52V104.34C171.909 103.924 171.857 103.53 171.752 103.161C171.653 102.786 171.502 102.455 171.299 102.168C171.101 101.877 170.851 101.648 170.549 101.481C170.252 101.314 169.903 101.231 169.502 101.231C169.107 101.231 168.758 101.314 168.456 101.481C168.159 101.648 167.909 101.877 167.706 102.168C167.508 102.455 167.359 102.786 167.26 103.161C167.161 103.53 167.112 103.924 167.112 104.34ZM176.135 100.2H177.581L177.456 103.364C177.424 104.166 177.333 104.859 177.182 105.442C177.031 106.025 176.838 106.523 176.604 106.934C176.37 107.34 176.107 107.681 175.815 107.958C175.528 108.234 175.232 108.465 174.924 108.653H174.206L174.245 107.473L174.542 107.465C174.713 107.262 174.88 107.054 175.042 106.84C175.203 106.622 175.351 106.364 175.487 106.067C175.622 105.765 175.734 105.398 175.823 104.965C175.917 104.528 175.976 103.994 176.002 103.364L176.135 100.2ZM176.495 100.2H181.581V108.653H180.135V101.536H176.495V100.2ZM173.877 107.465H182.667V111.145H181.221V108.653H175.323V111.145H173.87L173.877 107.465ZM189.252 107.208V102.856C189.252 102.523 189.185 102.234 189.049 101.989C188.919 101.739 188.721 101.546 188.456 101.411C188.19 101.275 187.862 101.208 187.471 101.208C187.107 101.208 186.786 101.27 186.51 101.395C186.239 101.52 186.026 101.684 185.87 101.887C185.719 102.09 185.643 102.309 185.643 102.543H184.198C184.198 102.241 184.276 101.942 184.432 101.645C184.588 101.348 184.812 101.08 185.104 100.84C185.401 100.596 185.755 100.403 186.167 100.262C186.583 100.116 187.047 100.043 187.557 100.043C188.172 100.043 188.713 100.148 189.182 100.356C189.656 100.564 190.026 100.879 190.292 101.301C190.562 101.718 190.698 102.241 190.698 102.872V106.809C190.698 107.09 190.721 107.39 190.768 107.708C190.82 108.025 190.896 108.299 190.995 108.528V108.653H189.487C189.414 108.486 189.357 108.265 189.315 107.989C189.273 107.708 189.252 107.447 189.252 107.208ZM189.502 103.528L189.518 104.543H188.057C187.646 104.543 187.278 104.577 186.956 104.645C186.633 104.708 186.362 104.804 186.143 104.934C185.924 105.064 185.758 105.228 185.643 105.426C185.528 105.619 185.471 105.846 185.471 106.106C185.471 106.372 185.531 106.614 185.651 106.833C185.771 107.051 185.95 107.226 186.19 107.356C186.435 107.481 186.734 107.543 187.088 107.543C187.531 107.543 187.922 107.45 188.26 107.262C188.599 107.075 188.867 106.846 189.065 106.575C189.268 106.304 189.377 106.041 189.393 105.786L190.01 106.481C189.974 106.7 189.875 106.942 189.713 107.208C189.552 107.473 189.336 107.728 189.065 107.973C188.799 108.213 188.482 108.413 188.112 108.575C187.747 108.731 187.336 108.809 186.877 108.809C186.305 108.809 185.802 108.697 185.37 108.473C184.943 108.249 184.609 107.95 184.37 107.575C184.135 107.194 184.018 106.77 184.018 106.301C184.018 105.848 184.107 105.45 184.284 105.106C184.461 104.757 184.716 104.468 185.049 104.239C185.383 104.004 185.784 103.827 186.252 103.708C186.721 103.588 187.245 103.528 187.823 103.528H189.502ZM194.417 101.825V111.903H192.963V100.2H194.292L194.417 101.825ZM200.112 104.356V104.52C200.112 105.135 200.039 105.705 199.893 106.231C199.747 106.752 199.534 107.205 199.252 107.59C198.976 107.976 198.635 108.275 198.229 108.489C197.823 108.702 197.357 108.809 196.831 108.809C196.294 108.809 195.82 108.721 195.409 108.543C194.997 108.366 194.648 108.109 194.362 107.77C194.075 107.431 193.846 107.025 193.674 106.551C193.508 106.077 193.393 105.543 193.331 104.95V104.075C193.393 103.45 193.51 102.89 193.682 102.395C193.854 101.9 194.081 101.478 194.362 101.129C194.648 100.775 194.995 100.507 195.401 100.325C195.807 100.137 196.276 100.043 196.807 100.043C197.338 100.043 197.81 100.148 198.221 100.356C198.633 100.559 198.979 100.851 199.26 101.231C199.542 101.611 199.752 102.067 199.893 102.598C200.039 103.124 200.112 103.71 200.112 104.356ZM198.659 104.52V104.356C198.659 103.934 198.614 103.538 198.526 103.168C198.437 102.793 198.299 102.465 198.112 102.184C197.93 101.898 197.695 101.674 197.409 101.512C197.122 101.346 196.781 101.262 196.385 101.262C196.021 101.262 195.703 101.325 195.432 101.45C195.167 101.575 194.94 101.744 194.752 101.958C194.565 102.166 194.411 102.405 194.292 102.676C194.177 102.942 194.091 103.218 194.034 103.504V105.528C194.138 105.892 194.284 106.236 194.471 106.559C194.659 106.877 194.909 107.135 195.221 107.333C195.534 107.525 195.927 107.622 196.401 107.622C196.792 107.622 197.127 107.541 197.409 107.379C197.695 107.213 197.93 106.986 198.112 106.7C198.299 106.413 198.437 106.085 198.526 105.715C198.614 105.34 198.659 104.942 198.659 104.52ZM203.667 104.622H205.229L202.784 108.653H201.221L203.667 104.622ZM204.877 100.2H208.409V108.653H206.963V101.372H204.877C204.466 101.372 204.13 101.442 203.87 101.583C203.609 101.718 203.419 101.895 203.299 102.114C203.18 102.333 203.12 102.559 203.12 102.793C203.12 103.023 203.174 103.244 203.284 103.458C203.393 103.666 203.565 103.838 203.799 103.973C204.034 104.109 204.336 104.176 204.706 104.176H207.354V105.364H204.706C204.221 105.364 203.792 105.299 203.417 105.168C203.042 105.038 202.724 104.859 202.463 104.629C202.203 104.395 202.005 104.122 201.87 103.809C201.734 103.491 201.667 103.148 201.667 102.778C201.667 102.408 201.737 102.067 201.877 101.754C202.023 101.442 202.232 101.168 202.502 100.934C202.778 100.7 203.114 100.52 203.51 100.395C203.911 100.265 204.367 100.2 204.877 100.2ZM223.674 97.2778V108.653H222.159L216.432 99.8794V108.653H214.924V97.2778H216.432L222.182 106.075V97.2778H223.674ZM227.854 97.2778V108.653H226.346V97.2778H227.854ZM232.62 102.395V103.629H227.526V102.395H232.62ZM233.393 97.2778V98.5122H227.526V97.2778H233.393ZM239.549 97.2778V108.653H238.065V97.2778H239.549ZM243.206 97.2778V98.5122H234.417V97.2778H243.206ZM245.87 103.223V104.411H242.057V103.223H245.87ZM79.8384 125.364L83.7368 119.2H85.1899V127.653H83.7368V121.489L79.8384 127.653H78.4009V119.2H79.8384V125.364ZM92.9712 119.2V120.395H89.0649V127.653H87.6196V119.2H92.9712ZM95.6743 120.825V130.903H94.2212V119.2H95.5493L95.6743 120.825ZM101.37 123.356V123.52C101.37 124.135 101.297 124.705 101.151 125.231C101.005 125.752 100.792 126.205 100.51 126.59C100.234 126.976 99.8931 127.275 99.4868 127.489C99.0806 127.702 98.6144 127.809 98.0884 127.809C97.5519 127.809 97.078 127.721 96.6665 127.543C96.255 127.366 95.9061 127.109 95.6196 126.77C95.3332 126.431 95.104 126.025 94.9321 125.551C94.7655 125.077 94.6509 124.543 94.5884 123.95V123.075C94.6509 122.45 94.7681 121.89 94.9399 121.395C95.1118 120.9 95.3384 120.478 95.6196 120.129C95.9061 119.775 96.2524 119.507 96.6587 119.325C97.0649 119.137 97.5337 119.043 98.0649 119.043C98.5962 119.043 99.0675 119.148 99.479 119.356C99.8905 119.559 100.237 119.851 100.518 120.231C100.799 120.611 101.01 121.067 101.151 121.598C101.297 122.124 101.37 122.71 101.37 123.356ZM99.9165 123.52V123.356C99.9165 122.934 99.8722 122.538 99.7837 122.168C99.6951 121.793 99.5571 121.465 99.3696 121.184C99.1873 120.898 98.953 120.674 98.6665 120.512C98.38 120.346 98.0389 120.262 97.6431 120.262C97.2785 120.262 96.9608 120.325 96.6899 120.45C96.4243 120.575 96.1978 120.744 96.0103 120.958C95.8228 121.166 95.6691 121.405 95.5493 121.676C95.4347 121.942 95.3488 122.218 95.2915 122.504V124.528C95.3957 124.892 95.5415 125.236 95.729 125.559C95.9165 125.877 96.1665 126.135 96.479 126.333C96.7915 126.525 97.1847 126.622 97.6587 126.622C98.0493 126.622 98.3853 126.541 98.6665 126.379C98.953 126.213 99.1873 125.986 99.3696 125.7C99.5571 125.413 99.6951 125.085 99.7837 124.715C99.8722 124.34 99.9165 123.942 99.9165 123.52ZM106.721 127.809C106.133 127.809 105.599 127.71 105.12 127.512C104.646 127.309 104.237 127.025 103.893 126.661C103.555 126.296 103.294 125.864 103.112 125.364C102.93 124.864 102.838 124.317 102.838 123.723V123.395C102.838 122.708 102.94 122.096 103.143 121.559C103.346 121.017 103.622 120.559 103.971 120.184C104.32 119.809 104.716 119.525 105.159 119.333C105.601 119.14 106.06 119.043 106.534 119.043C107.138 119.043 107.659 119.148 108.096 119.356C108.539 119.564 108.901 119.856 109.182 120.231C109.463 120.601 109.672 121.038 109.807 121.543C109.943 122.043 110.01 122.59 110.01 123.184V123.833H103.698V122.653H108.565V122.543C108.544 122.168 108.466 121.804 108.331 121.45C108.2 121.096 107.992 120.804 107.706 120.575C107.419 120.346 107.028 120.231 106.534 120.231C106.206 120.231 105.903 120.301 105.627 120.442C105.351 120.577 105.114 120.78 104.917 121.051C104.719 121.322 104.565 121.653 104.456 122.043C104.346 122.434 104.292 122.885 104.292 123.395V123.723C104.292 124.124 104.346 124.502 104.456 124.856C104.57 125.205 104.734 125.512 104.948 125.778C105.167 126.043 105.43 126.252 105.737 126.403C106.049 126.554 106.403 126.629 106.799 126.629C107.31 126.629 107.742 126.525 108.096 126.317C108.45 126.109 108.76 125.83 109.026 125.481L109.901 126.176C109.719 126.452 109.487 126.715 109.206 126.965C108.924 127.215 108.578 127.418 108.167 127.575C107.76 127.731 107.278 127.809 106.721 127.809Z" fill="white"/>
<path d="M119.112 119.2V127.653H117.659V119.2H119.112ZM121.948 119.2V120.372H114.877V119.2H121.948ZM122.659 123.52V123.34C122.659 122.731 122.747 122.166 122.924 121.645C123.101 121.119 123.357 120.663 123.69 120.278C124.023 119.887 124.427 119.585 124.901 119.372C125.375 119.153 125.906 119.043 126.495 119.043C127.088 119.043 127.622 119.153 128.096 119.372C128.575 119.585 128.982 119.887 129.315 120.278C129.653 120.663 129.911 121.119 130.088 121.645C130.265 122.166 130.354 122.731 130.354 123.34V123.52C130.354 124.129 130.265 124.694 130.088 125.215C129.911 125.736 129.653 126.192 129.315 126.583C128.982 126.968 128.578 127.27 128.104 127.489C127.635 127.702 127.104 127.809 126.51 127.809C125.917 127.809 125.383 127.702 124.909 127.489C124.435 127.27 124.028 126.968 123.69 126.583C123.357 126.192 123.101 125.736 122.924 125.215C122.747 124.694 122.659 124.129 122.659 123.52ZM124.104 123.34V123.52C124.104 123.942 124.153 124.34 124.252 124.715C124.351 125.085 124.5 125.413 124.698 125.7C124.901 125.986 125.153 126.213 125.456 126.379C125.758 126.541 126.109 126.622 126.51 126.622C126.906 126.622 127.252 126.541 127.549 126.379C127.851 126.213 128.101 125.986 128.299 125.7C128.497 125.413 128.646 125.085 128.745 124.715C128.849 124.34 128.901 123.942 128.901 123.52V123.34C128.901 122.924 128.849 122.53 128.745 122.161C128.646 121.786 128.495 121.455 128.292 121.168C128.094 120.877 127.844 120.648 127.542 120.481C127.245 120.314 126.896 120.231 126.495 120.231C126.099 120.231 125.75 120.314 125.448 120.481C125.151 120.648 124.901 120.877 124.698 121.168C124.5 121.455 124.351 121.786 124.252 122.161C124.153 122.53 124.104 122.924 124.104 123.34ZM137.69 119.2V120.395H133.604V119.2H137.69ZM138.963 119.2V127.653H137.518V119.2H138.963ZM133.252 119.2H134.706L134.487 123.278C134.45 123.908 134.39 124.465 134.307 124.95C134.229 125.429 134.12 125.84 133.979 126.184C133.844 126.528 133.672 126.809 133.463 127.028C133.26 127.241 133.015 127.4 132.729 127.504C132.443 127.603 132.112 127.653 131.737 127.653H131.284V126.379L131.596 126.356C131.82 126.34 132.01 126.288 132.167 126.2C132.328 126.111 132.463 125.981 132.573 125.809C132.682 125.632 132.771 125.405 132.838 125.129C132.911 124.853 132.966 124.525 133.002 124.145C133.044 123.765 133.075 123.322 133.096 122.817L133.252 119.2ZM142.479 122.106H145.018C145.7 122.106 146.276 122.226 146.745 122.465C147.213 122.7 147.568 123.025 147.807 123.442C148.052 123.853 148.174 124.322 148.174 124.848C148.174 125.239 148.107 125.606 147.971 125.95C147.836 126.288 147.633 126.585 147.362 126.84C147.096 127.096 146.765 127.296 146.37 127.442C145.979 127.583 145.528 127.653 145.018 127.653H141.424V119.2H142.87V126.465H145.018C145.435 126.465 145.768 126.39 146.018 126.239C146.268 126.088 146.448 125.892 146.557 125.653C146.667 125.413 146.721 125.163 146.721 124.903C146.721 124.648 146.667 124.398 146.557 124.153C146.448 123.908 146.268 123.705 146.018 123.543C145.768 123.377 145.435 123.293 145.018 123.293H142.479V122.106ZM151.549 119.2V127.653H150.104V119.2H151.549ZM157.096 119.2L153.088 124.043H151.065L150.846 122.778H152.502L155.338 119.2H157.096ZM155.542 127.653L152.432 123.825L153.362 122.778L157.377 127.653H155.542ZM158.081 123.52V123.34C158.081 122.731 158.169 122.166 158.346 121.645C158.523 121.119 158.778 120.663 159.112 120.278C159.445 119.887 159.849 119.585 160.323 119.372C160.797 119.153 161.328 119.043 161.917 119.043C162.51 119.043 163.044 119.153 163.518 119.372C163.997 119.585 164.403 119.887 164.737 120.278C165.075 120.663 165.333 121.119 165.51 121.645C165.687 122.166 165.776 122.731 165.776 123.34V123.52C165.776 124.129 165.687 124.694 165.51 125.215C165.333 125.736 165.075 126.192 164.737 126.583C164.403 126.968 164 127.27 163.526 127.489C163.057 127.702 162.526 127.809 161.932 127.809C161.338 127.809 160.805 127.702 160.331 127.489C159.857 127.27 159.45 126.968 159.112 126.583C158.778 126.192 158.523 125.736 158.346 125.215C158.169 124.694 158.081 124.129 158.081 123.52ZM159.526 123.34V123.52C159.526 123.942 159.575 124.34 159.674 124.715C159.773 125.085 159.922 125.413 160.12 125.7C160.323 125.986 160.575 126.213 160.877 126.379C161.18 126.541 161.531 126.622 161.932 126.622C162.328 126.622 162.674 126.541 162.971 126.379C163.273 126.213 163.523 125.986 163.721 125.7C163.919 125.413 164.068 125.085 164.167 124.715C164.271 124.34 164.323 123.942 164.323 123.52V123.34C164.323 122.924 164.271 122.53 164.167 122.161C164.068 121.786 163.917 121.455 163.713 121.168C163.515 120.877 163.265 120.648 162.963 120.481C162.667 120.314 162.318 120.231 161.917 120.231C161.521 120.231 161.172 120.314 160.87 120.481C160.573 120.648 160.323 120.877 160.12 121.168C159.922 121.455 159.773 121.786 159.674 122.161C159.575 122.53 159.526 122.924 159.526 123.34ZM175.002 119.2V127.653H173.549V119.2H175.002ZM177.838 119.2V120.372H170.768V119.2H177.838ZM182.018 126.622C182.362 126.622 182.68 126.551 182.971 126.411C183.263 126.27 183.502 126.077 183.69 125.833C183.877 125.583 183.984 125.299 184.01 124.981H185.385C185.359 125.481 185.19 125.947 184.877 126.379C184.57 126.806 184.167 127.153 183.667 127.418C183.167 127.679 182.617 127.809 182.018 127.809C181.383 127.809 180.828 127.697 180.354 127.473C179.885 127.249 179.495 126.942 179.182 126.551C178.875 126.161 178.643 125.713 178.487 125.208C178.336 124.697 178.26 124.158 178.26 123.59V123.262C178.26 122.694 178.336 122.158 178.487 121.653C178.643 121.142 178.875 120.692 179.182 120.301C179.495 119.911 179.885 119.603 180.354 119.379C180.828 119.155 181.383 119.043 182.018 119.043C182.68 119.043 183.258 119.179 183.752 119.45C184.247 119.715 184.635 120.08 184.917 120.543C185.203 121.002 185.359 121.523 185.385 122.106H184.01C183.984 121.757 183.885 121.442 183.713 121.161C183.547 120.879 183.318 120.655 183.026 120.489C182.739 120.317 182.403 120.231 182.018 120.231C181.575 120.231 181.203 120.319 180.901 120.497C180.604 120.668 180.367 120.903 180.19 121.2C180.018 121.491 179.893 121.817 179.815 122.176C179.742 122.53 179.706 122.892 179.706 123.262V123.59C179.706 123.96 179.742 124.325 179.815 124.684C179.888 125.043 180.01 125.369 180.182 125.661C180.359 125.952 180.596 126.187 180.893 126.364C181.195 126.536 181.57 126.622 182.018 126.622ZM190.393 126.622C190.737 126.622 191.055 126.551 191.346 126.411C191.638 126.27 191.877 126.077 192.065 125.833C192.252 125.583 192.359 125.299 192.385 124.981H193.76C193.734 125.481 193.565 125.947 193.252 126.379C192.945 126.806 192.542 127.153 192.042 127.418C191.542 127.679 190.992 127.809 190.393 127.809C189.758 127.809 189.203 127.697 188.729 127.473C188.26 127.249 187.87 126.942 187.557 126.551C187.25 126.161 187.018 125.713 186.862 125.208C186.711 124.697 186.635 124.158 186.635 123.59V123.262C186.635 122.694 186.711 122.158 186.862 121.653C187.018 121.142 187.25 120.692 187.557 120.301C187.87 119.911 188.26 119.603 188.729 119.379C189.203 119.155 189.758 119.043 190.393 119.043C191.055 119.043 191.633 119.179 192.127 119.45C192.622 119.715 193.01 120.08 193.292 120.543C193.578 121.002 193.734 121.523 193.76 122.106H192.385C192.359 121.757 192.26 121.442 192.088 121.161C191.922 120.879 191.693 120.655 191.401 120.489C191.114 120.317 190.778 120.231 190.393 120.231C189.95 120.231 189.578 120.319 189.276 120.497C188.979 120.668 188.742 120.903 188.565 121.2C188.393 121.491 188.268 121.817 188.19 122.176C188.117 122.53 188.081 122.892 188.081 123.262V123.59C188.081 123.96 188.117 124.325 188.19 124.684C188.263 125.043 188.385 125.369 188.557 125.661C188.734 125.952 188.971 126.187 189.268 126.364C189.57 126.536 189.945 126.622 190.393 126.622ZM198.768 126.622C199.112 126.622 199.43 126.551 199.721 126.411C200.013 126.27 200.252 126.077 200.44 125.833C200.627 125.583 200.734 125.299 200.76 124.981H202.135C202.109 125.481 201.94 125.947 201.627 126.379C201.32 126.806 200.917 127.153 200.417 127.418C199.917 127.679 199.367 127.809 198.768 127.809C198.133 127.809 197.578 127.697 197.104 127.473C196.635 127.249 196.245 126.942 195.932 126.551C195.625 126.161 195.393 125.713 195.237 125.208C195.086 124.697 195.01 124.158 195.01 123.59V123.262C195.01 122.694 195.086 122.158 195.237 121.653C195.393 121.142 195.625 120.692 195.932 120.301C196.245 119.911 196.635 119.603 197.104 119.379C197.578 119.155 198.133 119.043 198.768 119.043C199.43 119.043 200.008 119.179 200.502 119.45C200.997 119.715 201.385 120.08 201.667 120.543C201.953 121.002 202.109 121.523 202.135 122.106H200.76C200.734 121.757 200.635 121.442 200.463 121.161C200.297 120.879 200.068 120.655 199.776 120.489C199.489 120.317 199.153 120.231 198.768 120.231C198.325 120.231 197.953 120.319 197.651 120.497C197.354 120.668 197.117 120.903 196.94 121.2C196.768 121.491 196.643 121.817 196.565 122.176C196.492 122.53 196.456 122.892 196.456 123.262V123.59C196.456 123.96 196.492 124.325 196.565 124.684C196.638 125.043 196.76 125.369 196.932 125.661C197.109 125.952 197.346 126.187 197.643 126.364C197.945 126.536 198.32 126.622 198.768 126.622ZM203.784 126.887C203.784 126.642 203.859 126.437 204.01 126.27C204.167 126.098 204.39 126.012 204.682 126.012C204.974 126.012 205.195 126.098 205.346 126.27C205.502 126.437 205.581 126.642 205.581 126.887C205.581 127.127 205.502 127.33 205.346 127.497C205.195 127.663 204.974 127.747 204.682 127.747C204.39 127.747 204.167 127.663 204.01 127.497C203.859 127.33 203.784 127.127 203.784 126.887ZM208.002 126.887C208.002 126.642 208.078 126.437 208.229 126.27C208.385 126.098 208.609 126.012 208.901 126.012C209.193 126.012 209.414 126.098 209.565 126.27C209.721 126.437 209.799 126.642 209.799 126.887C209.799 127.127 209.721 127.33 209.565 127.497C209.414 127.663 209.193 127.747 208.901 127.747C208.609 127.747 208.385 127.663 208.229 127.497C208.078 127.33 208.002 127.127 208.002 126.887ZM212.221 126.887C212.221 126.642 212.297 126.437 212.448 126.27C212.604 126.098 212.828 126.012 213.12 126.012C213.411 126.012 213.633 126.098 213.784 126.27C213.94 126.437 214.018 126.642 214.018 126.887C214.018 127.127 213.94 127.33 213.784 127.497C213.633 127.663 213.411 127.747 213.12 127.747C212.828 127.747 212.604 127.663 212.448 127.497C212.297 127.33 212.221 127.127 212.221 126.887ZM81.0337 142.622H82.5962L80.1509 146.653H78.5884L81.0337 142.622ZM82.2446 138.2H85.7759V146.653H84.3306V139.372H82.2446C81.8332 139.372 81.4972 139.442 81.2368 139.583C80.9764 139.718 80.7863 139.895 80.6665 140.114C80.5467 140.333 80.4868 140.559 80.4868 140.793C80.4868 141.023 80.5415 141.244 80.6509 141.458C80.7603 141.666 80.9321 141.838 81.1665 141.973C81.4009 142.109 81.703 142.176 82.0728 142.176H84.7212V143.364H82.0728C81.5884 143.364 81.1587 143.299 80.7837 143.168C80.4087 143.038 80.091 142.859 79.8306 142.629C79.5701 142.395 79.3722 142.122 79.2368 141.809C79.1014 141.491 79.0337 141.148 79.0337 140.778C79.0337 140.408 79.104 140.067 79.2446 139.754C79.3905 139.442 79.5988 139.168 79.8696 138.934C80.1457 138.7 80.4816 138.52 80.8774 138.395C81.2785 138.265 81.7342 138.2 82.2446 138.2ZM95.0337 139.231C94.716 139.231 94.4113 139.301 94.1196 139.442C93.8332 139.583 93.5962 139.778 93.4087 140.028C93.2264 140.273 93.1353 140.556 93.1353 140.879H91.7524C91.7524 140.374 91.9087 139.908 92.2212 139.481C92.5337 139.049 92.9399 138.702 93.4399 138.442C93.9399 138.176 94.4712 138.043 95.0337 138.043C95.6274 138.043 96.1535 138.155 96.6118 138.379C97.0701 138.603 97.4556 138.911 97.7681 139.301C98.0858 139.692 98.3254 140.142 98.4868 140.653C98.6483 141.158 98.729 141.694 98.729 142.262V142.59C98.729 143.158 98.6457 143.697 98.479 144.208C98.3175 144.713 98.078 145.163 97.7603 145.559C97.4478 145.95 97.0623 146.257 96.604 146.481C96.1509 146.705 95.63 146.817 95.0415 146.817C94.4113 146.817 93.8462 146.681 93.3462 146.411C92.8514 146.14 92.4608 145.775 92.1743 145.317C91.8931 144.853 91.7524 144.333 91.7524 143.754H93.1353C93.1353 144.103 93.2186 144.421 93.3853 144.708C93.5571 144.989 93.7863 145.213 94.0728 145.379C94.3592 145.546 94.6821 145.629 95.0415 145.629C95.4321 145.629 95.7681 145.541 96.0493 145.364C96.3358 145.187 96.5701 144.952 96.7524 144.661C96.9347 144.369 97.0675 144.043 97.1509 143.684C97.2394 143.319 97.2837 142.955 97.2837 142.59V142.262C97.2837 141.892 97.2394 141.528 97.1509 141.168C97.0675 140.809 96.9347 140.484 96.7524 140.192C96.5754 139.9 96.3436 139.668 96.0571 139.497C95.7759 139.319 95.4347 139.231 95.0337 139.231ZM97.9868 141.754V142.934H94.0884V141.754H97.9868ZM103.502 138.2V146.653H102.049V138.2H103.502ZM106.338 138.2V139.372H99.2681V138.2H106.338ZM107.049 142.52V142.34C107.049 141.731 107.138 141.166 107.315 140.645C107.492 140.119 107.747 139.663 108.081 139.278C108.414 138.887 108.818 138.585 109.292 138.372C109.765 138.153 110.297 138.043 110.885 138.043C111.479 138.043 112.013 138.153 112.487 138.372C112.966 138.585 113.372 138.887 113.706 139.278C114.044 139.663 114.302 140.119 114.479 140.645C114.656 141.166 114.745 141.731 114.745 142.34V142.52C114.745 143.129 114.656 143.694 114.479 144.215C114.302 144.736 114.044 145.192 113.706 145.583C113.372 145.968 112.969 146.27 112.495 146.489C112.026 146.702 111.495 146.809 110.901 146.809C110.307 146.809 109.773 146.702 109.299 146.489C108.825 146.27 108.419 145.968 108.081 145.583C107.747 145.192 107.492 144.736 107.315 144.215C107.138 143.694 107.049 143.129 107.049 142.52ZM108.495 142.34V142.52C108.495 142.942 108.544 143.34 108.643 143.715C108.742 144.085 108.89 144.413 109.088 144.7C109.292 144.986 109.544 145.213 109.846 145.379C110.148 145.541 110.5 145.622 110.901 145.622C111.297 145.622 111.643 145.541 111.94 145.379C112.242 145.213 112.492 144.986 112.69 144.7C112.888 144.413 113.036 144.085 113.135 143.715C113.239 143.34 113.292 142.942 113.292 142.52V142.34C113.292 141.924 113.239 141.53 113.135 141.161C113.036 140.786 112.885 140.455 112.682 140.168C112.484 139.877 112.234 139.648 111.932 139.481C111.635 139.314 111.286 139.231 110.885 139.231C110.489 139.231 110.14 139.314 109.838 139.481C109.542 139.648 109.292 139.877 109.088 140.168C108.89 140.455 108.742 140.786 108.643 141.161C108.544 141.53 108.495 141.924 108.495 142.34ZM122.018 138.2V139.395H118.112V146.653H116.667V138.2H122.018ZM122.737 142.52V142.34C122.737 141.731 122.825 141.166 123.002 140.645C123.18 140.119 123.435 139.663 123.768 139.278C124.101 138.887 124.505 138.585 124.979 138.372C125.453 138.153 125.984 138.043 126.573 138.043C127.167 138.043 127.7 138.153 128.174 138.372C128.653 138.585 129.06 138.887 129.393 139.278C129.732 139.663 129.989 140.119 130.167 140.645C130.344 141.166 130.432 141.731 130.432 142.34V142.52C130.432 143.129 130.344 143.694 130.167 144.215C129.989 144.736 129.732 145.192 129.393 145.583C129.06 145.968 128.656 146.27 128.182 146.489C127.713 146.702 127.182 146.809 126.588 146.809C125.995 146.809 125.461 146.702 124.987 146.489C124.513 146.27 124.107 145.968 123.768 145.583C123.435 145.192 123.18 144.736 123.002 144.215C122.825 143.694 122.737 143.129 122.737 142.52ZM124.182 142.34V142.52C124.182 142.942 124.232 143.34 124.331 143.715C124.43 144.085 124.578 144.413 124.776 144.7C124.979 144.986 125.232 145.213 125.534 145.379C125.836 145.541 126.187 145.622 126.588 145.622C126.984 145.622 127.331 145.541 127.627 145.379C127.93 145.213 128.18 144.986 128.377 144.7C128.575 144.413 128.724 144.085 128.823 143.715C128.927 143.34 128.979 142.942 128.979 142.52V142.34C128.979 141.924 128.927 141.53 128.823 141.161C128.724 140.786 128.573 140.455 128.37 140.168C128.172 139.877 127.922 139.648 127.62 139.481C127.323 139.314 126.974 139.231 126.573 139.231C126.177 139.231 125.828 139.314 125.526 139.481C125.229 139.648 124.979 139.877 124.776 140.168C124.578 140.455 124.43 140.786 124.331 141.161C124.232 141.53 124.182 141.924 124.182 142.34ZM141.948 141.864V143.036H137.479V141.864H141.948ZM137.784 138.2V146.653H136.338V138.2H137.784ZM143.12 138.2V146.653H141.667V138.2H143.12ZM148.956 146.809C148.367 146.809 147.833 146.71 147.354 146.512C146.88 146.309 146.471 146.025 146.127 145.661C145.789 145.296 145.528 144.864 145.346 144.364C145.164 143.864 145.073 143.317 145.073 142.723V142.395C145.073 141.708 145.174 141.096 145.377 140.559C145.581 140.017 145.857 139.559 146.206 139.184C146.555 138.809 146.95 138.525 147.393 138.333C147.836 138.14 148.294 138.043 148.768 138.043C149.372 138.043 149.893 138.148 150.331 138.356C150.773 138.564 151.135 138.856 151.417 139.231C151.698 139.601 151.906 140.038 152.042 140.543C152.177 141.043 152.245 141.59 152.245 142.184V142.833H145.932V141.653H150.799V141.543C150.778 141.168 150.7 140.804 150.565 140.45C150.435 140.096 150.226 139.804 149.94 139.575C149.653 139.346 149.263 139.231 148.768 139.231C148.44 139.231 148.138 139.301 147.862 139.442C147.586 139.577 147.349 139.78 147.151 140.051C146.953 140.322 146.799 140.653 146.69 141.043C146.581 141.434 146.526 141.885 146.526 142.395V142.723C146.526 143.124 146.581 143.502 146.69 143.856C146.805 144.205 146.969 144.512 147.182 144.778C147.401 145.043 147.664 145.252 147.971 145.403C148.284 145.554 148.638 145.629 149.034 145.629C149.544 145.629 149.976 145.525 150.331 145.317C150.685 145.109 150.995 144.83 151.26 144.481L152.135 145.176C151.953 145.452 151.721 145.715 151.44 145.965C151.159 146.215 150.812 146.418 150.401 146.575C149.995 146.731 149.513 146.809 148.956 146.809ZM163.362 138.2V139.395H159.456V146.653H158.01V138.2H163.362ZM164.081 142.52V142.34C164.081 141.731 164.169 141.166 164.346 140.645C164.523 140.119 164.778 139.663 165.112 139.278C165.445 138.887 165.849 138.585 166.323 138.372C166.797 138.153 167.328 138.043 167.917 138.043C168.51 138.043 169.044 138.153 169.518 138.372C169.997 138.585 170.403 138.887 170.737 139.278C171.075 139.663 171.333 140.119 171.51 140.645C171.687 141.166 171.776 141.731 171.776 142.34V142.52C171.776 143.129 171.687 143.694 171.51 144.215C171.333 144.736 171.075 145.192 170.737 145.583C170.403 145.968 170 146.27 169.526 146.489C169.057 146.702 168.526 146.809 167.932 146.809C167.338 146.809 166.805 146.702 166.331 146.489C165.857 146.27 165.45 145.968 165.112 145.583C164.778 145.192 164.523 144.736 164.346 144.215C164.169 143.694 164.081 143.129 164.081 142.52ZM165.526 142.34V142.52C165.526 142.942 165.575 143.34 165.674 143.715C165.773 144.085 165.922 144.413 166.12 144.7C166.323 144.986 166.575 145.213 166.877 145.379C167.18 145.541 167.531 145.622 167.932 145.622C168.328 145.622 168.674 145.541 168.971 145.379C169.273 145.213 169.523 144.986 169.721 144.7C169.919 144.413 170.068 144.085 170.167 143.715C170.271 143.34 170.323 142.942 170.323 142.52V142.34C170.323 141.924 170.271 141.53 170.167 141.161C170.068 140.786 169.917 140.455 169.713 140.168C169.515 139.877 169.265 139.648 168.963 139.481C168.667 139.314 168.318 139.231 167.917 139.231C167.521 139.231 167.172 139.314 166.87 139.481C166.573 139.648 166.323 139.877 166.12 140.168C165.922 140.455 165.773 140.786 165.674 141.161C165.575 141.53 165.526 141.924 165.526 142.34ZM177.557 142.934H174.784L174.768 141.778H177.034C177.482 141.778 177.854 141.734 178.151 141.645C178.453 141.556 178.68 141.424 178.831 141.247C178.982 141.069 179.057 140.851 179.057 140.59C179.057 140.387 179.013 140.21 178.924 140.059C178.841 139.903 178.713 139.775 178.542 139.676C178.37 139.572 178.156 139.497 177.901 139.45C177.651 139.398 177.357 139.372 177.018 139.372H175.167V146.653H173.721V138.2H177.018C177.555 138.2 178.036 138.247 178.463 138.34C178.896 138.434 179.263 138.577 179.565 138.77C179.872 138.958 180.107 139.197 180.268 139.489C180.43 139.78 180.51 140.124 180.51 140.52C180.51 140.775 180.458 141.017 180.354 141.247C180.25 141.476 180.096 141.679 179.893 141.856C179.69 142.033 179.44 142.179 179.143 142.293C178.846 142.403 178.505 142.473 178.12 142.504L177.557 142.934ZM177.557 146.653H174.26L174.979 145.481H177.557C177.958 145.481 178.292 145.431 178.557 145.333C178.823 145.228 179.021 145.083 179.151 144.895C179.286 144.702 179.354 144.473 179.354 144.208C179.354 143.942 179.286 143.715 179.151 143.528C179.021 143.335 178.823 143.189 178.557 143.09C178.292 142.986 177.958 142.934 177.557 142.934H175.362L175.377 141.778H178.12L178.643 142.215C179.107 142.252 179.5 142.366 179.823 142.559C180.146 142.752 180.39 142.997 180.557 143.293C180.724 143.585 180.807 143.903 180.807 144.247C180.807 144.642 180.732 144.991 180.581 145.293C180.435 145.596 180.221 145.848 179.94 146.051C179.659 146.249 179.318 146.4 178.917 146.504C178.515 146.603 178.062 146.653 177.557 146.653ZM182.362 142.52V142.34C182.362 141.731 182.45 141.166 182.627 140.645C182.805 140.119 183.06 139.663 183.393 139.278C183.726 138.887 184.13 138.585 184.604 138.372C185.078 138.153 185.609 138.043 186.198 138.043C186.792 138.043 187.325 138.153 187.799 138.372C188.278 138.585 188.685 138.887 189.018 139.278C189.357 139.663 189.614 140.119 189.792 140.645C189.969 141.166 190.057 141.731 190.057 142.34V142.52C190.057 143.129 189.969 143.694 189.792 144.215C189.614 144.736 189.357 145.192 189.018 145.583C188.685 145.968 188.281 146.27 187.807 146.489C187.338 146.702 186.807 146.809 186.213 146.809C185.62 146.809 185.086 146.702 184.612 146.489C184.138 146.27 183.732 145.968 183.393 145.583C183.06 145.192 182.805 144.736 182.627 144.215C182.45 143.694 182.362 143.129 182.362 142.52ZM183.807 142.34V142.52C183.807 142.942 183.857 143.34 183.956 143.715C184.055 144.085 184.203 144.413 184.401 144.7C184.604 144.986 184.857 145.213 185.159 145.379C185.461 145.541 185.812 145.622 186.213 145.622C186.609 145.622 186.956 145.541 187.252 145.379C187.555 145.213 187.805 144.986 188.002 144.7C188.2 144.413 188.349 144.085 188.448 143.715C188.552 143.34 188.604 142.942 188.604 142.52V142.34C188.604 141.924 188.552 141.53 188.448 141.161C188.349 140.786 188.198 140.455 187.995 140.168C187.797 139.877 187.547 139.648 187.245 139.481C186.948 139.314 186.599 139.231 186.198 139.231C185.802 139.231 185.453 139.314 185.151 139.481C184.854 139.648 184.604 139.877 184.401 140.168C184.203 140.455 184.055 140.786 183.956 141.161C183.857 141.53 183.807 141.924 183.807 142.34ZM193.315 139.825V149.903H191.862V138.2H193.19L193.315 139.825ZM199.01 142.356V142.52C199.01 143.135 198.937 143.705 198.792 144.231C198.646 144.752 198.432 145.205 198.151 145.59C197.875 145.976 197.534 146.275 197.127 146.489C196.721 146.702 196.255 146.809 195.729 146.809C195.193 146.809 194.719 146.721 194.307 146.543C193.896 146.366 193.547 146.109 193.26 145.77C192.974 145.431 192.745 145.025 192.573 144.551C192.406 144.077 192.292 143.543 192.229 142.95V142.075C192.292 141.45 192.409 140.89 192.581 140.395C192.752 139.9 192.979 139.478 193.26 139.129C193.547 138.775 193.893 138.507 194.299 138.325C194.706 138.137 195.174 138.043 195.706 138.043C196.237 138.043 196.708 138.148 197.12 138.356C197.531 138.559 197.877 138.851 198.159 139.231C198.44 139.611 198.651 140.067 198.792 140.598C198.937 141.124 199.01 141.71 199.01 142.356ZM197.557 142.52V142.356C197.557 141.934 197.513 141.538 197.424 141.168C197.336 140.793 197.198 140.465 197.01 140.184C196.828 139.898 196.594 139.674 196.307 139.512C196.021 139.346 195.68 139.262 195.284 139.262C194.919 139.262 194.601 139.325 194.331 139.45C194.065 139.575 193.838 139.744 193.651 139.958C193.463 140.166 193.31 140.405 193.19 140.676C193.075 140.942 192.989 141.218 192.932 141.504V143.528C193.036 143.892 193.182 144.236 193.37 144.559C193.557 144.877 193.807 145.135 194.12 145.333C194.432 145.525 194.825 145.622 195.299 145.622C195.69 145.622 196.026 145.541 196.307 145.379C196.594 145.213 196.828 144.986 197.01 144.7C197.198 144.413 197.336 144.085 197.424 143.715C197.513 143.34 197.557 142.942 197.557 142.52ZM202.417 144.364L206.315 138.2H207.768V146.653H206.315V140.489L202.417 146.653H200.979V138.2H202.417V144.364ZM215.737 138.2V139.395H211.651V138.2H215.737ZM217.01 138.2V146.653H215.565V138.2H217.01ZM211.299 138.2H212.752L212.534 142.278C212.497 142.908 212.437 143.465 212.354 143.95C212.276 144.429 212.167 144.84 212.026 145.184C211.89 145.528 211.719 145.809 211.51 146.028C211.307 146.241 211.062 146.4 210.776 146.504C210.489 146.603 210.159 146.653 209.784 146.653H209.331V145.379L209.643 145.356C209.867 145.34 210.057 145.288 210.213 145.2C210.375 145.111 210.51 144.981 210.62 144.809C210.729 144.632 210.818 144.405 210.885 144.129C210.958 143.853 211.013 143.525 211.049 143.145C211.091 142.765 211.122 142.322 211.143 141.817L211.299 138.2Z" fill="white" fill-opacity="0.6"/>
<path d="M113.26 229.424C118.337 224.686 131.663 208.255 132.338 202.17C134.069 188.635 108.474 177.248 94.9931 191.049C70.615 215.91 64.3493 223.789 77.0348 234.039C81.4373 237.876 87.7373 239.546 94.5378 238.679C101.338 237.813 108.077 234.481 113.26 229.424Z" fill="#F85AE8"/>
<path d="M42.3319 255.979C45.58 256.988 55.4938 254.942 58.2618 252.95C64.3344 248.557 62.9221 232.514 53.7992 230.304C37.3891 226.294 33.3219 229.049 32.1356 240.318C31.26 248.557 34.6211 253.578 42.3319 255.979Z" fill="#F85AE8"/>
<path d="M5.56337 248.821C7.31238 249.353 12.6507 248.274 14.1411 247.223C17.411 244.906 16.6506 236.444 11.7381 235.278C2.90184 233.163 0.711779 234.616 0.0730111 240.56C-0.398461 244.906 1.41138 247.554 5.56337 248.821Z" fill="#F85AE8"/>
</svg>
