<svg width="262" height="256" viewBox="0 0 262 256" fill="none" xmlns="http://www.w3.org/2000/svg">
<path d="M148.111 190.299C210.581 190.299 261.222 147.699 261.222 95.1497C261.222 42.6 210.581 0 148.111 0C85.6416 0 35 42.6 35 95.1497C35 147.699 85.6416 190.299 148.111 190.299Z" fill="#EF2ADC"/>
<path d="M88.8853 66.4438H90.3853C90.3071 67.1626 90.1014 67.8058 89.7681 68.3735C89.4347 68.9412 88.9634 69.3918 88.354 69.7251C87.7446 70.0532 86.9842 70.2173 86.0728 70.2173C85.4061 70.2173 84.7993 70.0923 84.2524 69.8423C83.7108 69.5923 83.2446 69.2381 82.854 68.7798C82.4634 68.3162 82.1613 67.7616 81.9478 67.1157C81.7394 66.4647 81.6353 65.7407 81.6353 64.9438V63.811C81.6353 63.0142 81.7394 62.2928 81.9478 61.647C82.1613 60.9959 82.466 60.4386 82.8618 59.9751C83.2629 59.5116 83.7446 59.1548 84.3071 58.9048C84.8696 58.6548 85.5024 58.5298 86.2056 58.5298C87.0649 58.5298 87.7915 58.6912 88.3853 59.0142C88.979 59.3371 89.4399 59.785 89.7681 60.3579C90.1014 60.9256 90.3071 61.5845 90.3853 62.3345H88.8853C88.8123 61.8032 88.6769 61.3475 88.479 60.9673C88.2811 60.5819 87.9998 60.285 87.6353 60.0767C87.2707 59.8683 86.7941 59.7642 86.2056 59.7642C85.7004 59.7642 85.255 59.8605 84.8696 60.0532C84.4894 60.2459 84.1691 60.5194 83.9087 60.8735C83.6535 61.2277 83.4608 61.6522 83.3306 62.147C83.2004 62.6418 83.1353 63.1912 83.1353 63.7954V64.9438C83.1353 65.5011 83.1925 66.0246 83.3071 66.5142C83.4269 67.0037 83.6066 67.4334 83.8462 67.8032C84.0858 68.173 84.3905 68.4647 84.7603 68.6782C85.13 68.8866 85.5675 68.9907 86.0728 68.9907C86.7134 68.9907 87.2238 68.8892 87.604 68.686C87.9842 68.4829 88.2707 68.1912 88.4634 67.811C88.6613 67.4308 88.8019 66.9751 88.8853 66.4438ZM97.2056 68.6157V64.2642C97.2056 63.9308 97.1379 63.6418 97.0024 63.397C96.8722 63.147 96.6743 62.9543 96.4087 62.8188C96.1431 62.6834 95.8149 62.6157 95.4243 62.6157C95.0597 62.6157 94.7394 62.6782 94.4634 62.8032C94.1925 62.9282 93.979 63.0923 93.8228 63.2954C93.6717 63.4985 93.5962 63.7173 93.5962 63.9517H92.1509C92.1509 63.6496 92.229 63.3501 92.3853 63.0532C92.5415 62.7563 92.7655 62.4881 93.0571 62.2485C93.354 62.0037 93.7082 61.811 94.1196 61.6704C94.5363 61.5246 94.9998 61.4517 95.5103 61.4517C96.1248 61.4517 96.6665 61.5558 97.1353 61.7642C97.6092 61.9725 97.979 62.2876 98.2446 62.7095C98.5155 63.1261 98.6509 63.6496 98.6509 64.2798V68.2173C98.6509 68.4985 98.6743 68.798 98.7212 69.1157C98.7733 69.4334 98.8488 69.7069 98.9478 69.936V70.061H97.4399C97.367 69.8944 97.3097 69.673 97.2681 69.397C97.2264 69.1157 97.2056 68.8553 97.2056 68.6157ZM97.4556 64.936L97.4712 65.9517H96.0103C95.5988 65.9517 95.2316 65.9855 94.9087 66.0532C94.5858 66.1157 94.3149 66.2121 94.0962 66.3423C93.8774 66.4725 93.7108 66.6366 93.5962 66.8345C93.4816 67.0272 93.4243 67.2537 93.4243 67.5142C93.4243 67.7798 93.4842 68.022 93.604 68.2407C93.7238 68.4595 93.9035 68.634 94.1431 68.7642C94.3879 68.8892 94.6873 68.9517 95.0415 68.9517C95.4842 68.9517 95.8748 68.8579 96.2134 68.6704C96.5519 68.4829 96.8201 68.2537 97.0181 67.9829C97.2212 67.7121 97.3306 67.4491 97.3462 67.1938L97.9634 67.8892C97.9269 68.1079 97.828 68.3501 97.6665 68.6157C97.505 68.8813 97.2889 69.1366 97.0181 69.3813C96.7524 69.6209 96.4347 69.8215 96.0649 69.9829C95.7004 70.1392 95.2889 70.2173 94.8306 70.2173C94.2576 70.2173 93.755 70.1053 93.3228 69.8813C92.8957 69.6574 92.5623 69.3579 92.3228 68.9829C92.0884 68.6027 91.9712 68.1782 91.9712 67.7095C91.9712 67.2563 92.0597 66.8579 92.2368 66.5142C92.4139 66.1652 92.6691 65.8761 93.0024 65.647C93.3358 65.4126 93.7368 65.2355 94.2056 65.1157C94.6743 64.9959 95.1978 64.936 95.7759 64.936H97.4556ZM105.784 68.1392L108.659 61.6079H110.049L106.284 70.061H105.284L101.534 61.6079H102.924L105.784 68.1392ZM102.502 61.6079V70.061H101.057V61.6079H102.502ZM109.018 70.061V61.6079H110.471V70.061H109.018ZM112.417 65.9282V65.7485C112.417 65.1392 112.505 64.5741 112.682 64.0532C112.859 63.5272 113.114 63.0715 113.448 62.686C113.781 62.2954 114.185 61.9933 114.659 61.7798C115.133 61.561 115.664 61.4517 116.252 61.4517C116.846 61.4517 117.38 61.561 117.854 61.7798C118.333 61.9933 118.739 62.2954 119.073 62.686C119.411 63.0715 119.669 63.5272 119.846 64.0532C120.023 64.5741 120.112 65.1392 120.112 65.7485V65.9282C120.112 66.5376 120.023 67.1027 119.846 67.6235C119.669 68.1444 119.411 68.6001 119.073 68.9907C118.739 69.3761 118.336 69.6782 117.862 69.897C117.393 70.1105 116.862 70.2173 116.268 70.2173C115.674 70.2173 115.14 70.1105 114.667 69.897C114.193 69.6782 113.786 69.3761 113.448 68.9907C113.114 68.6001 112.859 68.1444 112.682 67.6235C112.505 67.1027 112.417 66.5376 112.417 65.9282ZM113.862 65.7485V65.9282C113.862 66.3501 113.911 66.7485 114.01 67.1235C114.109 67.4933 114.258 67.8215 114.456 68.1079C114.659 68.3944 114.911 68.6209 115.213 68.7876C115.515 68.9491 115.867 69.0298 116.268 69.0298C116.664 69.0298 117.01 68.9491 117.307 68.7876C117.609 68.6209 117.859 68.3944 118.057 68.1079C118.255 67.8215 118.403 67.4933 118.502 67.1235C118.607 66.7485 118.659 66.3501 118.659 65.9282V65.7485C118.659 65.3319 118.607 64.9386 118.502 64.5688C118.403 64.1938 118.252 63.8631 118.049 63.5767C117.851 63.285 117.601 63.0558 117.299 62.8892C117.002 62.7225 116.653 62.6392 116.252 62.6392C115.857 62.6392 115.508 62.7225 115.206 62.8892C114.909 63.0558 114.659 63.285 114.456 63.5767C114.258 63.8631 114.109 64.1938 114.01 64.5688C113.911 64.9386 113.862 65.3319 113.862 65.7485ZM125.432 70.2173C124.844 70.2173 124.31 70.1183 123.831 69.9204C123.357 69.7173 122.948 69.4334 122.604 69.0688C122.265 68.7043 122.005 68.272 121.823 67.772C121.64 67.272 121.549 66.7251 121.549 66.1313V65.8032C121.549 65.1157 121.651 64.5037 121.854 63.9673C122.057 63.4256 122.333 62.9673 122.682 62.5923C123.031 62.2173 123.427 61.9334 123.87 61.7407C124.312 61.548 124.771 61.4517 125.245 61.4517C125.849 61.4517 126.37 61.5558 126.807 61.7642C127.25 61.9725 127.612 62.2642 127.893 62.6392C128.174 63.009 128.383 63.4465 128.518 63.9517C128.653 64.4517 128.721 64.9985 128.721 65.5923V66.2407H122.409V65.061H127.276V64.9517C127.255 64.5767 127.177 64.2121 127.042 63.8579C126.911 63.5037 126.703 63.2121 126.417 62.9829C126.13 62.7537 125.739 62.6392 125.245 62.6392C124.917 62.6392 124.614 62.7095 124.338 62.8501C124.062 62.9855 123.825 63.1886 123.627 63.4595C123.43 63.7303 123.276 64.061 123.167 64.4517C123.057 64.8423 123.002 65.2928 123.002 65.8032V66.1313C123.002 66.5324 123.057 66.91 123.167 67.2642C123.281 67.6131 123.445 67.9204 123.659 68.186C123.877 68.4517 124.14 68.66 124.448 68.811C124.76 68.9621 125.114 69.0376 125.51 69.0376C126.021 69.0376 126.453 68.9334 126.807 68.7251C127.161 68.5168 127.471 68.2381 127.737 67.8892L128.612 68.5845C128.43 68.8605 128.198 69.1235 127.917 69.3735C127.635 69.6235 127.289 69.8267 126.877 69.9829C126.471 70.1392 125.989 70.2173 125.432 70.2173ZM135.948 61.6079V70.061H134.502V61.6079H135.948ZM141.495 61.6079L137.487 66.4517H135.463L135.245 65.186H136.901L139.737 61.6079H141.495ZM139.94 70.061L136.831 66.2329L137.76 65.186L141.776 70.061H139.94ZM148.018 68.6157V64.2642C148.018 63.9308 147.95 63.6418 147.815 63.397C147.685 63.147 147.487 62.9543 147.221 62.8188C146.956 62.6834 146.627 62.6157 146.237 62.6157C145.872 62.6157 145.552 62.6782 145.276 62.8032C145.005 62.9282 144.792 63.0923 144.635 63.2954C144.484 63.4985 144.409 63.7173 144.409 63.9517H142.963C142.963 63.6496 143.042 63.3501 143.198 63.0532C143.354 62.7563 143.578 62.4881 143.87 62.2485C144.167 62.0037 144.521 61.811 144.932 61.6704C145.349 61.5246 145.812 61.4517 146.323 61.4517C146.937 61.4517 147.479 61.5558 147.948 61.7642C148.422 61.9725 148.792 62.2876 149.057 62.7095C149.328 63.1261 149.463 63.6496 149.463 64.2798V68.2173C149.463 68.4985 149.487 68.798 149.534 69.1157C149.586 69.4334 149.661 69.7069 149.76 69.936V70.061H148.252C148.18 69.8944 148.122 69.673 148.081 69.397C148.039 69.1157 148.018 68.8553 148.018 68.6157ZM148.268 64.936L148.284 65.9517H146.823C146.411 65.9517 146.044 65.9855 145.721 66.0532C145.398 66.1157 145.127 66.2121 144.909 66.3423C144.69 66.4725 144.523 66.6366 144.409 66.8345C144.294 67.0272 144.237 67.2537 144.237 67.5142C144.237 67.7798 144.297 68.022 144.417 68.2407C144.536 68.4595 144.716 68.634 144.956 68.7642C145.2 68.8892 145.5 68.9517 145.854 68.9517C146.297 68.9517 146.687 68.8579 147.026 68.6704C147.364 68.4829 147.633 68.2537 147.831 67.9829C148.034 67.7121 148.143 67.4491 148.159 67.1938L148.776 67.8892C148.739 68.1079 148.64 68.3501 148.479 68.6157C148.318 68.8813 148.101 69.1366 147.831 69.3813C147.565 69.6209 147.247 69.8215 146.877 69.9829C146.513 70.1392 146.101 70.2173 145.643 70.2173C145.07 70.2173 144.568 70.1053 144.135 69.8813C143.708 69.6574 143.375 69.3579 143.135 68.9829C142.901 68.6027 142.784 68.1782 142.784 67.7095C142.784 67.2563 142.872 66.8579 143.049 66.5142C143.226 66.1652 143.482 65.8761 143.815 65.647C144.148 65.4126 144.549 65.2355 145.018 65.1157C145.487 64.9959 146.01 64.936 146.588 64.936H148.268ZM153.299 67.772L157.198 61.6079H158.651V70.061H157.198V63.897L153.299 70.061H151.862V61.6079H153.299V67.772ZM156.409 58.5454H157.581C157.581 58.9517 157.487 59.3136 157.299 59.6313C157.112 59.9438 156.844 60.1886 156.495 60.3657C156.146 60.5428 155.732 60.6313 155.252 60.6313C154.528 60.6313 153.956 60.4386 153.534 60.0532C153.117 59.6626 152.909 59.16 152.909 58.5454H154.081C154.081 58.8527 154.169 59.1235 154.346 59.3579C154.523 59.5923 154.825 59.7095 155.252 59.7095C155.669 59.7095 155.966 59.5923 156.143 59.3579C156.32 59.1235 156.409 58.8527 156.409 58.5454ZM170.69 65.9829V66.147C170.69 66.7407 170.625 67.2876 170.495 67.7876C170.364 68.2824 170.169 68.7121 169.909 69.0767C169.653 69.4412 169.336 69.7251 168.956 69.9282C168.575 70.1261 168.135 70.2251 167.635 70.2251C167.224 70.2251 166.862 70.1704 166.549 70.061C166.237 69.9465 165.971 69.7824 165.752 69.5688C165.539 69.3553 165.367 69.1001 165.237 68.8032C165.112 68.5011 165.026 68.1626 164.979 67.7876V64.0376C165.026 63.6366 165.112 63.2772 165.237 62.9595C165.367 62.6418 165.539 62.3709 165.752 62.147C165.971 61.923 166.234 61.7511 166.542 61.6313C166.849 61.5116 167.208 61.4517 167.62 61.4517C168.026 61.4517 168.39 61.5246 168.713 61.6704C169.042 61.811 169.328 62.0142 169.573 62.2798C169.823 62.5454 170.028 62.8657 170.19 63.2407C170.357 63.6105 170.482 64.0272 170.565 64.4907C170.648 64.9543 170.69 65.4517 170.69 65.9829ZM169.245 66.147V65.9829C169.245 65.6183 169.219 65.272 169.167 64.9438C169.12 64.6105 169.044 64.3058 168.94 64.0298C168.841 63.7485 168.711 63.5037 168.549 63.2954C168.388 63.0871 168.193 62.9256 167.963 62.811C167.739 62.6965 167.482 62.6392 167.19 62.6392C166.877 62.6392 166.617 62.6782 166.409 62.7563C166.206 62.8345 166.047 62.9386 165.932 63.0688C165.818 63.1938 165.734 63.3267 165.682 63.4673V68.3657C165.745 68.4803 165.836 68.5897 165.956 68.6938C166.075 68.7928 166.237 68.8761 166.44 68.9438C166.643 69.0063 166.898 69.0376 167.206 69.0376C167.57 69.0376 167.88 68.9647 168.135 68.8188C168.396 68.6678 168.607 68.4595 168.768 68.1938C168.935 67.9282 169.055 67.6209 169.127 67.272C169.206 66.923 169.245 66.548 169.245 66.147ZM160.651 66.147V65.9829C160.651 65.4517 160.693 64.9543 160.776 64.4907C160.859 64.0272 160.984 63.6105 161.151 63.2407C161.318 62.8657 161.523 62.5454 161.768 62.2798C162.018 62.0142 162.305 61.811 162.627 61.6704C162.956 61.5246 163.323 61.4517 163.729 61.4517C164.13 61.4517 164.479 61.5116 164.776 61.6313C165.078 61.7511 165.333 61.923 165.542 62.147C165.75 62.3709 165.917 62.6418 166.042 62.9595C166.167 63.2772 166.255 63.6366 166.307 64.0376V67.6392C166.26 68.035 166.174 68.3918 166.049 68.7095C165.924 69.0272 165.758 69.3006 165.549 69.5298C165.341 69.7537 165.083 69.9256 164.776 70.0454C164.474 70.1652 164.12 70.2251 163.713 70.2251C163.213 70.2251 162.773 70.1261 162.393 69.9282C162.013 69.7251 161.693 69.4412 161.432 69.0767C161.177 68.7121 160.982 68.2824 160.846 67.7876C160.716 67.2876 160.651 66.7407 160.651 66.147ZM162.104 65.9829V66.147C162.104 66.548 162.138 66.923 162.206 67.272C162.278 67.6209 162.39 67.9282 162.542 68.1938C162.698 68.4595 162.901 68.6678 163.151 68.8188C163.401 68.9647 163.708 69.0376 164.073 69.0376C164.385 69.0376 164.643 68.9985 164.846 68.9204C165.049 68.8423 165.211 68.7407 165.331 68.6157C165.45 68.4907 165.542 68.3605 165.604 68.2251V63.4673C165.552 63.3267 165.466 63.1938 165.346 63.0688C165.232 62.9386 165.073 62.8345 164.87 62.7563C164.667 62.6782 164.406 62.6392 164.088 62.6392C163.724 62.6392 163.414 62.7277 163.159 62.9048C162.903 63.0819 162.698 63.3241 162.542 63.6313C162.39 63.9386 162.278 64.2954 162.206 64.7017C162.138 65.1027 162.104 65.5298 162.104 65.9829ZM164.885 73.311V58.061H166.338V73.311H164.885ZM172.198 65.9282V65.7485C172.198 65.1392 172.286 64.5741 172.463 64.0532C172.64 63.5272 172.896 63.0715 173.229 62.686C173.562 62.2954 173.966 61.9933 174.44 61.7798C174.914 61.561 175.445 61.4517 176.034 61.4517C176.627 61.4517 177.161 61.561 177.635 61.7798C178.114 61.9933 178.521 62.2954 178.854 62.686C179.193 63.0715 179.45 63.5272 179.627 64.0532C179.805 64.5741 179.893 65.1392 179.893 65.7485V65.9282C179.893 66.5376 179.805 67.1027 179.627 67.6235C179.45 68.1444 179.193 68.6001 178.854 68.9907C178.521 69.3761 178.117 69.6782 177.643 69.897C177.174 70.1105 176.643 70.2173 176.049 70.2173C175.456 70.2173 174.922 70.1105 174.448 69.897C173.974 69.6782 173.568 69.3761 173.229 68.9907C172.896 68.6001 172.64 68.1444 172.463 67.6235C172.286 67.1027 172.198 66.5376 172.198 65.9282ZM173.643 65.7485V65.9282C173.643 66.3501 173.693 66.7485 173.792 67.1235C173.89 67.4933 174.039 67.8215 174.237 68.1079C174.44 68.3944 174.693 68.6209 174.995 68.7876C175.297 68.9491 175.648 69.0298 176.049 69.0298C176.445 69.0298 176.792 68.9491 177.088 68.7876C177.39 68.6209 177.64 68.3944 177.838 68.1079C178.036 67.8215 178.185 67.4933 178.284 67.1235C178.388 66.7485 178.44 66.3501 178.44 65.9282V65.7485C178.44 65.3319 178.388 64.9386 178.284 64.5688C178.185 64.1938 178.034 63.8631 177.831 63.5767C177.633 63.285 177.383 63.0558 177.081 62.8892C176.784 62.7225 176.435 62.6392 176.034 62.6392C175.638 62.6392 175.289 62.7225 174.987 62.8892C174.69 63.0558 174.44 63.285 174.237 63.5767C174.039 63.8631 173.89 64.1938 173.792 64.5688C173.693 64.9386 173.643 65.3319 173.643 65.7485ZM185.674 66.3423H182.901L182.885 65.186H185.151C185.599 65.186 185.971 65.1418 186.268 65.0532C186.57 64.9647 186.797 64.8319 186.948 64.6548C187.099 64.4777 187.174 64.259 187.174 63.9985C187.174 63.7954 187.13 63.6183 187.042 63.4673C186.958 63.311 186.831 63.1834 186.659 63.0845C186.487 62.9803 186.273 62.9048 186.018 62.8579C185.768 62.8058 185.474 62.7798 185.135 62.7798H183.284V70.061H181.838V61.6079H185.135C185.672 61.6079 186.153 61.6548 186.581 61.7485C187.013 61.8423 187.38 61.9855 187.682 62.1782C187.989 62.3657 188.224 62.6053 188.385 62.897C188.547 63.1886 188.627 63.5324 188.627 63.9282C188.627 64.1834 188.575 64.4256 188.471 64.6548C188.367 64.884 188.213 65.0871 188.01 65.2642C187.807 65.4412 187.557 65.5871 187.26 65.7017C186.963 65.811 186.622 65.8813 186.237 65.9126L185.674 66.3423ZM185.674 70.061H182.377L183.096 68.8892H185.674C186.075 68.8892 186.409 68.8397 186.674 68.7407C186.94 68.6366 187.138 68.4907 187.268 68.3032C187.403 68.1105 187.471 67.8813 187.471 67.6157C187.471 67.3501 187.403 67.1235 187.268 66.936C187.138 66.7433 186.94 66.5975 186.674 66.4985C186.409 66.3944 186.075 66.3423 185.674 66.3423H183.479L183.495 65.186H186.237L186.76 65.6235C187.224 65.66 187.617 65.7746 187.94 65.9673C188.263 66.16 188.508 66.4048 188.674 66.7017C188.841 66.9933 188.924 67.311 188.924 67.6548C188.924 68.0506 188.849 68.3996 188.698 68.7017C188.552 69.0037 188.338 69.2563 188.057 69.4595C187.776 69.6574 187.435 69.8084 187.034 69.9126C186.633 70.0116 186.18 70.061 185.674 70.061ZM190.479 65.9282V65.7485C190.479 65.1392 190.568 64.5741 190.745 64.0532C190.922 63.5272 191.177 63.0715 191.51 62.686C191.844 62.2954 192.247 61.9933 192.721 61.7798C193.195 61.561 193.726 61.4517 194.315 61.4517C194.909 61.4517 195.443 61.561 195.917 61.7798C196.396 61.9933 196.802 62.2954 197.135 62.686C197.474 63.0715 197.732 63.5272 197.909 64.0532C198.086 64.5741 198.174 65.1392 198.174 65.7485V65.9282C198.174 66.5376 198.086 67.1027 197.909 67.6235C197.732 68.1444 197.474 68.6001 197.135 68.9907C196.802 69.3761 196.398 69.6782 195.924 69.897C195.456 70.1105 194.924 70.2173 194.331 70.2173C193.737 70.2173 193.203 70.1105 192.729 69.897C192.255 69.6782 191.849 69.3761 191.51 68.9907C191.177 68.6001 190.922 68.1444 190.745 67.6235C190.568 67.1027 190.479 66.5376 190.479 65.9282ZM191.924 65.7485V65.9282C191.924 66.3501 191.974 66.7485 192.073 67.1235C192.172 67.4933 192.32 67.8215 192.518 68.1079C192.721 68.3944 192.974 68.6209 193.276 68.7876C193.578 68.9491 193.93 69.0298 194.331 69.0298C194.726 69.0298 195.073 68.9491 195.37 68.7876C195.672 68.6209 195.922 68.3944 196.12 68.1079C196.318 67.8215 196.466 67.4933 196.565 67.1235C196.669 66.7485 196.721 66.3501 196.721 65.9282V65.7485C196.721 65.3319 196.669 64.9386 196.565 64.5688C196.466 64.1938 196.315 63.8631 196.112 63.5767C195.914 63.285 195.664 63.0558 195.362 62.8892C195.065 62.7225 194.716 62.6392 194.315 62.6392C193.919 62.6392 193.57 62.7225 193.268 62.8892C192.971 63.0558 192.721 63.285 192.518 63.5767C192.32 63.8631 192.172 64.1938 192.073 64.5688C191.974 64.9386 191.924 65.3319 191.924 65.7485ZM203.495 70.2173C202.906 70.2173 202.372 70.1183 201.893 69.9204C201.419 69.7173 201.01 69.4334 200.667 69.0688C200.328 68.7043 200.068 68.272 199.885 67.772C199.703 67.272 199.612 66.7251 199.612 66.1313V65.8032C199.612 65.1157 199.713 64.5037 199.917 63.9673C200.12 63.4256 200.396 62.9673 200.745 62.5923C201.094 62.2173 201.489 61.9334 201.932 61.7407C202.375 61.548 202.833 61.4517 203.307 61.4517C203.911 61.4517 204.432 61.5558 204.87 61.7642C205.312 61.9725 205.674 62.2642 205.956 62.6392C206.237 63.009 206.445 63.4465 206.581 63.9517C206.716 64.4517 206.784 64.9985 206.784 65.5923V66.2407H200.471V65.061H205.338V64.9517C205.318 64.5767 205.239 64.2121 205.104 63.8579C204.974 63.5037 204.765 63.2121 204.479 62.9829C204.193 62.7537 203.802 62.6392 203.307 62.6392C202.979 62.6392 202.677 62.7095 202.401 62.8501C202.125 62.9855 201.888 63.1886 201.69 63.4595C201.492 63.7303 201.338 64.061 201.229 64.4517C201.12 64.8423 201.065 65.2928 201.065 65.8032V66.1313C201.065 66.5324 201.12 66.91 201.229 67.2642C201.344 67.6131 201.508 67.9204 201.721 68.186C201.94 68.4517 202.203 68.66 202.51 68.811C202.823 68.9621 203.177 69.0376 203.573 69.0376C204.083 69.0376 204.515 68.9334 204.87 68.7251C205.224 68.5168 205.534 68.2381 205.799 67.8892L206.674 68.5845C206.492 68.8605 206.26 69.1235 205.979 69.3735C205.698 69.6235 205.351 69.8267 204.94 69.9829C204.534 70.1392 204.052 70.2173 203.495 70.2173ZM215.448 64.6313V65.8188H211.635V64.6313H215.448ZM61.4868 85.3423H58.7134L58.6978 84.186H60.9634C61.4113 84.186 61.7837 84.1418 62.0806 84.0532C62.3826 83.9647 62.6092 83.8319 62.7603 83.6548C62.9113 83.4777 62.9868 83.259 62.9868 82.9985C62.9868 82.7954 62.9425 82.6183 62.854 82.4673C62.7707 82.311 62.6431 82.1834 62.4712 82.0845C62.2993 81.9803 62.0858 81.9048 61.8306 81.8579C61.5806 81.8058 61.2863 81.7798 60.9478 81.7798H59.0962V89.061H57.6509V80.6079H60.9478C61.4842 80.6079 61.966 80.6548 62.3931 80.7485C62.8254 80.8423 63.1925 80.9855 63.4946 81.1782C63.8019 81.3657 64.0363 81.6053 64.1978 81.897C64.3592 82.1886 64.4399 82.5324 64.4399 82.9282C64.4399 83.1834 64.3879 83.4256 64.2837 83.6548C64.1795 83.884 64.0259 84.0871 63.8228 84.2642C63.6196 84.4412 63.3696 84.5871 63.0728 84.7017C62.7759 84.811 62.4347 84.8813 62.0493 84.9126L61.4868 85.3423ZM61.4868 89.061H58.1899L58.9087 87.8892H61.4868C61.8879 87.8892 62.2212 87.8397 62.4868 87.7407C62.7524 87.6366 62.9504 87.4907 63.0806 87.3032C63.216 87.1105 63.2837 86.8813 63.2837 86.6157C63.2837 86.3501 63.216 86.1235 63.0806 85.936C62.9504 85.7433 62.7524 85.5975 62.4868 85.4985C62.2212 85.3944 61.8879 85.3423 61.4868 85.3423H59.2915L59.3071 84.186H62.0493L62.5728 84.6235C63.0363 84.66 63.4295 84.7746 63.7524 84.9673C64.0754 85.16 64.3201 85.4048 64.4868 85.7017C64.6535 85.9933 64.7368 86.311 64.7368 86.6548C64.7368 87.0506 64.6613 87.3996 64.5103 87.7017C64.3644 88.0037 64.1509 88.2563 63.8696 88.4595C63.5884 88.6574 63.2472 88.8084 62.8462 88.9126C62.4451 89.0116 61.992 89.061 61.4868 89.061ZM66.2915 84.9282V84.7485C66.2915 84.1392 66.38 83.5741 66.5571 83.0532C66.7342 82.5272 66.9894 82.0715 67.3228 81.686C67.6561 81.2954 68.0597 80.9933 68.5337 80.7798C69.0076 80.561 69.5389 80.4517 70.1274 80.4517C70.7212 80.4517 71.255 80.561 71.729 80.7798C72.2082 80.9933 72.6144 81.2954 72.9478 81.686C73.2863 82.0715 73.5441 82.5272 73.7212 83.0532C73.8983 83.5741 73.9868 84.1392 73.9868 84.7485V84.9282C73.9868 85.5376 73.8983 86.1027 73.7212 86.6235C73.5441 87.1444 73.2863 87.6001 72.9478 87.9907C72.6144 88.3761 72.2108 88.6782 71.7368 88.897C71.2681 89.1105 70.7368 89.2173 70.1431 89.2173C69.5493 89.2173 69.0155 89.1105 68.5415 88.897C68.0675 88.6782 67.6613 88.3761 67.3228 87.9907C66.9894 87.6001 66.7342 87.1444 66.5571 86.6235C66.38 86.1027 66.2915 85.5376 66.2915 84.9282ZM67.7368 84.7485V84.9282C67.7368 85.3501 67.7863 85.7485 67.8853 86.1235C67.9842 86.4933 68.1326 86.8215 68.3306 87.1079C68.5337 87.3944 68.7863 87.6209 69.0884 87.7876C69.3905 87.9491 69.742 88.0298 70.1431 88.0298C70.5389 88.0298 70.8853 87.9491 71.1821 87.7876C71.4842 87.6209 71.7342 87.3944 71.9321 87.1079C72.13 86.8215 72.2785 86.4933 72.3774 86.1235C72.4816 85.7485 72.5337 85.3501 72.5337 84.9282V84.7485C72.5337 84.3319 72.4816 83.9386 72.3774 83.5688C72.2785 83.1938 72.1274 82.8631 71.9243 82.5767C71.7264 82.285 71.4764 82.0558 71.1743 81.8892C70.8774 81.7225 70.5285 81.6392 70.1274 81.6392C69.7316 81.6392 69.3826 81.7225 69.0806 81.8892C68.7837 82.0558 68.5337 82.285 68.3306 82.5767C68.1326 82.8631 67.9842 83.1938 67.8853 83.5688C67.7863 83.9386 67.7368 84.3319 67.7368 84.7485ZM78.9556 85.022H77.4009V84.1313H78.8384C79.2394 84.1313 79.5571 84.0819 79.7915 83.9829C80.0259 83.8787 80.1925 83.7355 80.2915 83.5532C80.3905 83.3709 80.4399 83.1574 80.4399 82.9126C80.4399 82.6938 80.3826 82.4881 80.2681 82.2954C80.1587 82.0975 79.9816 81.9386 79.7368 81.8188C79.492 81.6938 79.1639 81.6313 78.7524 81.6313C78.4191 81.6313 78.117 81.6912 77.8462 81.811C77.5754 81.9256 77.3592 82.0845 77.1978 82.2876C77.0415 82.4855 76.9634 82.7095 76.9634 82.9595H75.5181C75.5181 82.4438 75.6639 82.0011 75.9556 81.6313C76.2524 81.2563 76.6457 80.9673 77.1353 80.7642C77.63 80.561 78.1691 80.4595 78.7524 80.4595C79.242 80.4595 79.6795 80.5142 80.0649 80.6235C80.4556 80.7277 80.7863 80.884 81.0571 81.0923C81.328 81.2954 81.5337 81.5506 81.6743 81.8579C81.8201 82.16 81.8931 82.5116 81.8931 82.9126C81.8931 83.1991 81.8254 83.4699 81.6899 83.7251C81.5545 83.9803 81.3592 84.2069 81.104 84.4048C80.8488 84.5975 80.5389 84.7485 80.1743 84.8579C79.8149 84.9673 79.4087 85.022 78.9556 85.022ZM77.4009 84.4751H78.9556C79.4608 84.4751 79.9061 84.5246 80.2915 84.6235C80.6769 84.7173 80.9998 84.8579 81.2603 85.0454C81.5207 85.2329 81.716 85.4647 81.8462 85.7407C81.9816 86.0116 82.0493 86.3241 82.0493 86.6782C82.0493 87.0741 81.9686 87.4308 81.8071 87.7485C81.6509 88.061 81.4269 88.3267 81.1353 88.5454C80.8436 88.7642 80.4946 88.9308 80.0884 89.0454C79.6873 89.16 79.242 89.2173 78.7524 89.2173C78.2056 89.2173 77.6743 89.1235 77.1587 88.936C76.6431 88.7485 76.2186 88.4595 75.8853 88.0688C75.5519 87.673 75.3853 87.1704 75.3853 86.561H76.8306C76.8306 86.8162 76.9113 87.0584 77.0728 87.2876C77.2342 87.5168 77.4582 87.7017 77.7446 87.8423C78.0363 87.9829 78.3722 88.0532 78.7524 88.0532C79.1587 88.0532 79.4972 87.9907 79.7681 87.8657C80.0389 87.7407 80.242 87.5741 80.3774 87.3657C80.5181 87.1574 80.5884 86.9308 80.5884 86.686C80.5884 86.3683 80.5259 86.1131 80.4009 85.9204C80.2759 85.7277 80.0832 85.5871 79.8228 85.4985C79.5675 85.4048 79.2394 85.3579 78.8384 85.3579H77.4009V84.4751ZM88.7837 87.1392L91.6587 80.6079H93.0493L89.2837 89.061H88.2837L84.5337 80.6079H85.9243L88.7837 87.1392ZM85.5024 80.6079V89.061H84.0571V80.6079H85.5024ZM92.0181 89.061V80.6079H93.4712V89.061H92.0181ZM95.4165 84.9282V84.7485C95.4165 84.1392 95.505 83.5741 95.6821 83.0532C95.8592 82.5272 96.1144 82.0715 96.4478 81.686C96.7811 81.2954 97.1847 80.9933 97.6587 80.7798C98.1326 80.561 98.6639 80.4517 99.2524 80.4517C99.8462 80.4517 100.38 80.561 100.854 80.7798C101.333 80.9933 101.739 81.2954 102.073 81.686C102.411 82.0715 102.669 82.5272 102.846 83.0532C103.023 83.5741 103.112 84.1392 103.112 84.7485V84.9282C103.112 85.5376 103.023 86.1027 102.846 86.6235C102.669 87.1444 102.411 87.6001 102.073 87.9907C101.739 88.3761 101.336 88.6782 100.862 88.897C100.393 89.1105 99.8618 89.2173 99.2681 89.2173C98.6743 89.2173 98.1405 89.1105 97.6665 88.897C97.1925 88.6782 96.7863 88.3761 96.4478 87.9907C96.1144 87.6001 95.8592 87.1444 95.6821 86.6235C95.505 86.1027 95.4165 85.5376 95.4165 84.9282ZM96.8618 84.7485V84.9282C96.8618 85.3501 96.9113 85.7485 97.0103 86.1235C97.1092 86.4933 97.2576 86.8215 97.4556 87.1079C97.6587 87.3944 97.9113 87.6209 98.2134 87.7876C98.5155 87.9491 98.867 88.0298 99.2681 88.0298C99.6639 88.0298 100.01 87.9491 100.307 87.7876C100.609 87.6209 100.859 87.3944 101.057 87.1079C101.255 86.8215 101.403 86.4933 101.502 86.1235C101.607 85.7485 101.659 85.3501 101.659 84.9282V84.7485C101.659 84.3319 101.607 83.9386 101.502 83.5688C101.403 83.1938 101.252 82.8631 101.049 82.5767C100.851 82.285 100.601 82.0558 100.299 81.8892C100.002 81.7225 99.6535 81.6392 99.2524 81.6392C98.8566 81.6392 98.5076 81.7225 98.2056 81.8892C97.9087 82.0558 97.6587 82.285 97.4556 82.5767C97.2576 82.8631 97.1092 83.1938 97.0103 83.5688C96.9113 83.9386 96.8618 84.3319 96.8618 84.7485ZM107.315 85.3813L104.112 80.6079H105.854L108.042 84.1079H109.729L109.518 85.3813H107.315ZM108.104 85.2329L105.651 89.061H103.823L107.19 84.186L108.104 85.2329ZM110.471 80.6079V89.061H109.026V80.6079H110.471ZM115.401 80.6079L112.198 85.3813H109.995L109.768 84.1079H111.463L113.651 80.6079H115.401ZM113.854 89.061L111.393 85.2329L112.323 84.186L115.682 89.061H113.854ZM122.752 84.272V85.4438H118.284V84.272H122.752ZM118.588 80.6079V89.061H117.143V80.6079H118.588ZM123.924 80.6079V89.061H122.471V80.6079H123.924ZM125.87 84.9282V84.7485C125.87 84.1392 125.958 83.5741 126.135 83.0532C126.312 82.5272 126.568 82.0715 126.901 81.686C127.234 81.2954 127.638 80.9933 128.112 80.7798C128.586 80.561 129.117 80.4517 129.706 80.4517C130.299 80.4517 130.833 80.561 131.307 80.7798C131.786 80.9933 132.193 81.2954 132.526 81.686C132.864 82.0715 133.122 82.5272 133.299 83.0532C133.476 83.5741 133.565 84.1392 133.565 84.7485V84.9282C133.565 85.5376 133.476 86.1027 133.299 86.6235C133.122 87.1444 132.864 87.6001 132.526 87.9907C132.193 88.3761 131.789 88.6782 131.315 88.897C130.846 89.1105 130.315 89.2173 129.721 89.2173C129.127 89.2173 128.594 89.1105 128.12 88.897C127.646 88.6782 127.239 88.3761 126.901 87.9907C126.568 87.6001 126.312 87.1444 126.135 86.6235C125.958 86.1027 125.87 85.5376 125.87 84.9282ZM127.315 84.7485V84.9282C127.315 85.3501 127.364 85.7485 127.463 86.1235C127.562 86.4933 127.711 86.8215 127.909 87.1079C128.112 87.3944 128.364 87.6209 128.667 87.7876C128.969 87.9491 129.32 88.0298 129.721 88.0298C130.117 88.0298 130.463 87.9491 130.76 87.7876C131.062 87.6209 131.312 87.3944 131.51 87.1079C131.708 86.8215 131.857 86.4933 131.956 86.1235C132.06 85.7485 132.112 85.3501 132.112 84.9282V84.7485C132.112 84.3319 132.06 83.9386 131.956 83.5688C131.857 83.1938 131.706 82.8631 131.502 82.5767C131.305 82.285 131.055 82.0558 130.752 81.8892C130.456 81.7225 130.107 81.6392 129.706 81.6392C129.31 81.6392 128.961 81.7225 128.659 81.8892C128.362 82.0558 128.112 82.285 127.909 82.5767C127.711 82.8631 127.562 83.1938 127.463 83.5688C127.364 83.9386 127.315 84.3319 127.315 84.7485ZM138.76 88.0298C139.104 88.0298 139.422 87.9595 139.713 87.8188C140.005 87.6782 140.245 87.4855 140.432 87.2407C140.62 86.9907 140.726 86.7069 140.752 86.3892H142.127C142.101 86.8892 141.932 87.3553 141.62 87.7876C141.312 88.2147 140.909 88.561 140.409 88.8267C139.909 89.0871 139.359 89.2173 138.76 89.2173C138.125 89.2173 137.57 89.1053 137.096 88.8813C136.627 88.6574 136.237 88.3501 135.924 87.9595C135.617 87.5688 135.385 87.1209 135.229 86.6157C135.078 86.1053 135.002 85.5662 135.002 84.9985V84.6704C135.002 84.1027 135.078 83.5662 135.229 83.061C135.385 82.5506 135.617 82.1001 135.924 81.7095C136.237 81.3188 136.627 81.0116 137.096 80.7876C137.57 80.5636 138.125 80.4517 138.76 80.4517C139.422 80.4517 140 80.5871 140.495 80.8579C140.989 81.1235 141.377 81.4881 141.659 81.9517C141.945 82.41 142.101 82.9308 142.127 83.5142H140.752C140.726 83.1652 140.627 82.8501 140.456 82.5688C140.289 82.2876 140.06 82.0636 139.768 81.897C139.482 81.7251 139.146 81.6392 138.76 81.6392C138.318 81.6392 137.945 81.7277 137.643 81.9048C137.346 82.0767 137.109 82.311 136.932 82.6079C136.76 82.8996 136.635 83.2251 136.557 83.5845C136.484 83.9386 136.448 84.3006 136.448 84.6704V84.9985C136.448 85.3683 136.484 85.7329 136.557 86.0923C136.63 86.4517 136.752 86.7772 136.924 87.0688C137.101 87.3605 137.338 87.5949 137.635 87.772C137.937 87.9438 138.312 88.0298 138.76 88.0298ZM147.198 80.6079V89.061H145.745V80.6079H147.198ZM150.034 80.6079V81.7798H142.963V80.6079H150.034ZM152.643 83.5142H155.182C155.864 83.5142 156.44 83.634 156.909 83.8735C157.377 84.1079 157.732 84.4334 157.971 84.8501C158.216 85.2616 158.338 85.7303 158.338 86.2563C158.338 86.647 158.271 87.0142 158.135 87.3579C158 87.6965 157.797 87.9933 157.526 88.2485C157.26 88.5037 156.93 88.7043 156.534 88.8501C156.143 88.9907 155.693 89.061 155.182 89.061H151.588V80.6079H153.034V87.8735H155.182C155.599 87.8735 155.932 87.798 156.182 87.647C156.432 87.4959 156.612 87.3006 156.721 87.061C156.831 86.8215 156.885 86.5715 156.885 86.311C156.885 86.0558 156.831 85.8058 156.721 85.561C156.612 85.3162 156.432 85.1131 156.182 84.9517C155.932 84.785 155.599 84.7017 155.182 84.7017H152.643V83.5142ZM167.073 81.6392C166.755 81.6392 166.45 81.7095 166.159 81.8501C165.872 81.9907 165.635 82.186 165.448 82.436C165.265 82.6808 165.174 82.9647 165.174 83.2876H163.792C163.792 82.7824 163.948 82.3162 164.26 81.8892C164.573 81.4569 164.979 81.1105 165.479 80.8501C165.979 80.5845 166.51 80.4517 167.073 80.4517C167.667 80.4517 168.193 80.5636 168.651 80.7876C169.109 81.0116 169.495 81.3188 169.807 81.7095C170.125 82.1001 170.364 82.5506 170.526 83.061C170.687 83.5662 170.768 84.1027 170.768 84.6704V84.9985C170.768 85.5662 170.685 86.1053 170.518 86.6157C170.357 87.1209 170.117 87.5715 169.799 87.9673C169.487 88.3579 169.101 88.6652 168.643 88.8892C168.19 89.1131 167.669 89.2251 167.081 89.2251C166.45 89.2251 165.885 89.0897 165.385 88.8188C164.89 88.548 164.5 88.1834 164.213 87.7251C163.932 87.2616 163.792 86.7407 163.792 86.1626H165.174C165.174 86.5116 165.258 86.8293 165.424 87.1157C165.596 87.397 165.825 87.6209 166.112 87.7876C166.398 87.9543 166.721 88.0376 167.081 88.0376C167.471 88.0376 167.807 87.9491 168.088 87.772C168.375 87.5949 168.609 87.3605 168.792 87.0688C168.974 86.7772 169.107 86.4517 169.19 86.0923C169.278 85.7277 169.323 85.3631 169.323 84.9985V84.6704C169.323 84.3006 169.278 83.936 169.19 83.5767C169.107 83.2173 168.974 82.8918 168.792 82.6001C168.614 82.3084 168.383 82.0767 168.096 81.9048C167.815 81.7277 167.474 81.6392 167.073 81.6392ZM170.026 84.1626V85.3423H166.127V84.1626H170.026ZM176.69 85.3423H173.917L173.901 84.186H176.167C176.614 84.186 176.987 84.1418 177.284 84.0532C177.586 83.9647 177.812 83.8319 177.963 83.6548C178.114 83.4777 178.19 83.259 178.19 82.9985C178.19 82.7954 178.146 82.6183 178.057 82.4673C177.974 82.311 177.846 82.1834 177.674 82.0845C177.502 81.9803 177.289 81.9048 177.034 81.8579C176.784 81.8058 176.489 81.7798 176.151 81.7798H174.299V89.061H172.854V80.6079H176.151C176.687 80.6079 177.169 80.6548 177.596 80.7485C178.028 80.8423 178.396 80.9855 178.698 81.1782C179.005 81.3657 179.239 81.6053 179.401 81.897C179.562 82.1886 179.643 82.5324 179.643 82.9282C179.643 83.1834 179.591 83.4256 179.487 83.6548C179.383 83.884 179.229 84.0871 179.026 84.2642C178.823 84.4412 178.573 84.5871 178.276 84.7017C177.979 84.811 177.638 84.8813 177.252 84.9126L176.69 85.3423ZM176.69 89.061H173.393L174.112 87.8892H176.69C177.091 87.8892 177.424 87.8397 177.69 87.7407C177.956 87.6366 178.153 87.4907 178.284 87.3032C178.419 87.1105 178.487 86.8813 178.487 86.6157C178.487 86.3501 178.419 86.1235 178.284 85.936C178.153 85.7433 177.956 85.5975 177.69 85.4985C177.424 85.3944 177.091 85.3423 176.69 85.3423H174.495L174.51 84.186H177.252L177.776 84.6235C178.239 84.66 178.633 84.7746 178.956 84.9673C179.278 85.16 179.523 85.4048 179.69 85.7017C179.857 85.9933 179.94 86.311 179.94 86.6548C179.94 87.0506 179.864 87.3996 179.713 87.7017C179.568 88.0037 179.354 88.2563 179.073 88.4595C178.792 88.6574 178.45 88.8084 178.049 88.9126C177.648 89.0116 177.195 89.061 176.69 89.061ZM181.495 84.9282V84.7485C181.495 84.1392 181.583 83.5741 181.76 83.0532C181.937 82.5272 182.193 82.0715 182.526 81.686C182.859 81.2954 183.263 80.9933 183.737 80.7798C184.211 80.561 184.742 80.4517 185.331 80.4517C185.924 80.4517 186.458 80.561 186.932 80.7798C187.411 80.9933 187.818 81.2954 188.151 81.686C188.489 82.0715 188.747 82.5272 188.924 83.0532C189.101 83.5741 189.19 84.1392 189.19 84.7485V84.9282C189.19 85.5376 189.101 86.1027 188.924 86.6235C188.747 87.1444 188.489 87.6001 188.151 87.9907C187.818 88.3761 187.414 88.6782 186.94 88.897C186.471 89.1105 185.94 89.2173 185.346 89.2173C184.752 89.2173 184.219 89.1105 183.745 88.897C183.271 88.6782 182.864 88.3761 182.526 87.9907C182.193 87.6001 181.937 87.1444 181.76 86.6235C181.583 86.1027 181.495 85.5376 181.495 84.9282ZM182.94 84.7485V84.9282C182.94 85.3501 182.989 85.7485 183.088 86.1235C183.187 86.4933 183.336 86.8215 183.534 87.1079C183.737 87.3944 183.989 87.6209 184.292 87.7876C184.594 87.9491 184.945 88.0298 185.346 88.0298C185.742 88.0298 186.088 87.9491 186.385 87.7876C186.687 87.6209 186.937 87.3944 187.135 87.1079C187.333 86.8215 187.482 86.4933 187.581 86.1235C187.685 85.7485 187.737 85.3501 187.737 84.9282V84.7485C187.737 84.3319 187.685 83.9386 187.581 83.5688C187.482 83.1938 187.331 82.8631 187.127 82.5767C186.93 82.285 186.68 82.0558 186.377 81.8892C186.081 81.7225 185.732 81.6392 185.331 81.6392C184.935 81.6392 184.586 81.7225 184.284 81.8892C183.987 82.0558 183.737 82.285 183.534 82.5767C183.336 82.8631 183.187 83.1938 183.088 83.5688C182.989 83.9386 182.94 84.3319 182.94 84.7485ZM196.526 80.6079V81.8032H192.44V80.6079H196.526ZM197.799 80.6079V89.061H196.354V80.6079H197.799ZM192.088 80.6079H193.542L193.323 84.686C193.286 85.3162 193.226 85.8735 193.143 86.3579C193.065 86.8371 192.956 87.2485 192.815 87.5923C192.68 87.936 192.508 88.2173 192.299 88.436C192.096 88.6496 191.851 88.8084 191.565 88.9126C191.278 89.0116 190.948 89.061 190.573 89.061H190.12V87.7876L190.432 87.7642C190.656 87.7485 190.846 87.6965 191.002 87.6079C191.164 87.5194 191.299 87.3892 191.409 87.2173C191.518 87.0402 191.607 86.8136 191.674 86.5376C191.747 86.2616 191.802 85.9334 191.838 85.5532C191.88 85.173 191.911 84.7303 191.932 84.2251L192.088 80.6079ZM204.94 84.1938V85.3735H200.448V84.1938H204.94ZM201.706 80.6079V89.061H200.26V80.6079H201.706ZM203.706 84.9282V84.7485C203.706 84.1392 203.794 83.5741 203.971 83.0532C204.148 82.5272 204.403 82.0715 204.737 81.686C205.075 81.2954 205.479 80.9933 205.948 80.7798C206.422 80.561 206.953 80.4517 207.542 80.4517C208.14 80.4517 208.677 80.561 209.151 80.7798C209.625 80.9933 210.028 81.2954 210.362 81.686C210.7 82.0715 210.958 82.5272 211.135 83.0532C211.312 83.5741 211.401 84.1392 211.401 84.7485V84.9282C211.401 85.5376 211.312 86.1027 211.135 86.6235C210.958 87.1444 210.703 87.6001 210.37 87.9907C210.036 88.3761 209.633 88.6782 209.159 88.897C208.685 89.1105 208.151 89.2173 207.557 89.2173C206.963 89.2173 206.43 89.1105 205.956 88.897C205.482 88.6782 205.075 88.3761 204.737 87.9907C204.403 87.6001 204.148 87.1444 203.971 86.6235C203.794 86.1027 203.706 85.5376 203.706 84.9282ZM205.159 84.7485V84.9282C205.159 85.3501 205.208 85.7485 205.307 86.1235C205.406 86.4933 205.555 86.8215 205.752 87.1079C205.956 87.3944 206.206 87.6209 206.502 87.7876C206.805 87.9491 207.156 88.0298 207.557 88.0298C207.958 88.0298 208.307 87.9491 208.604 87.7876C208.906 87.6209 209.156 87.3944 209.354 87.1079C209.552 86.8215 209.7 86.4933 209.799 86.1235C209.903 85.7485 209.956 85.3501 209.956 84.9282V84.7485C209.956 84.3319 209.903 83.9386 209.799 83.5688C209.7 83.1938 209.549 82.8631 209.346 82.5767C209.148 82.285 208.898 82.0558 208.596 81.8892C208.294 81.7225 207.943 81.6392 207.542 81.6392C207.146 81.6392 206.799 81.7225 206.502 81.8892C206.206 82.0558 205.956 82.285 205.752 82.5767C205.555 82.8631 205.406 83.1938 205.307 83.5688C205.208 83.9386 205.159 84.3319 205.159 84.7485ZM213.315 89.061V80.6079H214.76V87.8735H218.651V80.6079H220.104V89.061H213.315ZM221.104 87.8735L220.963 91.5688H219.674V89.061H218.573V87.8735H221.104ZM224.237 86.772L228.135 80.6079H229.588V89.061H228.135V82.897L224.237 89.061H222.799V80.6079H224.237V86.772ZM233.471 86.772L237.37 80.6079H238.823V89.061H237.37V82.897L233.471 89.061H232.034V80.6079H233.471V86.772ZM54.8228 99.6079V108.061H53.3696V99.6079H54.8228ZM57.6587 99.6079V100.78H50.5884V99.6079H57.6587ZM63.0493 104.342H60.2759L60.2603 103.186H62.5259C62.9738 103.186 63.3462 103.142 63.6431 103.053C63.9451 102.965 64.1717 102.832 64.3228 102.655C64.4738 102.478 64.5493 102.259 64.5493 101.999C64.5493 101.795 64.505 101.618 64.4165 101.467C64.3332 101.311 64.2056 101.183 64.0337 101.084C63.8618 100.98 63.6483 100.905 63.3931 100.858C63.1431 100.806 62.8488 100.78 62.5103 100.78H60.6587V108.061H59.2134V99.6079H62.5103C63.0467 99.6079 63.5285 99.6548 63.9556 99.7485C64.3879 99.8423 64.755 99.9855 65.0571 100.178C65.3644 100.366 65.5988 100.605 65.7603 100.897C65.9217 101.189 66.0024 101.532 66.0024 101.928C66.0024 102.183 65.9504 102.426 65.8462 102.655C65.742 102.884 65.5884 103.087 65.3853 103.264C65.1821 103.441 64.9321 103.587 64.6353 103.702C64.3384 103.811 63.9972 103.881 63.6118 103.913L63.0493 104.342ZM63.0493 108.061H59.7524L60.4712 106.889H63.0493C63.4504 106.889 63.7837 106.84 64.0493 106.741C64.3149 106.637 64.5129 106.491 64.6431 106.303C64.7785 106.111 64.8462 105.881 64.8462 105.616C64.8462 105.35 64.7785 105.124 64.6431 104.936C64.5129 104.743 64.3149 104.597 64.0493 104.499C63.7837 104.394 63.4504 104.342 63.0493 104.342H60.854L60.8696 103.186H63.6118L64.1353 103.624C64.5988 103.66 64.992 103.775 65.3149 103.967C65.6379 104.16 65.8826 104.405 66.0493 104.702C66.216 104.993 66.2993 105.311 66.2993 105.655C66.2993 106.051 66.2238 106.4 66.0728 106.702C65.9269 107.004 65.7134 107.256 65.4321 107.459C65.1509 107.657 64.8097 107.808 64.4087 107.913C64.0076 108.012 63.5545 108.061 63.0493 108.061ZM67.854 103.928V103.749C67.854 103.139 67.9425 102.574 68.1196 102.053C68.2967 101.527 68.5519 101.071 68.8853 100.686C69.2186 100.295 69.6222 99.9933 70.0962 99.7798C70.5701 99.561 71.1014 99.4517 71.6899 99.4517C72.2837 99.4517 72.8175 99.561 73.2915 99.7798C73.7707 99.9933 74.1769 100.295 74.5103 100.686C74.8488 101.071 75.1066 101.527 75.2837 102.053C75.4608 102.574 75.5493 103.139 75.5493 103.749V103.928C75.5493 104.538 75.4608 105.103 75.2837 105.624C75.1066 106.144 74.8488 106.6 74.5103 106.991C74.1769 107.376 73.7733 107.678 73.2993 107.897C72.8306 108.111 72.2993 108.217 71.7056 108.217C71.1118 108.217 70.578 108.111 70.104 107.897C69.63 107.678 69.2238 107.376 68.8853 106.991C68.5519 106.6 68.2967 106.144 68.1196 105.624C67.9425 105.103 67.854 104.538 67.854 103.928ZM69.2993 103.749V103.928C69.2993 104.35 69.3488 104.749 69.4478 105.124C69.5467 105.493 69.6951 105.821 69.8931 106.108C70.0962 106.394 70.3488 106.621 70.6509 106.788C70.953 106.949 71.3045 107.03 71.7056 107.03C72.1014 107.03 72.4478 106.949 72.7446 106.788C73.0467 106.621 73.2967 106.394 73.4946 106.108C73.6925 105.821 73.841 105.493 73.9399 105.124C74.0441 104.749 74.0962 104.35 74.0962 103.928V103.749C74.0962 103.332 74.0441 102.939 73.9399 102.569C73.841 102.194 73.6899 101.863 73.4868 101.577C73.2889 101.285 73.0389 101.056 72.7368 100.889C72.4399 100.722 72.091 100.639 71.6899 100.639C71.2941 100.639 70.9451 100.722 70.6431 100.889C70.3462 101.056 70.0962 101.285 69.8931 101.577C69.6951 101.863 69.5467 102.194 69.4478 102.569C69.3488 102.939 69.2993 103.332 69.2993 103.749ZM80.8696 108.217C80.2811 108.217 79.7472 108.118 79.2681 107.92C78.7941 107.717 78.3853 107.433 78.0415 107.069C77.703 106.704 77.4425 106.272 77.2603 105.772C77.078 105.272 76.9868 104.725 76.9868 104.131V103.803C76.9868 103.116 77.0884 102.504 77.2915 101.967C77.4946 101.426 77.7707 100.967 78.1196 100.592C78.4686 100.217 78.8644 99.9334 79.3071 99.7407C79.7498 99.548 80.2082 99.4517 80.6821 99.4517C81.2863 99.4517 81.8071 99.5558 82.2446 99.7642C82.6873 99.9725 83.0493 100.264 83.3306 100.639C83.6118 101.009 83.8201 101.446 83.9556 101.952C84.091 102.452 84.1587 102.999 84.1587 103.592V104.241H77.8462V103.061H82.7134V102.952C82.6925 102.577 82.6144 102.212 82.479 101.858C82.3488 101.504 82.1405 101.212 81.854 100.983C81.5675 100.754 81.1769 100.639 80.6821 100.639C80.354 100.639 80.0519 100.709 79.7759 100.85C79.4998 100.986 79.2629 101.189 79.0649 101.459C78.867 101.73 78.7134 102.061 78.604 102.452C78.4946 102.842 78.4399 103.293 78.4399 103.803V104.131C78.4399 104.532 78.4946 104.91 78.604 105.264C78.7186 105.613 78.8826 105.92 79.0962 106.186C79.3149 106.452 79.578 106.66 79.8853 106.811C80.1978 106.962 80.5519 107.038 80.9478 107.038C81.4582 107.038 81.8905 106.933 82.2446 106.725C82.5988 106.517 82.9087 106.238 83.1743 105.889L84.0493 106.584C83.867 106.861 83.6353 107.124 83.354 107.374C83.0728 107.624 82.7264 107.827 82.3149 107.983C81.9087 108.139 81.4269 108.217 80.8696 108.217ZM87.4087 105.772L91.3071 99.6079H92.7603V108.061H91.3071V101.897L87.4087 108.061H85.9712V99.6079H87.4087V105.772ZM90.5181 96.5454H91.6899C91.6899 96.9517 91.5962 97.3136 91.4087 97.6313C91.2212 97.9438 90.953 98.1886 90.604 98.3657C90.255 98.5428 89.841 98.6313 89.3618 98.6313C88.6379 98.6313 88.0649 98.4386 87.6431 98.0532C87.2264 97.6626 87.0181 97.16 87.0181 96.5454H88.1899C88.1899 96.8527 88.2785 97.1235 88.4556 97.3579C88.6326 97.5923 88.9347 97.7095 89.3618 97.7095C89.7785 97.7095 90.0754 97.5923 90.2524 97.3579C90.4295 97.1235 90.5181 96.8527 90.5181 96.5454ZM108.018 96.686V108.061H106.502L100.776 99.2876V108.061H99.2681V96.686H100.776L106.526 105.483V96.686H108.018ZM112.198 96.686V108.061H110.69V96.686H112.198ZM116.963 101.803V103.038H111.87V101.803H116.963ZM117.737 96.686V97.9204H111.87V96.686H117.737ZM123.893 96.686V108.061H122.409V96.686H123.893ZM127.549 96.686V97.9204H118.76V96.686H127.549ZM138.096 95.9282H139.284C139.284 96.4386 139.206 96.8449 139.049 97.147C138.893 97.4438 138.68 97.673 138.409 97.8345C138.143 97.9959 137.841 98.1183 137.502 98.2017C137.169 98.285 136.823 98.3657 136.463 98.4438C136.015 98.5376 135.599 98.686 135.213 98.8892C134.833 99.0871 134.505 99.3683 134.229 99.7329C133.958 100.097 133.758 100.571 133.627 101.155C133.502 101.738 133.469 102.459 133.526 103.319V104.038H132.338V103.319C132.338 102.355 132.43 101.514 132.612 100.795C132.799 100.077 133.062 99.4699 133.401 98.9751C133.739 98.4803 134.14 98.0871 134.604 97.7954C135.073 97.5037 135.588 97.3032 136.151 97.1938C136.557 97.1157 136.906 97.0324 137.198 96.9438C137.489 96.8501 137.711 96.7251 137.862 96.5688C138.018 96.4126 138.096 96.1991 138.096 95.9282ZM136.385 100.092C136.937 100.092 137.43 100.189 137.862 100.381C138.294 100.574 138.661 100.842 138.963 101.186C139.265 101.53 139.495 101.936 139.651 102.405C139.812 102.868 139.893 103.374 139.893 103.92V104.092C139.893 104.681 139.807 105.228 139.635 105.733C139.469 106.233 139.221 106.67 138.893 107.045C138.57 107.415 138.174 107.704 137.706 107.913C137.242 108.121 136.713 108.225 136.12 108.225C135.526 108.225 134.995 108.121 134.526 107.913C134.062 107.704 133.667 107.415 133.338 107.045C133.01 106.67 132.76 106.233 132.588 105.733C132.422 105.228 132.338 104.681 132.338 104.092V103.92C132.338 103.79 132.362 103.663 132.409 103.538C132.456 103.413 132.513 103.285 132.581 103.155C132.653 103.025 132.719 102.887 132.776 102.741C132.969 102.272 133.232 101.837 133.565 101.436C133.903 101.035 134.307 100.712 134.776 100.467C135.25 100.217 135.786 100.092 136.385 100.092ZM136.104 101.272C135.573 101.272 135.135 101.394 134.792 101.639C134.453 101.884 134.2 102.209 134.034 102.616C133.867 103.017 133.784 103.452 133.784 103.92V104.092C133.784 104.488 133.831 104.863 133.924 105.217C134.018 105.571 134.159 105.887 134.346 106.163C134.539 106.433 134.781 106.647 135.073 106.803C135.37 106.959 135.719 107.038 136.12 107.038C136.521 107.038 136.867 106.959 137.159 106.803C137.45 106.647 137.69 106.433 137.877 106.163C138.065 105.887 138.206 105.571 138.299 105.217C138.393 104.863 138.44 104.488 138.44 104.092V103.92C138.44 103.566 138.393 103.23 138.299 102.913C138.206 102.595 138.062 102.314 137.87 102.069C137.682 101.824 137.44 101.631 137.143 101.491C136.851 101.345 136.505 101.272 136.104 101.272ZM147.182 99.6079V100.803H143.096V99.6079H147.182ZM148.456 99.6079V108.061H147.01V99.6079H148.456ZM142.745 99.6079H144.198L143.979 103.686C143.943 104.316 143.883 104.874 143.799 105.358C143.721 105.837 143.612 106.249 143.471 106.592C143.336 106.936 143.164 107.217 142.956 107.436C142.752 107.65 142.508 107.808 142.221 107.913C141.935 108.012 141.604 108.061 141.229 108.061H140.776V106.788L141.088 106.764C141.312 106.749 141.502 106.696 141.659 106.608C141.82 106.519 141.956 106.389 142.065 106.217C142.174 106.04 142.263 105.814 142.331 105.538C142.403 105.262 142.458 104.933 142.495 104.553C142.536 104.173 142.568 103.73 142.588 103.225L142.745 99.6079ZM155.768 106.616V102.264C155.768 101.931 155.7 101.642 155.565 101.397C155.435 101.147 155.237 100.954 154.971 100.819C154.706 100.683 154.377 100.616 153.987 100.616C153.622 100.616 153.302 100.678 153.026 100.803C152.755 100.928 152.542 101.092 152.385 101.295C152.234 101.499 152.159 101.717 152.159 101.952H150.713C150.713 101.65 150.792 101.35 150.948 101.053C151.104 100.756 151.328 100.488 151.62 100.249C151.917 100.004 152.271 99.811 152.682 99.6704C153.099 99.5246 153.562 99.4517 154.073 99.4517C154.687 99.4517 155.229 99.5558 155.698 99.7642C156.172 99.9725 156.542 100.288 156.807 100.709C157.078 101.126 157.213 101.65 157.213 102.28V106.217C157.213 106.499 157.237 106.798 157.284 107.116C157.336 107.433 157.411 107.707 157.51 107.936V108.061H156.002C155.93 107.894 155.872 107.673 155.831 107.397C155.789 107.116 155.768 106.855 155.768 106.616ZM156.018 102.936L156.034 103.952H154.573C154.161 103.952 153.794 103.986 153.471 104.053C153.148 104.116 152.877 104.212 152.659 104.342C152.44 104.472 152.273 104.637 152.159 104.834C152.044 105.027 151.987 105.254 151.987 105.514C151.987 105.78 152.047 106.022 152.167 106.241C152.286 106.459 152.466 106.634 152.706 106.764C152.95 106.889 153.25 106.952 153.604 106.952C154.047 106.952 154.437 106.858 154.776 106.67C155.114 106.483 155.383 106.254 155.581 105.983C155.784 105.712 155.893 105.449 155.909 105.194L156.526 105.889C156.489 106.108 156.39 106.35 156.229 106.616C156.068 106.881 155.851 107.137 155.581 107.381C155.315 107.621 154.997 107.821 154.627 107.983C154.263 108.139 153.851 108.217 153.393 108.217C152.82 108.217 152.318 108.105 151.885 107.881C151.458 107.657 151.125 107.358 150.885 106.983C150.651 106.603 150.534 106.178 150.534 105.709C150.534 105.256 150.622 104.858 150.799 104.514C150.976 104.165 151.232 103.876 151.565 103.647C151.898 103.413 152.299 103.236 152.768 103.116C153.237 102.996 153.76 102.936 154.338 102.936H156.018ZM164.948 99.6079V100.803H161.042V108.061H159.596V99.6079H164.948ZM165.667 103.928V103.749C165.667 103.139 165.755 102.574 165.932 102.053C166.109 101.527 166.364 101.071 166.698 100.686C167.031 100.295 167.435 99.9933 167.909 99.7798C168.383 99.561 168.914 99.4517 169.502 99.4517C170.096 99.4517 170.63 99.561 171.104 99.7798C171.583 99.9933 171.989 100.295 172.323 100.686C172.661 101.071 172.919 101.527 173.096 102.053C173.273 102.574 173.362 103.139 173.362 103.749V103.928C173.362 104.538 173.273 105.103 173.096 105.624C172.919 106.144 172.661 106.6 172.323 106.991C171.989 107.376 171.586 107.678 171.112 107.897C170.643 108.111 170.112 108.217 169.518 108.217C168.924 108.217 168.39 108.111 167.917 107.897C167.443 107.678 167.036 107.376 166.698 106.991C166.364 106.6 166.109 106.144 165.932 105.624C165.755 105.103 165.667 104.538 165.667 103.928ZM167.112 103.749V103.928C167.112 104.35 167.161 104.749 167.26 105.124C167.359 105.493 167.508 105.821 167.706 106.108C167.909 106.394 168.161 106.621 168.463 106.788C168.765 106.949 169.117 107.03 169.518 107.03C169.914 107.03 170.26 106.949 170.557 106.788C170.859 106.621 171.109 106.394 171.307 106.108C171.505 105.821 171.653 105.493 171.752 105.124C171.857 104.749 171.909 104.35 171.909 103.928V103.749C171.909 103.332 171.857 102.939 171.752 102.569C171.653 102.194 171.502 101.863 171.299 101.577C171.101 101.285 170.851 101.056 170.549 100.889C170.252 100.722 169.903 100.639 169.502 100.639C169.107 100.639 168.758 100.722 168.456 100.889C168.159 101.056 167.909 101.285 167.706 101.577C167.508 101.863 167.359 102.194 167.26 102.569C167.161 102.939 167.112 103.332 167.112 103.749ZM176.135 99.6079H177.581L177.456 102.772C177.424 103.574 177.333 104.267 177.182 104.85C177.031 105.433 176.838 105.931 176.604 106.342C176.37 106.749 176.107 107.09 175.815 107.366C175.528 107.642 175.232 107.874 174.924 108.061H174.206L174.245 106.881L174.542 106.874C174.713 106.67 174.88 106.462 175.042 106.249C175.203 106.03 175.351 105.772 175.487 105.475C175.622 105.173 175.734 104.806 175.823 104.374C175.917 103.936 175.976 103.402 176.002 102.772L176.135 99.6079ZM176.495 99.6079H181.581V108.061H180.135V100.944H176.495V99.6079ZM173.877 106.874H182.667V110.553H181.221V108.061H175.323V110.553H173.87L173.877 106.874ZM189.252 106.616V102.264C189.252 101.931 189.185 101.642 189.049 101.397C188.919 101.147 188.721 100.954 188.456 100.819C188.19 100.683 187.862 100.616 187.471 100.616C187.107 100.616 186.786 100.678 186.51 100.803C186.239 100.928 186.026 101.092 185.87 101.295C185.719 101.499 185.643 101.717 185.643 101.952H184.198C184.198 101.65 184.276 101.35 184.432 101.053C184.588 100.756 184.812 100.488 185.104 100.249C185.401 100.004 185.755 99.811 186.167 99.6704C186.583 99.5246 187.047 99.4517 187.557 99.4517C188.172 99.4517 188.713 99.5558 189.182 99.7642C189.656 99.9725 190.026 100.288 190.292 100.709C190.562 101.126 190.698 101.65 190.698 102.28V106.217C190.698 106.499 190.721 106.798 190.768 107.116C190.82 107.433 190.896 107.707 190.995 107.936V108.061H189.487C189.414 107.894 189.357 107.673 189.315 107.397C189.273 107.116 189.252 106.855 189.252 106.616ZM189.502 102.936L189.518 103.952H188.057C187.646 103.952 187.278 103.986 186.956 104.053C186.633 104.116 186.362 104.212 186.143 104.342C185.924 104.472 185.758 104.637 185.643 104.834C185.528 105.027 185.471 105.254 185.471 105.514C185.471 105.78 185.531 106.022 185.651 106.241C185.771 106.459 185.95 106.634 186.19 106.764C186.435 106.889 186.734 106.952 187.088 106.952C187.531 106.952 187.922 106.858 188.26 106.67C188.599 106.483 188.867 106.254 189.065 105.983C189.268 105.712 189.377 105.449 189.393 105.194L190.01 105.889C189.974 106.108 189.875 106.35 189.713 106.616C189.552 106.881 189.336 107.137 189.065 107.381C188.799 107.621 188.482 107.821 188.112 107.983C187.747 108.139 187.336 108.217 186.877 108.217C186.305 108.217 185.802 108.105 185.37 107.881C184.943 107.657 184.609 107.358 184.37 106.983C184.135 106.603 184.018 106.178 184.018 105.709C184.018 105.256 184.107 104.858 184.284 104.514C184.461 104.165 184.716 103.876 185.049 103.647C185.383 103.413 185.784 103.236 186.252 103.116C186.721 102.996 187.245 102.936 187.823 102.936H189.502ZM194.417 101.233V111.311H192.963V99.6079H194.292L194.417 101.233ZM200.112 103.764V103.928C200.112 104.543 200.039 105.113 199.893 105.639C199.747 106.16 199.534 106.613 199.252 106.999C198.976 107.384 198.635 107.683 198.229 107.897C197.823 108.111 197.357 108.217 196.831 108.217C196.294 108.217 195.82 108.129 195.409 107.952C194.997 107.775 194.648 107.517 194.362 107.178C194.075 106.84 193.846 106.433 193.674 105.959C193.508 105.486 193.393 104.952 193.331 104.358V103.483C193.393 102.858 193.51 102.298 193.682 101.803C193.854 101.308 194.081 100.887 194.362 100.538C194.648 100.183 194.995 99.9152 195.401 99.7329C195.807 99.5454 196.276 99.4517 196.807 99.4517C197.338 99.4517 197.81 99.5558 198.221 99.7642C198.633 99.9673 198.979 100.259 199.26 100.639C199.542 101.019 199.752 101.475 199.893 102.006C200.039 102.532 200.112 103.118 200.112 103.764ZM198.659 103.928V103.764C198.659 103.342 198.614 102.946 198.526 102.577C198.437 102.202 198.299 101.874 198.112 101.592C197.93 101.306 197.695 101.082 197.409 100.92C197.122 100.754 196.781 100.67 196.385 100.67C196.021 100.67 195.703 100.733 195.432 100.858C195.167 100.983 194.94 101.152 194.752 101.366C194.565 101.574 194.411 101.814 194.292 102.084C194.177 102.35 194.091 102.626 194.034 102.913V104.936C194.138 105.301 194.284 105.644 194.471 105.967C194.659 106.285 194.909 106.543 195.221 106.741C195.534 106.933 195.927 107.03 196.401 107.03C196.792 107.03 197.127 106.949 197.409 106.788C197.695 106.621 197.93 106.394 198.112 106.108C198.299 105.821 198.437 105.493 198.526 105.124C198.614 104.749 198.659 104.35 198.659 103.928ZM203.667 104.03H205.229L202.784 108.061H201.221L203.667 104.03ZM204.877 99.6079H208.409V108.061H206.963V100.78H204.877C204.466 100.78 204.13 100.85 203.87 100.991C203.609 101.126 203.419 101.303 203.299 101.522C203.18 101.741 203.12 101.967 203.12 102.202C203.12 102.431 203.174 102.652 203.284 102.866C203.393 103.074 203.565 103.246 203.799 103.381C204.034 103.517 204.336 103.584 204.706 103.584H207.354V104.772H204.706C204.221 104.772 203.792 104.707 203.417 104.577C203.042 104.446 202.724 104.267 202.463 104.038C202.203 103.803 202.005 103.53 201.87 103.217C201.734 102.9 201.667 102.556 201.667 102.186C201.667 101.816 201.737 101.475 201.877 101.163C202.023 100.85 202.232 100.577 202.502 100.342C202.778 100.108 203.114 99.9282 203.51 99.8032C203.911 99.673 204.367 99.6079 204.877 99.6079ZM223.674 96.686V108.061H222.159L216.432 99.2876V108.061H214.924V96.686H216.432L222.182 105.483V96.686H223.674ZM227.854 96.686V108.061H226.346V96.686H227.854ZM232.62 101.803V103.038H227.526V101.803H232.62ZM233.393 96.686V97.9204H227.526V96.686H233.393ZM239.549 96.686V108.061H238.065V96.686H239.549ZM243.206 96.686V97.9204H234.417V96.686H243.206ZM245.87 102.631V103.819H242.057V102.631H245.87ZM79.8384 124.772L83.7368 118.608H85.1899V127.061H83.7368V120.897L79.8384 127.061H78.4009V118.608H79.8384V124.772ZM92.9712 118.608V119.803H89.0649V127.061H87.6196V118.608H92.9712ZM95.6743 120.233V130.311H94.2212V118.608H95.5493L95.6743 120.233ZM101.37 122.764V122.928C101.37 123.543 101.297 124.113 101.151 124.639C101.005 125.16 100.792 125.613 100.51 125.999C100.234 126.384 99.8931 126.683 99.4868 126.897C99.0806 127.111 98.6144 127.217 98.0884 127.217C97.5519 127.217 97.078 127.129 96.6665 126.952C96.255 126.775 95.9061 126.517 95.6196 126.178C95.3332 125.84 95.104 125.433 94.9321 124.959C94.7655 124.486 94.6509 123.952 94.5884 123.358V122.483C94.6509 121.858 94.7681 121.298 94.9399 120.803C95.1118 120.308 95.3384 119.887 95.6196 119.538C95.9061 119.183 96.2524 118.915 96.6587 118.733C97.0649 118.545 97.5337 118.452 98.0649 118.452C98.5962 118.452 99.0675 118.556 99.479 118.764C99.8905 118.967 100.237 119.259 100.518 119.639C100.799 120.019 101.01 120.475 101.151 121.006C101.297 121.532 101.37 122.118 101.37 122.764ZM99.9165 122.928V122.764C99.9165 122.342 99.8722 121.946 99.7837 121.577C99.6951 121.202 99.5571 120.874 99.3696 120.592C99.1873 120.306 98.953 120.082 98.6665 119.92C98.38 119.754 98.0389 119.67 97.6431 119.67C97.2785 119.67 96.9608 119.733 96.6899 119.858C96.4243 119.983 96.1978 120.152 96.0103 120.366C95.8228 120.574 95.6691 120.814 95.5493 121.084C95.4347 121.35 95.3488 121.626 95.2915 121.913V123.936C95.3957 124.301 95.5415 124.644 95.729 124.967C95.9165 125.285 96.1665 125.543 96.479 125.741C96.7915 125.933 97.1847 126.03 97.6587 126.03C98.0493 126.03 98.3853 125.949 98.6665 125.788C98.953 125.621 99.1873 125.394 99.3696 125.108C99.5571 124.821 99.6951 124.493 99.7837 124.124C99.8722 123.749 99.9165 123.35 99.9165 122.928ZM106.721 127.217C106.133 127.217 105.599 127.118 105.12 126.92C104.646 126.717 104.237 126.433 103.893 126.069C103.555 125.704 103.294 125.272 103.112 124.772C102.93 124.272 102.838 123.725 102.838 123.131V122.803C102.838 122.116 102.94 121.504 103.143 120.967C103.346 120.426 103.622 119.967 103.971 119.592C104.32 119.217 104.716 118.933 105.159 118.741C105.601 118.548 106.06 118.452 106.534 118.452C107.138 118.452 107.659 118.556 108.096 118.764C108.539 118.972 108.901 119.264 109.182 119.639C109.463 120.009 109.672 120.446 109.807 120.952C109.943 121.452 110.01 121.999 110.01 122.592V123.241H103.698V122.061H108.565V121.952C108.544 121.577 108.466 121.212 108.331 120.858C108.2 120.504 107.992 120.212 107.706 119.983C107.419 119.754 107.028 119.639 106.534 119.639C106.206 119.639 105.903 119.709 105.627 119.85C105.351 119.986 105.114 120.189 104.917 120.459C104.719 120.73 104.565 121.061 104.456 121.452C104.346 121.842 104.292 122.293 104.292 122.803V123.131C104.292 123.532 104.346 123.91 104.456 124.264C104.57 124.613 104.734 124.92 104.948 125.186C105.167 125.452 105.43 125.66 105.737 125.811C106.049 125.962 106.403 126.038 106.799 126.038C107.31 126.038 107.742 125.933 108.096 125.725C108.45 125.517 108.76 125.238 109.026 124.889L109.901 125.584C109.719 125.861 109.487 126.124 109.206 126.374C108.924 126.624 108.578 126.827 108.167 126.983C107.76 127.139 107.278 127.217 106.721 127.217Z" fill="white"/>
<path d="M119.112 118.608V127.061H117.659V118.608H119.112ZM121.948 118.608V119.78H114.877V118.608H121.948ZM122.659 122.928V122.749C122.659 122.139 122.747 121.574 122.924 121.053C123.101 120.527 123.357 120.071 123.69 119.686C124.023 119.295 124.427 118.993 124.901 118.78C125.375 118.561 125.906 118.452 126.495 118.452C127.088 118.452 127.622 118.561 128.096 118.78C128.575 118.993 128.982 119.295 129.315 119.686C129.653 120.071 129.911 120.527 130.088 121.053C130.265 121.574 130.354 122.139 130.354 122.749V122.928C130.354 123.538 130.265 124.103 130.088 124.624C129.911 125.144 129.653 125.6 129.315 125.991C128.982 126.376 128.578 126.678 128.104 126.897C127.635 127.111 127.104 127.217 126.51 127.217C125.917 127.217 125.383 127.111 124.909 126.897C124.435 126.678 124.028 126.376 123.69 125.991C123.357 125.6 123.101 125.144 122.924 124.624C122.747 124.103 122.659 123.538 122.659 122.928ZM124.104 122.749V122.928C124.104 123.35 124.153 123.749 124.252 124.124C124.351 124.493 124.5 124.821 124.698 125.108C124.901 125.394 125.153 125.621 125.456 125.788C125.758 125.949 126.109 126.03 126.51 126.03C126.906 126.03 127.252 125.949 127.549 125.788C127.851 125.621 128.101 125.394 128.299 125.108C128.497 124.821 128.646 124.493 128.745 124.124C128.849 123.749 128.901 123.35 128.901 122.928V122.749C128.901 122.332 128.849 121.939 128.745 121.569C128.646 121.194 128.495 120.863 128.292 120.577C128.094 120.285 127.844 120.056 127.542 119.889C127.245 119.722 126.896 119.639 126.495 119.639C126.099 119.639 125.75 119.722 125.448 119.889C125.151 120.056 124.901 120.285 124.698 120.577C124.5 120.863 124.351 121.194 124.252 121.569C124.153 121.939 124.104 122.332 124.104 122.749ZM137.69 118.608V119.803H133.604V118.608H137.69ZM138.963 118.608V127.061H137.518V118.608H138.963ZM133.252 118.608H134.706L134.487 122.686C134.45 123.316 134.39 123.874 134.307 124.358C134.229 124.837 134.12 125.249 133.979 125.592C133.844 125.936 133.672 126.217 133.463 126.436C133.26 126.65 133.015 126.808 132.729 126.913C132.443 127.012 132.112 127.061 131.737 127.061H131.284V125.788L131.596 125.764C131.82 125.749 132.01 125.696 132.167 125.608C132.328 125.519 132.463 125.389 132.573 125.217C132.682 125.04 132.771 124.814 132.838 124.538C132.911 124.262 132.966 123.933 133.002 123.553C133.044 123.173 133.075 122.73 133.096 122.225L133.252 118.608ZM142.479 121.514H145.018C145.7 121.514 146.276 121.634 146.745 121.874C147.213 122.108 147.568 122.433 147.807 122.85C148.052 123.262 148.174 123.73 148.174 124.256C148.174 124.647 148.107 125.014 147.971 125.358C147.836 125.696 147.633 125.993 147.362 126.249C147.096 126.504 146.765 126.704 146.37 126.85C145.979 126.991 145.528 127.061 145.018 127.061H141.424V118.608H142.87V125.874H145.018C145.435 125.874 145.768 125.798 146.018 125.647C146.268 125.496 146.448 125.301 146.557 125.061C146.667 124.821 146.721 124.571 146.721 124.311C146.721 124.056 146.667 123.806 146.557 123.561C146.448 123.316 146.268 123.113 146.018 122.952C145.768 122.785 145.435 122.702 145.018 122.702H142.479V121.514ZM151.549 118.608V127.061H150.104V118.608H151.549ZM157.096 118.608L153.088 123.452H151.065L150.846 122.186H152.502L155.338 118.608H157.096ZM155.542 127.061L152.432 123.233L153.362 122.186L157.377 127.061H155.542ZM158.081 122.928V122.749C158.081 122.139 158.169 121.574 158.346 121.053C158.523 120.527 158.778 120.071 159.112 119.686C159.445 119.295 159.849 118.993 160.323 118.78C160.797 118.561 161.328 118.452 161.917 118.452C162.51 118.452 163.044 118.561 163.518 118.78C163.997 118.993 164.403 119.295 164.737 119.686C165.075 120.071 165.333 120.527 165.51 121.053C165.687 121.574 165.776 122.139 165.776 122.749V122.928C165.776 123.538 165.687 124.103 165.51 124.624C165.333 125.144 165.075 125.6 164.737 125.991C164.403 126.376 164 126.678 163.526 126.897C163.057 127.111 162.526 127.217 161.932 127.217C161.338 127.217 160.805 127.111 160.331 126.897C159.857 126.678 159.45 126.376 159.112 125.991C158.778 125.6 158.523 125.144 158.346 124.624C158.169 124.103 158.081 123.538 158.081 122.928ZM159.526 122.749V122.928C159.526 123.35 159.575 123.749 159.674 124.124C159.773 124.493 159.922 124.821 160.12 125.108C160.323 125.394 160.575 125.621 160.877 125.788C161.18 125.949 161.531 126.03 161.932 126.03C162.328 126.03 162.674 125.949 162.971 125.788C163.273 125.621 163.523 125.394 163.721 125.108C163.919 124.821 164.068 124.493 164.167 124.124C164.271 123.749 164.323 123.35 164.323 122.928V122.749C164.323 122.332 164.271 121.939 164.167 121.569C164.068 121.194 163.917 120.863 163.713 120.577C163.515 120.285 163.265 120.056 162.963 119.889C162.667 119.722 162.318 119.639 161.917 119.639C161.521 119.639 161.172 119.722 160.87 119.889C160.573 120.056 160.323 120.285 160.12 120.577C159.922 120.863 159.773 121.194 159.674 121.569C159.575 121.939 159.526 122.332 159.526 122.749ZM175.002 118.608V127.061H173.549V118.608H175.002ZM177.838 118.608V119.78H170.768V118.608H177.838ZM182.018 126.03C182.362 126.03 182.68 125.959 182.971 125.819C183.263 125.678 183.502 125.486 183.69 125.241C183.877 124.991 183.984 124.707 184.01 124.389H185.385C185.359 124.889 185.19 125.355 184.877 125.788C184.57 126.215 184.167 126.561 183.667 126.827C183.167 127.087 182.617 127.217 182.018 127.217C181.383 127.217 180.828 127.105 180.354 126.881C179.885 126.657 179.495 126.35 179.182 125.959C178.875 125.569 178.643 125.121 178.487 124.616C178.336 124.105 178.26 123.566 178.26 122.999V122.67C178.26 122.103 178.336 121.566 178.487 121.061C178.643 120.551 178.875 120.1 179.182 119.709C179.495 119.319 179.885 119.012 180.354 118.788C180.828 118.564 181.383 118.452 182.018 118.452C182.68 118.452 183.258 118.587 183.752 118.858C184.247 119.124 184.635 119.488 184.917 119.952C185.203 120.41 185.359 120.931 185.385 121.514H184.01C183.984 121.165 183.885 120.85 183.713 120.569C183.547 120.288 183.318 120.064 183.026 119.897C182.739 119.725 182.403 119.639 182.018 119.639C181.575 119.639 181.203 119.728 180.901 119.905C180.604 120.077 180.367 120.311 180.19 120.608C180.018 120.9 179.893 121.225 179.815 121.584C179.742 121.939 179.706 122.301 179.706 122.67V122.999C179.706 123.368 179.742 123.733 179.815 124.092C179.888 124.452 180.01 124.777 180.182 125.069C180.359 125.361 180.596 125.595 180.893 125.772C181.195 125.944 181.57 126.03 182.018 126.03ZM190.393 126.03C190.737 126.03 191.055 125.959 191.346 125.819C191.638 125.678 191.877 125.486 192.065 125.241C192.252 124.991 192.359 124.707 192.385 124.389H193.76C193.734 124.889 193.565 125.355 193.252 125.788C192.945 126.215 192.542 126.561 192.042 126.827C191.542 127.087 190.992 127.217 190.393 127.217C189.758 127.217 189.203 127.105 188.729 126.881C188.26 126.657 187.87 126.35 187.557 125.959C187.25 125.569 187.018 125.121 186.862 124.616C186.711 124.105 186.635 123.566 186.635 122.999V122.67C186.635 122.103 186.711 121.566 186.862 121.061C187.018 120.551 187.25 120.1 187.557 119.709C187.87 119.319 188.26 119.012 188.729 118.788C189.203 118.564 189.758 118.452 190.393 118.452C191.055 118.452 191.633 118.587 192.127 118.858C192.622 119.124 193.01 119.488 193.292 119.952C193.578 120.41 193.734 120.931 193.76 121.514H192.385C192.359 121.165 192.26 120.85 192.088 120.569C191.922 120.288 191.693 120.064 191.401 119.897C191.114 119.725 190.778 119.639 190.393 119.639C189.95 119.639 189.578 119.728 189.276 119.905C188.979 120.077 188.742 120.311 188.565 120.608C188.393 120.9 188.268 121.225 188.19 121.584C188.117 121.939 188.081 122.301 188.081 122.67V122.999C188.081 123.368 188.117 123.733 188.19 124.092C188.263 124.452 188.385 124.777 188.557 125.069C188.734 125.361 188.971 125.595 189.268 125.772C189.57 125.944 189.945 126.03 190.393 126.03ZM198.768 126.03C199.112 126.03 199.43 125.959 199.721 125.819C200.013 125.678 200.252 125.486 200.44 125.241C200.627 124.991 200.734 124.707 200.76 124.389H202.135C202.109 124.889 201.94 125.355 201.627 125.788C201.32 126.215 200.917 126.561 200.417 126.827C199.917 127.087 199.367 127.217 198.768 127.217C198.133 127.217 197.578 127.105 197.104 126.881C196.635 126.657 196.245 126.35 195.932 125.959C195.625 125.569 195.393 125.121 195.237 124.616C195.086 124.105 195.01 123.566 195.01 122.999V122.67C195.01 122.103 195.086 121.566 195.237 121.061C195.393 120.551 195.625 120.1 195.932 119.709C196.245 119.319 196.635 119.012 197.104 118.788C197.578 118.564 198.133 118.452 198.768 118.452C199.43 118.452 200.008 118.587 200.502 118.858C200.997 119.124 201.385 119.488 201.667 119.952C201.953 120.41 202.109 120.931 202.135 121.514H200.76C200.734 121.165 200.635 120.85 200.463 120.569C200.297 120.288 200.068 120.064 199.776 119.897C199.489 119.725 199.153 119.639 198.768 119.639C198.325 119.639 197.953 119.728 197.651 119.905C197.354 120.077 197.117 120.311 196.94 120.608C196.768 120.9 196.643 121.225 196.565 121.584C196.492 121.939 196.456 122.301 196.456 122.67V122.999C196.456 123.368 196.492 123.733 196.565 124.092C196.638 124.452 196.76 124.777 196.932 125.069C197.109 125.361 197.346 125.595 197.643 125.772C197.945 125.944 198.32 126.03 198.768 126.03ZM203.784 126.295C203.784 126.051 203.859 125.845 204.01 125.678C204.167 125.506 204.39 125.42 204.682 125.42C204.974 125.42 205.195 125.506 205.346 125.678C205.502 125.845 205.581 126.051 205.581 126.295C205.581 126.535 205.502 126.738 205.346 126.905C205.195 127.071 204.974 127.155 204.682 127.155C204.39 127.155 204.167 127.071 204.01 126.905C203.859 126.738 203.784 126.535 203.784 126.295ZM208.002 126.295C208.002 126.051 208.078 125.845 208.229 125.678C208.385 125.506 208.609 125.42 208.901 125.42C209.193 125.42 209.414 125.506 209.565 125.678C209.721 125.845 209.799 126.051 209.799 126.295C209.799 126.535 209.721 126.738 209.565 126.905C209.414 127.071 209.193 127.155 208.901 127.155C208.609 127.155 208.385 127.071 208.229 126.905C208.078 126.738 208.002 126.535 208.002 126.295ZM212.221 126.295C212.221 126.051 212.297 125.845 212.448 125.678C212.604 125.506 212.828 125.42 213.12 125.42C213.411 125.42 213.633 125.506 213.784 125.678C213.94 125.845 214.018 126.051 214.018 126.295C214.018 126.535 213.94 126.738 213.784 126.905C213.633 127.071 213.411 127.155 213.12 127.155C212.828 127.155 212.604 127.071 212.448 126.905C212.297 126.738 212.221 126.535 212.221 126.295ZM81.0337 142.03H82.5962L80.1509 146.061H78.5884L81.0337 142.03ZM82.2446 137.608H85.7759V146.061H84.3306V138.78H82.2446C81.8332 138.78 81.4972 138.85 81.2368 138.991C80.9764 139.126 80.7863 139.303 80.6665 139.522C80.5467 139.741 80.4868 139.967 80.4868 140.202C80.4868 140.431 80.5415 140.652 80.6509 140.866C80.7603 141.074 80.9321 141.246 81.1665 141.381C81.4009 141.517 81.703 141.584 82.0728 141.584H84.7212V142.772H82.0728C81.5884 142.772 81.1587 142.707 80.7837 142.577C80.4087 142.446 80.091 142.267 79.8306 142.038C79.5701 141.803 79.3722 141.53 79.2368 141.217C79.1014 140.9 79.0337 140.556 79.0337 140.186C79.0337 139.816 79.104 139.475 79.2446 139.163C79.3905 138.85 79.5988 138.577 79.8696 138.342C80.1457 138.108 80.4816 137.928 80.8774 137.803C81.2785 137.673 81.7342 137.608 82.2446 137.608ZM95.0337 138.639C94.716 138.639 94.4113 138.709 94.1196 138.85C93.8332 138.991 93.5962 139.186 93.4087 139.436C93.2264 139.681 93.1353 139.965 93.1353 140.288H91.7524C91.7524 139.782 91.9087 139.316 92.2212 138.889C92.5337 138.457 92.9399 138.111 93.4399 137.85C93.9399 137.584 94.4712 137.452 95.0337 137.452C95.6274 137.452 96.1535 137.564 96.6118 137.788C97.0701 138.012 97.4556 138.319 97.7681 138.709C98.0858 139.1 98.3254 139.551 98.4868 140.061C98.6483 140.566 98.729 141.103 98.729 141.67V141.999C98.729 142.566 98.6457 143.105 98.479 143.616C98.3175 144.121 98.078 144.571 97.7603 144.967C97.4478 145.358 97.0623 145.665 96.604 145.889C96.1509 146.113 95.63 146.225 95.0415 146.225C94.4113 146.225 93.8462 146.09 93.3462 145.819C92.8514 145.548 92.4608 145.183 92.1743 144.725C91.8931 144.262 91.7524 143.741 91.7524 143.163H93.1353C93.1353 143.512 93.2186 143.829 93.3853 144.116C93.5571 144.397 93.7863 144.621 94.0728 144.788C94.3592 144.954 94.6821 145.038 95.0415 145.038C95.4321 145.038 95.7681 144.949 96.0493 144.772C96.3358 144.595 96.5701 144.361 96.7524 144.069C96.9347 143.777 97.0675 143.452 97.1509 143.092C97.2394 142.728 97.2837 142.363 97.2837 141.999V141.67C97.2837 141.301 97.2394 140.936 97.1509 140.577C97.0675 140.217 96.9347 139.892 96.7524 139.6C96.5754 139.308 96.3436 139.077 96.0571 138.905C95.7759 138.728 95.4347 138.639 95.0337 138.639ZM97.9868 141.163V142.342H94.0884V141.163H97.9868ZM103.502 137.608V146.061H102.049V137.608H103.502ZM106.338 137.608V138.78H99.2681V137.608H106.338ZM107.049 141.928V141.749C107.049 141.139 107.138 140.574 107.315 140.053C107.492 139.527 107.747 139.071 108.081 138.686C108.414 138.295 108.818 137.993 109.292 137.78C109.765 137.561 110.297 137.452 110.885 137.452C111.479 137.452 112.013 137.561 112.487 137.78C112.966 137.993 113.372 138.295 113.706 138.686C114.044 139.071 114.302 139.527 114.479 140.053C114.656 140.574 114.745 141.139 114.745 141.749V141.928C114.745 142.538 114.656 143.103 114.479 143.624C114.302 144.144 114.044 144.6 113.706 144.991C113.372 145.376 112.969 145.678 112.495 145.897C112.026 146.111 111.495 146.217 110.901 146.217C110.307 146.217 109.773 146.111 109.299 145.897C108.825 145.678 108.419 145.376 108.081 144.991C107.747 144.6 107.492 144.144 107.315 143.624C107.138 143.103 107.049 142.538 107.049 141.928ZM108.495 141.749V141.928C108.495 142.35 108.544 142.749 108.643 143.124C108.742 143.493 108.89 143.821 109.088 144.108C109.292 144.394 109.544 144.621 109.846 144.788C110.148 144.949 110.5 145.03 110.901 145.03C111.297 145.03 111.643 144.949 111.94 144.788C112.242 144.621 112.492 144.394 112.69 144.108C112.888 143.821 113.036 143.493 113.135 143.124C113.239 142.749 113.292 142.35 113.292 141.928V141.749C113.292 141.332 113.239 140.939 113.135 140.569C113.036 140.194 112.885 139.863 112.682 139.577C112.484 139.285 112.234 139.056 111.932 138.889C111.635 138.722 111.286 138.639 110.885 138.639C110.489 138.639 110.14 138.722 109.838 138.889C109.542 139.056 109.292 139.285 109.088 139.577C108.89 139.863 108.742 140.194 108.643 140.569C108.544 140.939 108.495 141.332 108.495 141.749ZM122.018 137.608V138.803H118.112V146.061H116.667V137.608H122.018ZM122.737 141.928V141.749C122.737 141.139 122.825 140.574 123.002 140.053C123.18 139.527 123.435 139.071 123.768 138.686C124.101 138.295 124.505 137.993 124.979 137.78C125.453 137.561 125.984 137.452 126.573 137.452C127.167 137.452 127.7 137.561 128.174 137.78C128.653 137.993 129.06 138.295 129.393 138.686C129.732 139.071 129.989 139.527 130.167 140.053C130.344 140.574 130.432 141.139 130.432 141.749V141.928C130.432 142.538 130.344 143.103 130.167 143.624C129.989 144.144 129.732 144.6 129.393 144.991C129.06 145.376 128.656 145.678 128.182 145.897C127.713 146.111 127.182 146.217 126.588 146.217C125.995 146.217 125.461 146.111 124.987 145.897C124.513 145.678 124.107 145.376 123.768 144.991C123.435 144.6 123.18 144.144 123.002 143.624C122.825 143.103 122.737 142.538 122.737 141.928ZM124.182 141.749V141.928C124.182 142.35 124.232 142.749 124.331 143.124C124.43 143.493 124.578 143.821 124.776 144.108C124.979 144.394 125.232 144.621 125.534 144.788C125.836 144.949 126.187 145.03 126.588 145.03C126.984 145.03 127.331 144.949 127.627 144.788C127.93 144.621 128.18 144.394 128.377 144.108C128.575 143.821 128.724 143.493 128.823 143.124C128.927 142.749 128.979 142.35 128.979 141.928V141.749C128.979 141.332 128.927 140.939 128.823 140.569C128.724 140.194 128.573 139.863 128.37 139.577C128.172 139.285 127.922 139.056 127.62 138.889C127.323 138.722 126.974 138.639 126.573 138.639C126.177 138.639 125.828 138.722 125.526 138.889C125.229 139.056 124.979 139.285 124.776 139.577C124.578 139.863 124.43 140.194 124.331 140.569C124.232 140.939 124.182 141.332 124.182 141.749ZM141.948 141.272V142.444H137.479V141.272H141.948ZM137.784 137.608V146.061H136.338V137.608H137.784ZM143.12 137.608V146.061H141.667V137.608H143.12ZM148.956 146.217C148.367 146.217 147.833 146.118 147.354 145.92C146.88 145.717 146.471 145.433 146.127 145.069C145.789 144.704 145.528 144.272 145.346 143.772C145.164 143.272 145.073 142.725 145.073 142.131V141.803C145.073 141.116 145.174 140.504 145.377 139.967C145.581 139.426 145.857 138.967 146.206 138.592C146.555 138.217 146.95 137.933 147.393 137.741C147.836 137.548 148.294 137.452 148.768 137.452C149.372 137.452 149.893 137.556 150.331 137.764C150.773 137.972 151.135 138.264 151.417 138.639C151.698 139.009 151.906 139.446 152.042 139.952C152.177 140.452 152.245 140.999 152.245 141.592V142.241H145.932V141.061H150.799V140.952C150.778 140.577 150.7 140.212 150.565 139.858C150.435 139.504 150.226 139.212 149.94 138.983C149.653 138.754 149.263 138.639 148.768 138.639C148.44 138.639 148.138 138.709 147.862 138.85C147.586 138.986 147.349 139.189 147.151 139.459C146.953 139.73 146.799 140.061 146.69 140.452C146.581 140.842 146.526 141.293 146.526 141.803V142.131C146.526 142.532 146.581 142.91 146.69 143.264C146.805 143.613 146.969 143.92 147.182 144.186C147.401 144.452 147.664 144.66 147.971 144.811C148.284 144.962 148.638 145.038 149.034 145.038C149.544 145.038 149.976 144.933 150.331 144.725C150.685 144.517 150.995 144.238 151.26 143.889L152.135 144.584C151.953 144.861 151.721 145.124 151.44 145.374C151.159 145.624 150.812 145.827 150.401 145.983C149.995 146.139 149.513 146.217 148.956 146.217ZM163.362 137.608V138.803H159.456V146.061H158.01V137.608H163.362ZM164.081 141.928V141.749C164.081 141.139 164.169 140.574 164.346 140.053C164.523 139.527 164.778 139.071 165.112 138.686C165.445 138.295 165.849 137.993 166.323 137.78C166.797 137.561 167.328 137.452 167.917 137.452C168.51 137.452 169.044 137.561 169.518 137.78C169.997 137.993 170.403 138.295 170.737 138.686C171.075 139.071 171.333 139.527 171.51 140.053C171.687 140.574 171.776 141.139 171.776 141.749V141.928C171.776 142.538 171.687 143.103 171.51 143.624C171.333 144.144 171.075 144.6 170.737 144.991C170.403 145.376 170 145.678 169.526 145.897C169.057 146.111 168.526 146.217 167.932 146.217C167.338 146.217 166.805 146.111 166.331 145.897C165.857 145.678 165.45 145.376 165.112 144.991C164.778 144.6 164.523 144.144 164.346 143.624C164.169 143.103 164.081 142.538 164.081 141.928ZM165.526 141.749V141.928C165.526 142.35 165.575 142.749 165.674 143.124C165.773 143.493 165.922 143.821 166.12 144.108C166.323 144.394 166.575 144.621 166.877 144.788C167.18 144.949 167.531 145.03 167.932 145.03C168.328 145.03 168.674 144.949 168.971 144.788C169.273 144.621 169.523 144.394 169.721 144.108C169.919 143.821 170.068 143.493 170.167 143.124C170.271 142.749 170.323 142.35 170.323 141.928V141.749C170.323 141.332 170.271 140.939 170.167 140.569C170.068 140.194 169.917 139.863 169.713 139.577C169.515 139.285 169.265 139.056 168.963 138.889C168.667 138.722 168.318 138.639 167.917 138.639C167.521 138.639 167.172 138.722 166.87 138.889C166.573 139.056 166.323 139.285 166.12 139.577C165.922 139.863 165.773 140.194 165.674 140.569C165.575 140.939 165.526 141.332 165.526 141.749ZM177.557 142.342H174.784L174.768 141.186H177.034C177.482 141.186 177.854 141.142 178.151 141.053C178.453 140.965 178.68 140.832 178.831 140.655C178.982 140.478 179.057 140.259 179.057 139.999C179.057 139.795 179.013 139.618 178.924 139.467C178.841 139.311 178.713 139.183 178.542 139.084C178.37 138.98 178.156 138.905 177.901 138.858C177.651 138.806 177.357 138.78 177.018 138.78H175.167V146.061H173.721V137.608H177.018C177.555 137.608 178.036 137.655 178.463 137.749C178.896 137.842 179.263 137.986 179.565 138.178C179.872 138.366 180.107 138.605 180.268 138.897C180.43 139.189 180.51 139.532 180.51 139.928C180.51 140.183 180.458 140.426 180.354 140.655C180.25 140.884 180.096 141.087 179.893 141.264C179.69 141.441 179.44 141.587 179.143 141.702C178.846 141.811 178.505 141.881 178.12 141.913L177.557 142.342ZM177.557 146.061H174.26L174.979 144.889H177.557C177.958 144.889 178.292 144.84 178.557 144.741C178.823 144.637 179.021 144.491 179.151 144.303C179.286 144.111 179.354 143.881 179.354 143.616C179.354 143.35 179.286 143.124 179.151 142.936C179.021 142.743 178.823 142.597 178.557 142.499C178.292 142.394 177.958 142.342 177.557 142.342H175.362L175.377 141.186H178.12L178.643 141.624C179.107 141.66 179.5 141.775 179.823 141.967C180.146 142.16 180.39 142.405 180.557 142.702C180.724 142.993 180.807 143.311 180.807 143.655C180.807 144.051 180.732 144.4 180.581 144.702C180.435 145.004 180.221 145.256 179.94 145.459C179.659 145.657 179.318 145.808 178.917 145.913C178.515 146.012 178.062 146.061 177.557 146.061ZM182.362 141.928V141.749C182.362 141.139 182.45 140.574 182.627 140.053C182.805 139.527 183.06 139.071 183.393 138.686C183.726 138.295 184.13 137.993 184.604 137.78C185.078 137.561 185.609 137.452 186.198 137.452C186.792 137.452 187.325 137.561 187.799 137.78C188.278 137.993 188.685 138.295 189.018 138.686C189.357 139.071 189.614 139.527 189.792 140.053C189.969 140.574 190.057 141.139 190.057 141.749V141.928C190.057 142.538 189.969 143.103 189.792 143.624C189.614 144.144 189.357 144.6 189.018 144.991C188.685 145.376 188.281 145.678 187.807 145.897C187.338 146.111 186.807 146.217 186.213 146.217C185.62 146.217 185.086 146.111 184.612 145.897C184.138 145.678 183.732 145.376 183.393 144.991C183.06 144.6 182.805 144.144 182.627 143.624C182.45 143.103 182.362 142.538 182.362 141.928ZM183.807 141.749V141.928C183.807 142.35 183.857 142.749 183.956 143.124C184.055 143.493 184.203 143.821 184.401 144.108C184.604 144.394 184.857 144.621 185.159 144.788C185.461 144.949 185.812 145.03 186.213 145.03C186.609 145.03 186.956 144.949 187.252 144.788C187.555 144.621 187.805 144.394 188.002 144.108C188.2 143.821 188.349 143.493 188.448 143.124C188.552 142.749 188.604 142.35 188.604 141.928V141.749C188.604 141.332 188.552 140.939 188.448 140.569C188.349 140.194 188.198 139.863 187.995 139.577C187.797 139.285 187.547 139.056 187.245 138.889C186.948 138.722 186.599 138.639 186.198 138.639C185.802 138.639 185.453 138.722 185.151 138.889C184.854 139.056 184.604 139.285 184.401 139.577C184.203 139.863 184.055 140.194 183.956 140.569C183.857 140.939 183.807 141.332 183.807 141.749ZM193.315 139.233V149.311H191.862V137.608H193.19L193.315 139.233ZM199.01 141.764V141.928C199.01 142.543 198.937 143.113 198.792 143.639C198.646 144.16 198.432 144.613 198.151 144.999C197.875 145.384 197.534 145.683 197.127 145.897C196.721 146.111 196.255 146.217 195.729 146.217C195.193 146.217 194.719 146.129 194.307 145.952C193.896 145.775 193.547 145.517 193.26 145.178C192.974 144.84 192.745 144.433 192.573 143.959C192.406 143.486 192.292 142.952 192.229 142.358V141.483C192.292 140.858 192.409 140.298 192.581 139.803C192.752 139.308 192.979 138.887 193.26 138.538C193.547 138.183 193.893 137.915 194.299 137.733C194.706 137.545 195.174 137.452 195.706 137.452C196.237 137.452 196.708 137.556 197.12 137.764C197.531 137.967 197.877 138.259 198.159 138.639C198.44 139.019 198.651 139.475 198.792 140.006C198.937 140.532 199.01 141.118 199.01 141.764ZM197.557 141.928V141.764C197.557 141.342 197.513 140.946 197.424 140.577C197.336 140.202 197.198 139.874 197.01 139.592C196.828 139.306 196.594 139.082 196.307 138.92C196.021 138.754 195.68 138.67 195.284 138.67C194.919 138.67 194.601 138.733 194.331 138.858C194.065 138.983 193.838 139.152 193.651 139.366C193.463 139.574 193.31 139.814 193.19 140.084C193.075 140.35 192.989 140.626 192.932 140.913V142.936C193.036 143.301 193.182 143.644 193.37 143.967C193.557 144.285 193.807 144.543 194.12 144.741C194.432 144.933 194.825 145.03 195.299 145.03C195.69 145.03 196.026 144.949 196.307 144.788C196.594 144.621 196.828 144.394 197.01 144.108C197.198 143.821 197.336 143.493 197.424 143.124C197.513 142.749 197.557 142.35 197.557 141.928ZM202.417 143.772L206.315 137.608H207.768V146.061H206.315V139.897L202.417 146.061H200.979V137.608H202.417V143.772ZM215.737 137.608V138.803H211.651V137.608H215.737ZM217.01 137.608V146.061H215.565V137.608H217.01ZM211.299 137.608H212.752L212.534 141.686C212.497 142.316 212.437 142.874 212.354 143.358C212.276 143.837 212.167 144.249 212.026 144.592C211.89 144.936 211.719 145.217 211.51 145.436C211.307 145.65 211.062 145.808 210.776 145.913C210.489 146.012 210.159 146.061 209.784 146.061H209.331V144.788L209.643 144.764C209.867 144.749 210.057 144.696 210.213 144.608C210.375 144.519 210.51 144.389 210.62 144.217C210.729 144.04 210.818 143.814 210.885 143.538C210.958 143.262 211.013 142.933 211.049 142.553C211.091 142.173 211.122 141.73 211.143 141.225L211.299 137.608Z" fill="white" fill-opacity="0.6"/>
<path d="M113.26 228.832C118.337 224.094 131.663 207.663 132.338 201.578C134.069 188.043 108.474 176.656 94.9931 190.457C70.615 215.318 64.3493 223.197 77.0348 233.448C81.4373 237.284 87.7373 238.954 94.5378 238.087C101.338 237.221 108.077 233.889 113.26 228.832Z" fill="#F85AE8"/>
<path d="M42.3319 255.387C45.58 256.396 55.4938 254.35 58.2618 252.358C64.3344 247.966 62.9221 231.923 53.7992 229.713C37.3891 225.702 33.3219 228.458 32.1356 239.726C31.26 247.966 34.6211 252.986 42.3319 255.387Z" fill="#F85AE8"/>
<path d="M5.56337 248.229C7.31238 248.762 12.6507 247.682 14.1411 246.632C17.411 244.314 16.6506 235.852 11.7381 234.686C2.90184 232.571 0.711779 234.024 0.0730111 239.968C-0.398461 244.314 1.41138 246.963 5.56337 248.229Z" fill="#F85AE8"/>
</svg>
