<svg width="449" height="268" viewBox="0 0 449 268" fill="none" xmlns="http://www.w3.org/2000/svg">
<path d="M81.4392 81.8128C81.4392 102.733 72.0999 109.457 56.7833 109.457H40.7196V146.815H54.5419C73.2206 146.815 81.4392 155.781 81.4392 180.063V200.61C81.4392 223.771 73.2206 230.122 60.1455 230.122C47.0704 230.122 38.8518 223.024 38.8518 204.345V180.063H0V201.73C0 243.571 20.9202 267.479 61.2662 267.479C101.612 267.479 122.532 243.571 122.532 201.73V181.184C122.532 154.66 114.314 135.234 93.7672 126.268C113.567 118.05 122.532 100.492 122.532 72.4735V65.7491C122.532 23.9088 101.612 0 61.2662 0C20.9202 0 0 23.9088 0 65.7491V79.9449H38.8518V63.1341C38.8518 44.4554 47.0704 37.3574 60.1455 37.3574C73.2206 37.3574 81.4392 43.7082 81.4392 67.2434V81.8128Z" fill="white"/>
<path d="M136.102 65.0017H167.855V264.49H208.949V2.98828H181.304C174.953 20.5463 167.855 35.8628 136.102 35.8628V65.0017Z" fill="white"/>
<path d="M232.339 217.047H311.537V264.49H351.883V217.047H371.309V179.689H351.883V2.98828H307.054L232.339 179.689V217.047ZM270.07 179.689L311.537 81.4389V179.689H270.07Z" fill="white"/>
<path d="M375.912 65.0017H407.666V264.49H448.759V2.98828H421.115C414.764 20.5463 407.666 35.8628 375.912 35.8628V65.0017Z" fill="white"/>
</svg>
